<?xml version="1.0" standalone="no"?>
<!DOCTYPE svg PUBLIC "-//W3C//DTD SVG 1.1//EN" "http://www.w3.org/Graphics/SVG/1.1/DTD/svg11.dtd" >
<svg xmlns="http://www.w3.org/2000/svg" xmlns:xlink="http://www.w3.org/1999/xlink" version="1.1">
<metadata>
Created by FontForge 20170731 at Wed Nov  7 06:08:19 2018
 By Aleksey,,,
Copyright 2017 The Barlow Project Authors (https://github.com/jpt/barlow)
</metadata>
<defs>
<font id="BarlowCondensed-Light" horiz-adv-x="418" >
  <font-face 
    font-family="Barlow Condensed Light"
    font-weight="300"
    font-stretch="condensed"
    units-per-em="1000"
    panose-1="0 0 4 6 0 0 0 0 0 0"
    ascent="800"
    descent="-200"
    x-height="504"
    cap-height="700"
    bbox="-601.786 -211 974 1074"
    underline-thickness="50"
    underline-position="-150"
    unicode-range="U+000D-FB02"
  />
<missing-glyph horiz-adv-x="325" 
d="M4 0h317q4 0 4 4v692q0 4 -4 4h-317q-4 0 -4 -4v-692q0 -4 4 -4zM137 238v44q0 29 11 48t34 43q24 25 36 46t12 55q0 40 -17 63.5t-46 23.5q-30 0 -48.5 -24t-18.5 -63v-22q0 -10 -10 -10l-18 1q-10 0 -10 10v21q0 55 29 88.5t76 33.5t74.5 -33.5t27.5 -89.5
q0 -44 -14 -69.5t-41 -54.5q-19 -19 -28.5 -33.5t-9.5 -35.5v-42q0 -10 -10 -10h-19q-10 0 -10 10zM131 101.5q-10 10.5 -10 25.5q0 16 10 26t26 10t26 -10t10 -26q0 -15 -10 -25.5t-26 -10.5t-26 10.5z" />
    <glyph glyph-name="fi" unicode="fi" horiz-adv-x="476" 
d="M155 633.5q-16 -28.5 -16 -89.5v-36q0 -4 4 -4h82q10 0 10 -10v-22q0 -10 -10 -10h-82q-4 0 -4 -4v-448q0 -10 -10 -10h-33q-10 0 -10 10v448q0 4 -4 4h-42q-10 0 -10 10v22q0 10 10 10h42q4 0 4 4v37q0 84 29 123.5t98 39.5h15q10 0 10 -10l-1 -26q0 -10 -10 -10h-13
q-43 0 -59 -28.5zM337 619q-14 14 -14 36t14 36t36 14t36 -14t14 -36t-14 -36t-36 -14t-36 14zM347 10v484q0 10 10 10h33q10 0 10 -10v-484q0 -10 -10 -10h-33q-10 0 -10 10z" />
    <glyph glyph-name="fl" unicode="fl" horiz-adv-x="445" 
d="M155 633.5q-16 -28.5 -16 -89.5v-36q0 -4 4 -4h82q10 0 10 -10v-22q0 -10 -10 -10h-82q-4 0 -4 -4v-448q0 -10 -10 -10h-33q-10 0 -10 10v448q0 4 -4 4h-42q-10 0 -10 10v22q0 10 10 10h42q4 0 4 4v37q0 84 29 123.5t98 39.5h15q10 0 10 -10l-1 -26q0 -10 -10 -10h-13
q-43 0 -59 -28.5zM332 10v680q0 10 10 10h33q10 0 10 -10v-680q0 -10 -10 -10h-33q-10 0 -10 10z" />
    <glyph glyph-name="I_J.liga" unicode="IJ" horiz-adv-x="629" 
d="M79 10v680q0 10 10 10h33q10 0 10 -10v-680q0 -10 -10 -10h-33q-10 0 -10 10zM278.5 37q-43.5 45 -43.5 119v88q0 10 10 10h33q10 0 10 -10v-89q0 -52 29 -84t76 -32t76 32t29 84v535q0 10 10 10h33q10 0 10 -10v-534q0 -74 -43.5 -119t-114.5 -45t-114.5 45z" />
    <glyph glyph-name="f_f_i.liga" unicode="ffi" horiz-adv-x="735" 
d="M139 508q0 -4 4 -4h100q10 0 10 -10v-22q0 -10 -10 -10h-100q-4 0 -4 -4v-448q0 -10 -10 -10h-33q-10 0 -10 10v448q0 4 -4 4h-42q-10 0 -10 10v22q0 10 10 10h42q4 0 4 4v43q0 81 29.5 119.5t97.5 37.5h12q10 0 10 -10v-20q0 -10 -10 -10h-11q-44 -1 -59.5 -30
t-15.5 -90v-40zM378 670.5q29 38.5 98 37.5h12q10 0 10 -10v-20q0 -10 -10 -10h-11q-44 -1 -59.5 -30t-15.5 -90v-40q0 -4 4 -4h82q10 0 10 -10v-22q0 -10 -10 -10h-82q-4 0 -4 -4v-448q0 -10 -10 -10h-33q-10 0 -10 10v448q0 4 -4 4h-61q-10 0 -10 10v22q0 10 10 10h61
q4 0 4 4v43q0 81 29 119.5zM668 691q14 -14 14 -36t-14 -36t-36 -14t-36 14t-14 36t14 36t36 14t36 -14zM606 10v484q0 10 10 10h33q10 0 10 -10v-484q0 -10 -10 -10h-33q-10 0 -10 10z" />
    <glyph glyph-name="f_f_l.liga" unicode="ffl" horiz-adv-x="710" 
d="M139 508q0 -4 4 -4h100q10 0 10 -10v-22q0 -10 -10 -10h-100q-4 0 -4 -4v-448q0 -10 -10 -10h-33q-10 0 -10 10v448q0 4 -4 4h-42q-10 0 -10 10v22q0 10 10 10h42q4 0 4 4v43q0 81 29.5 119.5t97.5 37.5h12q10 0 10 -10v-20q0 -10 -10 -10h-11q-44 -1 -59.5 -30
t-15.5 -90v-40zM379.5 670.5q29.5 38.5 97.5 37.5h12q10 0 10 -10v-20q0 -10 -10 -10h-11q-44 -1 -59.5 -30t-15.5 -90v-40q0 -4 4 -4h82q10 0 10 -10v-22q0 -10 -10 -10h-82q-4 0 -4 -4v-448q0 -10 -10 -10h-33q-10 0 -10 10v448q0 4 -4 4h-61q-10 0 -10 10v22q0 10 10 10
h61q4 0 4 4v43q0 81 29.5 119.5zM606 700h33q10 0 10 -10v-680q0 -10 -10 -10h-33q-10 0 -10 10v680q0 10 10 10z" />
    <glyph glyph-name="g_j.liga" unicode="gj" horiz-adv-x="601" 
d="M535 691q14 -14 14 -36t-14 -36t-36 -14t-36 14t-14 36t14 36t36 14t36 -14zM295.5 456q1.5 0 1.5 3v35q0 10 10 10h34q10 0 10 -10v-488q0 -103 -47 -157t-151 -50q-10 0 -10 10v27q0 10 13 10q76 0 108.5 41t32.5 123v38q0 3 -2 3.5t-3 -2.5q-17 -27 -43.5 -40.5
t-58.5 -13.5q-62 0 -98.5 41.5t-36.5 108.5v217q0 67 36.5 108.5t98.5 41.5q32 0 59 -14t43 -40q2 -2 3.5 -2zM472 494q0 10 10 10h33q10 0 10 -10v-549q0 -74 -30 -113.5t-97 -40.5q-10 0 -10 10l1 27q0 10 8 10q36 1 55.5 29.5t19.5 77.5v549zM271 71q26 29 26 76v212
q0 47 -26 76.5t-67 29.5q-42 0 -69 -29.5t-27 -76.5v-212q0 -46 27 -75.5t69 -29.5q41 0 67 29z" />
    <glyph glyph-name="i_j.liga" unicode="ij" horiz-adv-x="397" 
d="M66 619q-14 14 -14 36t14 36t36 14t36 -14t14 -36t-14 -36t-36 -14t-36 14zM258 619q-14 14 -14 36t14 36t36 14t36 -14t14 -36t-14 -36t-36 -14t-36 14zM76 10v484q0 10 10 10h33q10 0 10 -10v-484q0 -10 -10 -10h-33q-10 0 -10 10zM178 -199v27q0 10 10 10
q39 2 59 30.5t20 76.5v549q0 10 10 10h33q10 0 10 -10v-549q0 -75 -30 -114t-102 -40q-10 0 -10 10z" />
    <glyph glyph-name="hyphen_hyphen.liga" unicode="&#x2d;&#x2d;" horiz-adv-x="592" 
d="M34 293v27q0 10 10 10h504q10 0 10 -10v-27q0 -10 -10 -10h-504q-10 0 -10 10z" />
    <glyph glyph-name=".notdef" horiz-adv-x="325" 
d="M4 0h317q4 0 4 4v692q0 4 -4 4h-317q-4 0 -4 -4v-692q0 -4 4 -4zM137 238v44q0 29 11 48t34 43q24 25 36 46t12 55q0 40 -17 63.5t-46 23.5q-30 0 -48.5 -24t-18.5 -63v-22q0 -10 -10 -10l-18 1q-10 0 -10 10v21q0 55 29 88.5t76 33.5t74.5 -33.5t27.5 -89.5
q0 -44 -14 -69.5t-41 -54.5q-19 -19 -28.5 -33.5t-9.5 -35.5v-42q0 -10 -10 -10h-19q-10 0 -10 10zM131 101.5q-10 10.5 -10 25.5q0 16 10 26t26 10t26 -10t10 -26q0 -15 -10 -25.5t-26 -10.5t-26 10.5z" />
    <glyph glyph-name=".null" horiz-adv-x="0" 
 />
    <glyph glyph-name="nonmarkingreturn" unicode="&#xd;" horiz-adv-x="200" 
 />
    <glyph glyph-name="NULL" horiz-adv-x="0" 
 />
    <glyph glyph-name="NULL" horiz-adv-x="0" 
 />
    <glyph glyph-name="space" unicode=" " horiz-adv-x="200" 
 />
    <glyph glyph-name="exclam" unicode="!" horiz-adv-x="244" 
d="M101 235l-4 455q0 10 10 10h33q10 0 10 -10l-5 -455q0 -10 -10 -10h-24q-10 0 -10 10zM86 18q-14 14 -14 36t14 36t36 14t36 -14t14 -36t-14 -36t-36 -14t-36 14z" />
    <glyph glyph-name="quotedbl" unicode="&#x22;" horiz-adv-x="206" 
d="M30 503l-6 180q0 10 10 10h34q10 0 10 -10l-6 -180q0 -10 -10 -10h-22q-10 0 -10 10zM132 503l-5 180q0 10 10 10h33q10 0 10 -10l-6 -180q0 -10 -10 -10h-22q-10 0 -10 10z" />
    <glyph glyph-name="numbersign" unicode="#" horiz-adv-x="582" 
d="M511 436h-62q-5 0 -5 -4l-26 -175q0 -4 3 -4h58q10 0 10 -10v-27q0 -10 -10 -10h-64q-5 0 -5 -4l-27 -179q-1 -9 -10 -9l-33 1q-4 0 -7 3t-2 8l25 176q0 4 -3 4h-161q-5 0 -5 -4l-27 -179q-1 -9 -10 -9l-33 1q-4 0 -7 3t-2 8l25 176q0 4 -3 4h-59q-10 0 -10 10v27
q0 10 10 10h66q5 0 5 4l25 175q0 4 -3 4h-61q-10 0 -10 10v27q0 10 10 10h68q5 0 5 4l27 180q1 9 10 9l33 -2q5 0 7.5 -3t1.5 -7l-25 -177q0 -4 3 -4h161q5 0 5 4l27 180q1 9 10 9l33 -2q5 0 7.5 -3t1.5 -7l-25 -177q0 -4 3 -4h55q10 0 10 -10v-27q0 -10 -10 -10zM365 257
l25 175q0 4 -3 4h-161q-5 0 -5 -4l-26 -175q0 -4 3 -4h162q5 0 5 4z" />
    <glyph glyph-name="dollar" unicode="$" horiz-adv-x="409" 
d="M329.5 53q-34.5 -47 -92.5 -58q-4 -1 -4 -5v-72q0 -10 -10 -10h-22q-10 0 -10 10l1 70q0 4 -4 4q-65 6 -104 53.5t-39 121.5v21q0 10 10 10h32q10 0 10 -10v-19q0 -59 29.5 -95t76.5 -36t78 35t31 91q0 37 -14.5 64t-37 46.5t-73.5 58.5q-52 39 -79.5 64.5t-45.5 61
t-18 84.5q0 72 38.5 116t101.5 49q4 0 4 4l-1 76q0 10 10 10h22q10 0 10 -10v-79q0 -4 4 -5q58 -11 92 -57.5t34 -116.5v-25q0 -10 -10 -10h-33q-10 0 -10 10v25q0 59 -29.5 95.5t-78.5 36.5q-44 0 -73 -31.5t-29 -88.5q0 -34 12.5 -59t36 -47t71.5 -58q59 -44 88 -71
t44.5 -59t15.5 -77q0 -71 -34.5 -118z" />
    <glyph glyph-name="percent" unicode="%" horiz-adv-x="785" 
d="M146.5 451.5q-31.5 18.5 -49.5 50.5t-18 70q0 37 18 69t49.5 50.5t68.5 18.5t68 -18.5t49 -50.5t18 -69q0 -38 -18 -70t-49 -50.5t-68 -18.5t-68.5 18.5zM187.5 3.5q-2.5 3.5 0.5 8.5l367 681q3 7 12 7h21q6 0 8.5 -3.5t-0.5 -8.5l-367 -681q-3 -7 -12 -7h-21
q-6 0 -8.5 3.5zM285 497.5q29 30.5 29 74.5q0 43 -29 73t-70 30q-42 0 -71 -30t-29 -73q0 -44 29 -74.5t71 -30.5q41 0 70 30.5zM503.5 8.5q-31.5 18.5 -49.5 50.5t-18 70t18 69.5t49.5 50t68.5 18.5q36 0 67 -18.5t49 -50.5t18 -69q0 -38 -18 -70t-49 -50.5t-67 -18.5
q-37 0 -68.5 18.5zM642 55.5q29 30.5 29 73.5t-29 73.5t-70 30.5q-43 0 -72 -30t-29 -74t29 -74t72 -30q41 0 70 30.5z" />
    <glyph glyph-name="ampersand" unicode="&#x26;" horiz-adv-x="527" 
d="M476 7q0 -7 -9 -7h-34q-8 0 -12 6l-14 21l-34 49q-3 5 -6 0q-38 -44 -76 -64t-87 -20q-74 0 -117 41.5t-43 118.5q0 68 32.5 118t90.5 101q3 1 1 5q-37 57 -54 87t-22.5 51t-5.5 47q0 67 37.5 107t97.5 40t98.5 -40t38.5 -105q0 -61 -31 -105.5t-89 -94.5q-3 -1 -1 -5
l65 -97l66 -96q1 -1 3 -1t3 1q11 18 49 83q2 4 6 5t8 -1l24 -14q8 -5 3 -14q-31 -56 -62 -102q-1 -3 0 -6l72 -104zM162 632q-23 -27 -23 -73q0 -30 11.5 -58t53.5 -93q2 -4 5 -1q47 41 71.5 76.5t24.5 79.5q0 43 -23.5 69.5t-59.5 26.5q-37 0 -60 -27zM277.5 58
q31.5 19 63.5 60q2 3 0 6l-26 37l-25 37l-88 128q-1 5 -5 1q-48 -45 -74 -84.5t-26 -89.5q0 -53 29.5 -83.5t82.5 -30.5q37 0 68.5 19z" />
    <glyph glyph-name="quotesingle" unicode="'" horiz-adv-x="106" 
d="M30 508l-6 180q0 10 10 10h36q10 0 10 -10l-7 -180q0 -10 -10 -10h-23q-10 0 -10 10z" />
    <glyph glyph-name="parenleft" unicode="(" horiz-adv-x="199" 
d="M78 -100q-36 75 -59 188t-23 235q0 126 23.5 242.5t61.5 191.5q4 7 12 7h30q5 0 7.5 -3.5t0.5 -7.5q-32 -78 -53 -193t-21 -235q0 -119 21 -231.5t53 -189.5q1 -1 1 -4t-2.5 -5t-6.5 -2h-33q-8 0 -12 7z" />
    <glyph glyph-name="parenright" unicode=")" horiz-adv-x="199" 
d="M120 757q36 -74 59 -188t23 -235q0 -125 -23 -242t-61 -192q-4 -7 -12 -7h-31q-5 0 -7.5 3.5t-0.5 7.5q33 77 54 192t21 236q0 119 -21 232t-54 188l-1 4q0 8 9 8h33q8 0 12 -7z" />
    <glyph glyph-name="asterisk" unicode="*" horiz-adv-x="360" 
d="M162 404v128q0 2 -1.5 3t-3.5 0l-106 -66l-5 -2q-5 0 -9 6l-8 14q-2 4 -2 6q0 6 5 8l108 66q2 1 2 3t-2 3l-108 66q-8 5 -3 14l8 14q6 10 14 4l106 -66q2 -1 3.5 0t1.5 3v129q0 10 10 10h17q10 0 10 -10v-129q0 -2 2 -3t3 0l105 66l5 2q5 0 9 -6l8 -14q2 -4 2 -6
q0 -5 -5 -8l-107 -66q-1 -1 -1 -3t1 -3l107 -66q8 -5 3 -14l-8 -14q-6 -10 -14 -4l-105 66q-1 1 -3 0t-2 -3v-128q0 -10 -10 -10h-17q-10 0 -10 10z" />
    <glyph glyph-name="plus" unicode="+" horiz-adv-x="443" 
d="M408 332v-23q0 -10 -10 -10h-152q-4 0 -4 -4v-151q0 -10 -10 -10h-22q-10 0 -10 10v151q0 4 -4 4h-152q-10 0 -10 10v23q0 10 10 10h152q4 0 4 4v152q0 10 10 10h22q10 0 10 -10v-152q0 -4 4 -4h152q10 0 10 -10z" />
    <glyph glyph-name="comma" unicode="," horiz-adv-x="169" 
d="M43 -71q-3 3 -2 8l34 208q2 9 10 9h28q5 0 7.5 -3t1.5 -8l-42 -208q-1 -9 -11 -9h-19q-4 0 -7 3z" />
    <glyph glyph-name="hyphen" unicode="-" horiz-adv-x="309" 
d="M34 301v27q0 10 10 10h221q10 0 10 -10v-27q0 -10 -10 -10h-221q-10 0 -10 10z" />
    <glyph glyph-name="period" unicode="." horiz-adv-x="181" 
d="M54 18q-14 14 -14 36t14 36t36 14t36 -14t14 -36t-14 -36t-36 -14t-36 14z" />
    <glyph glyph-name="slash" unicode="/" horiz-adv-x="313" 
d="M27 11l170 680q2 9 11 9h33q11 0 8 -11l-170 -680q-1 -9 -11 -9h-33q-11 0 -8 11z" />
    <glyph glyph-name="zero" unicode="0" horiz-adv-x="442" 
d="M102 38q-45 48 -45 126v372q0 78 45 126t118 48q74 0 119 -48t45 -126v-372q0 -78 -45 -126t-119 -48q-73 0 -118 48zM300.5 71.5q30.5 33.5 30.5 88.5v380q0 55 -30.5 88.5t-80.5 33.5q-49 0 -79.5 -33.5t-30.5 -88.5v-380q0 -55 30.5 -88.5t79.5 -33.5q50 0 80.5 33.5z
" />
    <glyph glyph-name="one" unicode="1" horiz-adv-x="249" 
d="M138 700h36q10 0 10 -10v-680q0 -10 -10 -10h-33q-10 0 -10 10v623q0 2 -1.5 3t-3.5 0l-97 -39l-4 -1q-6 0 -8 8l-5 23v2q0 8 6 11l107 57q6 3 13 3z" />
    <glyph glyph-name="two" unicode="2" horiz-adv-x="392" 
d="M109 48.5q1 -1.5 3 -1.5h240q10 0 10 -10v-27q0 -10 -10 -10h-299q-10 0 -10 10v30q0 7 3 13q8 14 13 21q25 41 75 124.5t86 145.5q66 118 66 193q0 56 -26 90t-70 34q-43 0 -68.5 -33.5t-24.5 -89.5v-36q0 -10 -10 -10h-35q-10 0 -10 10v38q2 75 43 121.5t106 46.5
q67 0 108 -47t41 -124q0 -91 -72 -216q-28 -50 -88 -148l-71 -121q-1 -2 0 -3.5z" />
    <glyph glyph-name="three" unicode="3" horiz-adv-x="401" 
d="M343 209q0 -56 -11 -100q-30 -117 -140 -117q-58 0 -95.5 32.5t-48.5 92.5q-7 38 -8 81q0 10 10 10h33q10 0 10 -10q2 -44 7 -71q20 -88 92 -88q69 0 90 79q9 41 9 95q0 71 -14 113q-23 69 -85 69q-13 0 -21 -4q-4 -2 -7.5 -1.5t-6.5 3.5l-16 17q-5 7 -1 14l135 224
q1 2 0 3.5t-3 1.5h-218q-10 0 -10 10v27q0 10 10 10h277q10 0 10 -10v-30q0 -7 -3 -13l-128 -211q-1 -2 -0.5 -3.5t2.5 -1.5q41 -2 70 -28t43 -70q18 -49 18 -124z" />
    <glyph glyph-name="four" unicode="4" horiz-adv-x="397" 
d="M373 233v-28q0 -10 -10 -10h-30q-4 0 -4 -4v-181q0 -10 -10 -10h-33q-10 0 -10 10v181q0 4 -4 4h-238q-10 0 -10 10v26q0 4 2 12l154 449q3 8 12 8h36q11 0 8 -11l-150 -441q-1 -2 0 -3.5t3 -1.5h183q4 0 4 4v166q0 10 10 10h33q10 0 10 -10v-166q0 -4 4 -4h30
q10 0 10 -10z" />
    <glyph glyph-name="five" unicode="5" horiz-adv-x="401" 
d="M361 212q0 -52 -7 -88q-11 -64 -48.5 -98t-96.5 -34q-60 0 -97.5 34t-48.5 101q-2 10 -4 30q0 10 10 10h33q10 0 10 -10l4 -26q18 -92 93 -92q71 0 91 87q8 33 8 86q0 55 -11 96q-21 76 -88 76q-76 0 -96 -77q-3 -9 -11 -9h-34q-10 0 -10 10v382q0 10 10 10h264
q10 0 10 -10v-27q0 -10 -10 -10h-217q-4 0 -4 -4v-268q0 -3 1.5 -3.5t3.5 2.5q16 25 43 38t62 13q50 0 82.5 -29t45.5 -85q12 -43 12 -105z" />
    <glyph glyph-name="six" unicode="6" horiz-adv-x="402" 
d="M362 212q0 -38 -5 -78q-10 -69 -47.5 -105.5t-99.5 -36.5q-58 0 -95 33.5t-48 99.5q-8 32 -8 85l-1 329q0 76 42 122.5t110 46.5q62 0 101.5 -46.5t39.5 -122.5v-11q0 -10 -10 -10h-33q-10 0 -10 10v11q0 53 -25.5 87t-62.5 34q-44 0 -71 -33.5t-27 -87.5v-154
q0 -3 1.5 -3t3.5 2q15 25 40 38.5t55 13.5q56 0 92 -33t48 -94q10 -39 10 -97zM309 215q0 46 -10 93q-19 81 -89 81t-90 -86q-8 -36 -8 -88q0 -44 6 -82q18 -94 92 -94q76 0 94 100q5 40 5 76z" />
    <glyph glyph-name="seven" unicode="7" horiz-adv-x="355" 
d="M108.5 3q-2.5 3 -1.5 8l173 638q1 1 -0.5 2.5t-3.5 1.5h-201q-4 0 -4 -4v-42q0 -10 -10 -10h-25q-10 0 -10 10v83q0 10 10 10h291q10 0 10 -10v-31q0 -2 -2 -12l-172 -638q-2 -9 -11 -9h-36q-5 0 -7.5 3z" />
    <glyph glyph-name="eight" unicode="8" 
d="M283 370q35 -19 54 -57q23 -48 23 -120q0 -52 -13 -96q-17 -50 -53 -77.5t-86 -27.5q-49 0 -84.5 27.5t-52.5 77.5q-14 44 -14 97q0 63 20 111q17 45 56 65q4 3 0 6q-33 18 -52 52q-24 45 -24 105q0 61 23 104q18 35 51.5 53.5t76.5 18.5t75.5 -18t51.5 -52
q25 -41 25 -107q0 -62 -22 -102q-21 -37 -55 -54q-5 -3 0 -6zM128 445q25 -49 80 -49q59 0 84 54q16 34 16 80q0 52 -20 84q-25 48 -80 48q-56 0 -81 -51q-17 -34 -17 -83q0 -50 18 -83zM307 195q0 56 -16 96q-24 60 -83 60q-30 0 -51.5 -16.5t-32.5 -48.5q-14 -36 -14 -90
q0 -47 10 -80q11 -37 33.5 -57t54.5 -20q33 0 56 21t34 60q9 32 9 75z" />
    <glyph glyph-name="nine" unicode="9" horiz-adv-x="395" 
d="M336 490v-329q0 -76 -41.5 -122.5t-109.5 -46.5q-62 0 -102 46.5t-40 122.5v11q0 10 10 10h33q10 0 10 -10v-11q0 -53 26 -87t63 -34q44 0 71 33.5t27 87.5v154q0 3 -1.5 3t-3.5 -2q-15 -25 -40 -38.5t-55 -13.5q-56 0 -92 33t-49 94q-9 41 -9 97q0 48 5 78
q9 69 47 105.5t100 36.5q58 0 95 -33.5t48 -99.5q8 -38 8 -85zM275 397q8 36 8 88q0 45 -6 82q-20 94 -92 94q-76 0 -94 -100q-5 -40 -5 -76q0 -53 10 -93q20 -81 89 -81q70 0 90 86z" />
    <glyph glyph-name="colon" unicode=":" horiz-adv-x="194" 
d="M61 358q-14 14 -14 36t14 36t36 14t36 -14t14 -36t-14 -36t-36 -14t-36 14zM61 19q-14 14 -14 36t14 36t36 14t36 -14t14 -36t-14 -36t-36 -14t-36 14z" />
    <glyph glyph-name="semicolon" unicode=";" horiz-adv-x="183" 
d="M58 370.5q-14 15.5 -14 37.5q0 21 14.5 36.5t33.5 15.5q18 0 32.5 -15.5t14.5 -36.5q0 -22 -14 -37.5t-33 -15.5q-20 0 -34 15.5zM49 -66.5q-3 3.5 -2 7.5l21 199q1 9 10 9h30q4 0 7 -3t2 -8l-31 -199q-1 -9 -10 -9h-19q-5 0 -8 3.5z" />
    <glyph glyph-name="less" unicode="&#x3c;" horiz-adv-x="443" 
d="M404.5 65.5q-3.5 -2.5 -8.5 0.5l-355 178q-7 3 -7 12v33q0 9 7 12l355 178l5 2q3 0 5 -2.5t2 -6.5v-32q0 -8 -7 -12l-311 -152q-4 -3 0 -6l311 -153q7 -4 7 -12v-32q0 -5 -3.5 -7.5z" />
    <glyph glyph-name="equal" unicode="=" horiz-adv-x="443" 
d="M34 427v23q0 10 10 10h354q10 0 10 -10v-23q0 -10 -10 -10h-354q-10 0 -10 10zM34 216v23q0 10 10 10h354q10 0 10 -10v-23q0 -10 -10 -10h-354q-10 0 -10 10z" />
    <glyph glyph-name="greater" unicode="&#x3e;" horiz-adv-x="443" 
d="M41 64q-3 0 -5 2.5t-2 6.5v32q0 8 7 12l312 153q5 3 0 6l-312 152q-7 4 -7 12v32q0 5 3.5 7.5t8.5 -0.5l355 -178q7 -3 7 -12v-33q0 -9 -7 -12l-355 -178z" />
    <glyph glyph-name="question" unicode="?" horiz-adv-x="352" 
d="M135 205v65q0 41 15.5 67.5t47.5 59.5q34 35 51 64.5t17 77.5q0 55 -24.5 88t-64.5 33q-43 0 -68.5 -33.5t-25.5 -88.5v-34q0 -10 -10 -10l-33 2q-10 0 -10 10v32q0 76 41 123.5t106 47.5t103.5 -46.5t38.5 -124.5q0 -63 -20.5 -100t-57.5 -74q-27 -29 -39.5 -48.5
t-12.5 -48.5v-62q0 -10 -10 -10h-34q-10 0 -10 10zM127 17q-14 14 -14 36t14 36t36 14t36 -14t14 -36t-14 -36t-36 -14t-36 14z" />
    <glyph glyph-name="at" unicode="@" horiz-adv-x="763" 
d="M572.5 572q64.5 -34 100 -96.5t35.5 -146.5q0 -18 -4 -54q-12 -93 -57.5 -145t-113.5 -52q-67 0 -93 48q-3 5 -6 0q-14 -25 -37 -37.5t-49 -12.5q-42 0 -69 26t-27 68q0 22 7 60l4 30l4 36q4 29 5 39q7 48 36 76.5t74 28.5q18 0 35 -7.5t29 -22.5q2 -2 3.5 -2t1.5 3l2 15
q1 9 10 9h21q5 0 8 -3.5t2 -7.5l-27 -211q-1 -6 -1 -17q0 -37 19.5 -58.5t54.5 -21.5q47 0 79 41.5t42 116.5q3 26 3 50q0 74 -30.5 129t-86.5 85t-130 30q-79 0 -147.5 -39.5t-114 -111t-56.5 -163.5q-3 -25 -3 -49q0 -78 31 -135.5t85.5 -88.5t123.5 -31q50 0 93.5 13.5
t69.5 33.5q3 3 7 3t7 -5l10 -14q2 -3 2 -7t-4 -7q-31 -24 -82.5 -40t-110.5 -16q-80 0 -142.5 35.5t-97 100.5t-34.5 153q0 18 4 56q13 102 65 181.5t131 124t169 44.5q85 0 149.5 -34zM398.5 132.5q19.5 19.5 24.5 52.5l2 14l1 9l17 135q0 28 -15 44.5t-41 16.5
q-28 0 -48.5 -19.5t-25.5 -51.5q-8 -60 -9 -75q-4 -34 -7 -50l-3 -23q-3 -33 12.5 -52.5t44.5 -19.5q28 0 47.5 19.5z" />
    <glyph glyph-name="A" unicode="A" horiz-adv-x="391" 
d="M325 9l-27 131q0 2 -1.5 3t-3.5 1h-196q-2 0 -3.5 -1t-1.5 -3l-27 -131q-1 -9 -11 -9h-33q-5 0 -7.5 3t-1.5 8l152 680q2 9 11 9h40q10 0 11 -9l153 -680v-2q0 -9 -9 -9h-34q-9 0 -11 9zM106 188h177q3 0 3 4l-89 423q-1 3 -2 3t-2 -3l-90 -423q0 -4 3 -4z" />
    <glyph glyph-name="B" unicode="B" horiz-adv-x="443" 
d="M360 49.5q-47 -49.5 -128 -49.5h-143q-10 0 -10 10v680q0 10 10 10h137q83 0 130 -47t47 -134q0 -115 -86 -155q-2 -1 -2.5 -2t0.5 -2q44 -22 67.5 -65.5t23.5 -105.5q1 -90 -46 -139.5zM132 649v-262q0 -4 4 -4h91q59 0 91.5 35t32.5 98q0 65 -33 101t-91 36h-91
q-4 0 -4 -4zM320.5 86q32.5 38 32.5 107q0 70 -33 109t-91 39h-93q-4 0 -4 -4v-285q0 -4 4 -4h93q59 0 91.5 38z" />
    <glyph glyph-name="C" unicode="C" horiz-adv-x="441" 
d="M105.5 37.5q-44.5 45.5 -44.5 121.5v384q0 75 44.5 120t117.5 45q74 0 118.5 -45t44.5 -120v-19q0 -5 -3 -8t-7 -3l-33 -2q-10 0 -10 10v25q0 52 -30 83.5t-80 31.5q-49 0 -79 -31.5t-30 -83.5v-391q0 -52 30 -84t79 -32t79.5 32t30.5 84v23q0 10 10 10l33 -2
q10 0 10 -10v-17q0 -76 -44.5 -121.5t-118.5 -45.5q-73 0 -117.5 45.5z" />
    <glyph glyph-name="D" unicode="D" horiz-adv-x="463" 
d="M79 10v680q0 10 10 10h147q74 0 117 -49.5t43 -134.5v-332q0 -85 -43 -134.5t-117 -49.5h-147q-10 0 -10 10zM136 47h100q49 1 77.5 37.5t28.5 100.5v329q0 65 -28.5 102t-78.5 37h-99q-4 0 -4 -4v-598q0 -4 4 -4z" />
    <glyph glyph-name="E" unicode="E" horiz-adv-x="427" 
d="M373 653h-237q-4 0 -4 -4v-271q0 -4 4 -4h152q10 0 10 -10v-27q0 -10 -10 -10h-152q-4 0 -4 -4v-272q0 -4 4 -4h237q10 0 10 -10v-27q0 -10 -10 -10h-284q-10 0 -10 10v680q0 10 10 10h284q10 0 10 -10v-27q0 -10 -10 -10z" />
    <glyph glyph-name="F" unicode="F" horiz-adv-x="399" 
d="M371 653h-235q-4 0 -4 -4v-271q0 -4 4 -4h151q10 0 10 -10v-27q0 -10 -10 -10h-151q-4 0 -4 -4v-313q0 -10 -10 -10h-33q-10 0 -10 10v680q0 10 10 10h282q10 0 10 -10v-27q0 -10 -10 -10z" />
    <glyph glyph-name="G" unicode="G" horiz-adv-x="447" 
d="M105.5 36.5q-44.5 44.5 -44.5 117.5v392q0 73 44.5 117.5t117.5 44.5t118 -44.5t45 -117.5v-44q0 -10 -10 -10h-33q-10 0 -10 10v45q0 52 -30 83t-80 31t-80 -31t-30 -83v-394q0 -52 30 -83t80 -31t80 31t30 83v141q0 4 -4 4h-94q-10 0 -10 10v27q0 10 10 10h141
q10 0 10 -10v-181q0 -73 -45 -117.5t-118 -44.5t-117.5 44.5z" />
    <glyph glyph-name="H" unicode="H" horiz-adv-x="470" 
d="M348 700h33q10 0 10 -10v-680q0 -10 -10 -10h-33q-10 0 -10 10v313q0 4 -4 4h-198q-4 0 -4 -4v-313q0 -10 -10 -10h-33q-10 0 -10 10v680q0 10 10 10h33q10 0 10 -10v-312q0 -4 4 -4h198q4 0 4 4v312q0 10 10 10z" />
    <glyph glyph-name="I" unicode="I" horiz-adv-x="211" 
d="M79 10v680q0 10 10 10h33q10 0 10 -10v-680q0 -10 -10 -10h-33q-10 0 -10 10z" />
    <glyph glyph-name="J" unicode="J" horiz-adv-x="419" 
d="M67.5 37q-43.5 45 -43.5 119v88q0 10 10 10h33q10 0 10 -10v-89q0 -52 29 -84t76 -32t76 32t29 84v535q0 10 10 10h33q10 0 10 -10v-534q0 -74 -43.5 -119t-114.5 -45t-114.5 45z" />
    <glyph glyph-name="K" unicode="K" horiz-adv-x="442" 
d="M79 10v680q0 10 10 10h33q10 0 10 -10v-343q0 -3 2 -3.5t3 2.5l209 347q5 7 12 7h38q6 0 8 -3.5t-1 -8.5l-158 -266q-3 -3 -1 -6l175 -404l1 -4q0 -8 -9 -8h-38q-8 0 -11 8l-154 360q-1 4 -5 0l-70 -107q-1 -1 -1 -5v-246q0 -10 -10 -10h-33q-10 0 -10 10z" />
    <glyph glyph-name="L" unicode="L" horiz-adv-x="388" 
d="M79 10v680q0 10 10 10h33q10 0 10 -10v-639q0 -4 4 -4h234q10 0 10 -10v-27q0 -10 -10 -10h-281q-10 0 -10 10z" />
    <glyph glyph-name="M" unicode="M" horiz-adv-x="514" 
d="M392 700h34q10 0 10 -10v-680q0 -10 -10 -10h-33q-10 0 -10 10v567q0 3 -2 3t-3 -2l-110 -244q-3 -8 -10 -8q-8 0 -11 7l-111 243q-2 2 -3.5 2t-1.5 -3v-565q0 -10 -10 -10h-33q-10 0 -10 10v680q0 10 10 10h34q8 0 11 -7l122 -262q1 -2 3 -2t3 2l120 262q3 7 11 7z" />
    <glyph glyph-name="N" unicode="N" horiz-adv-x="488" 
d="M367 700h32q10 0 10 -10v-680q0 -10 -10 -10h-39q-8 0 -11 8l-213 560q-1 3 -3 2.5t-2 -3.5l1 -557q0 -10 -10 -10h-33q-10 0 -10 10v680q0 10 10 10h38q8 0 11 -8l214 -557q1 -3 3 -2.5t2 3.5v554q0 10 10 10z" />
    <glyph glyph-name="O" unicode="O" horiz-adv-x="451" 
d="M106.5 38.5q-45.5 46.5 -45.5 121.5v379q0 76 45 122.5t119 46.5t120 -46.5t46 -122.5v-379q0 -75 -46 -121.5t-120 -46.5q-73 0 -118.5 46.5zM306.5 72q31.5 33 31.5 86v383q0 53 -31.5 86.5t-81.5 33.5q-49 0 -80 -33.5t-31 -86.5v-383q0 -53 31 -86t80 -33
q50 0 81.5 33z" />
    <glyph glyph-name="P" unicode="P" horiz-adv-x="436" 
d="M357 649.5q43 -52.5 43 -137.5t-42.5 -136t-111.5 -51h-111q-4 0 -4 -4v-311q0 -10 -10 -10h-33q-10 0 -10 10v682q0 10 10 10h156q70 0 113 -52.5zM317 408q30 39 30 103q0 65 -30 104t-79 39h-103q-4 0 -4 -4v-277q0 -4 4 -4h103q49 0 79 39z" />
    <glyph glyph-name="Q" unicode="Q" horiz-adv-x="439" 
d="M334.5 660.5q43.5 -47.5 43.5 -123.5v-374q0 -68 -34.5 -113.5t-93.5 -54.5q-4 -1 -4 -5v-100q0 -10 -10 -10h-34q-10 0 -10 10v100q0 4 -4 5q-58 11 -92.5 55.5t-34.5 112.5v374q0 76 44 123.5t115 47.5t114.5 -47.5zM325 542q0 53 -29.5 86t-75.5 33q-47 0 -76.5 -33
t-29.5 -86v-384q0 -53 29.5 -86t76.5 -33q46 0 75.5 33t29.5 86v384z" />
    <glyph glyph-name="R" unicode="R" horiz-adv-x="436" 
d="M349 8l-110 317q-1 3 -4 3h-99q-4 0 -4 -4v-314q0 -10 -10 -10h-33q-10 0 -10 10v680q0 10 10 10h155q70 0 113 -52t43 -136q0 -67 -29 -114t-79 -64q-4 -1 -3 -5l113 -318l1 -4q0 -7 -9 -7h-33q-9 0 -12 8zM132 649v-273q0 -4 4 -4h102q49 0 79 38.5t30 101.5
q0 64 -30 102.5t-79 38.5h-102q-4 0 -4 -4z" />
    <glyph glyph-name="S" unicode="S" horiz-adv-x="409" 
d="M89 40.5q-44 48.5 -44 126.5v21q0 10 10 10h32q10 0 10 -10v-19q0 -59 29.5 -95t76.5 -36t78 35t31 91q0 37 -14.5 64t-37 46.5t-73.5 58.5q-52 39 -79.5 64.5t-45.5 61t-18 84.5q0 77 43 121t111 44q73 0 117 -49t44 -129v-25q0 -10 -10 -10h-33q-10 0 -10 10v25
q0 59 -29.5 95.5t-78.5 36.5q-44 0 -73 -31.5t-29 -88.5q0 -34 12.5 -59t36 -47t71.5 -58q59 -44 88 -71t44.5 -59t15.5 -77q0 -82 -44.5 -130.5t-115.5 -48.5t-115 48.5z" />
    <glyph glyph-name="T" unicode="T" horiz-adv-x="411" 
d="M375 690v-27q0 -10 -10 -10h-133q-4 0 -4 -4v-639q0 -10 -10 -10h-33q-10 0 -10 10v639q0 4 -4 4h-125q-10 0 -10 10v27q0 10 10 10h319q10 0 10 -10z" />
    <glyph glyph-name="U" unicode="U" horiz-adv-x="475" 
d="M118 43.5q-45 51.5 -45 137.5v509q0 10 10 10h33q10 0 10 -10v-515q0 -61 30.5 -98.5t80.5 -37.5t81.5 37.5t31.5 98.5v515q0 10 10 10h33q10 0 10 -10v-509q0 -85 -46 -137t-120 -52t-119 51.5z" />
    <glyph glyph-name="V" unicode="V" horiz-adv-x="427" 
d="M184 9l-146 680v2q0 9 9 9h37q10 0 11 -9l118 -588q1 -3 2 -3t2 3l116 588q2 9 11 9h35q11 0 9 -11l-145 -680q-1 -9 -11 -9h-37q-9 0 -11 9z" />
    <glyph glyph-name="W" unicode="W" horiz-adv-x="606" 
d="M162 9l-131 680v2q0 9 9 9h35q10 0 11 -9l103 -567q1 -2 2 -2t2 2l87 567q1 9 10 9h31q9 0 10 -9l92 -567q1 -2 2 -2t2 2l94 567q2 9 10 9h35q5 0 7.5 -3t1.5 -8l-124 -680q-1 -9 -11 -9h-32q-8 0 -10 9l-90 566q-1 2 -2 2t-2 -2l-89 -566q-1 -9 -10 -9h-32q-9 0 -11 9z
" />
    <glyph glyph-name="X" unicode="X" horiz-adv-x="423" 
d="M41.5 3.5q-2.5 3.5 -0.5 8.5l142 335q2 3 0 6l-142 335l-1 4q0 8 9 8h36q8 0 11 -8l113 -285q1 -3 3 -3t3 3l113 285q3 8 11 8h35q5 0 7.5 -3.5t0.5 -8.5l-142 -336q-1 -3 0 -6l142 -334l1 -4q0 -8 -9 -8h-35q-8 0 -11 8l-113 284q-1 3 -3 2.5t-3 -2.5l-114 -284
q-3 -8 -11 -8h-35q-5 0 -7.5 3.5z" />
    <glyph glyph-name="Y" unicode="Y" horiz-adv-x="411" 
d="M179 10v310q0 4 -1 5l-138 363l-1 4q0 8 9 8h35q9 0 12 -8l108 -306q1 -2 3 -2t3 2l107 306q3 8 12 8h35q5 0 7.5 -3.5t0.5 -8.5l-138 -363q-1 -1 -1 -5v-310q0 -10 -10 -10h-33q-10 0 -10 10z" />
    <glyph glyph-name="Z" unicode="Z" horiz-adv-x="391" 
d="M36 10v31q0 7 2 12l252 595q1 2 0 3.5t-3 1.5h-241q-10 0 -10 10v27q0 10 10 10h292q10 0 10 -10v-31q0 -7 -2 -12l-251 -595q-1 -2 0 -3.5t3 -1.5h240q10 0 10 -10v-27q0 -10 -10 -10h-292q-10 0 -10 10z" />
    <glyph glyph-name="bracketleft" unicode="[" horiz-adv-x="292" 
d="M25 -104v862q0 10 10 10h142q10 0 10 -10v-28q0 -10 -10 -10h-95q-4 0 -4 -4v-779q0 -4 4 -4h96q10 0 10 -10v-27q0 -10 -10 -10h-143q-10 0 -10 10z" />
    <glyph glyph-name="backslash" unicode="\" horiz-adv-x="313" 
d="M287 7q0 -7 -9 -7h-33q-9 0 -11 9l-170 680l-1 4q0 7 9 7h33q10 0 11 -9l170 -680z" />
    <glyph glyph-name="bracketright" unicode="]" horiz-adv-x="292" 
d="M257 -114h-143q-10 0 -10 10v27q0 10 10 10h96q4 0 4 4v779q0 4 -4 4h-96q-10 0 -10 10v28q0 10 10 10h143q10 0 10 -10v-862q0 -10 -10 -10z" />
    <glyph glyph-name="asciicircum" unicode="^" horiz-adv-x="390" 
d="M38 321l129 371q3 8 12 8h31q9 0 12 -8l129 -371l1 -4q0 -7 -9 -7h-26q-9 0 -12 8l-107 319q-1 2 -3 2t-3 -2l-108 -319q-3 -8 -12 -8h-26q-11 0 -8 11z" />
    <glyph glyph-name="underscore" unicode="_" horiz-adv-x="365" 
d="M24 10v24q0 10 10 10h297q10 0 10 -10v-24q0 -10 -10 -10h-297q-10 0 -10 10z" />
    <glyph glyph-name="grave" unicode="`" horiz-adv-x="170" 
d="M141 577q0 -6 -9 -6h-21q-7 0 -12 7l-68 110q-2 4 -2 6q0 6 9 6h27q7 0 12 -7l62 -110q2 -4 2 -6z" />
    <glyph glyph-name="a" unicode="a" horiz-adv-x="404" 
d="M310.5 466.5q38.5 -45.5 38.5 -121.5v-335q0 -10 -10 -10h-33q-10 0 -10 10v36q0 3 -1.5 3.5t-3.5 -1.5q-37 -56 -116 -56q-53 0 -92 31t-39 109q0 83 46.5 122t123.5 39h78q4 0 4 4v46q0 56 -25 89t-69 33q-34 0 -59.5 -22t-29.5 -57q0 -10 -10 -10l-36 2q-5 0 -7.5 3
t-1.5 7q6 56 47 90t99 34q68 0 106.5 -45.5zM263.5 68q32.5 29 32.5 82v95q0 4 -4 4h-78q-52 0 -83.5 -28.5t-31.5 -84.5q0 -49 24 -73t63 -24q45 0 77.5 29z" />
    <glyph glyph-name="b" unicode="b" horiz-adv-x="417" 
d="M324.5 470.5q37.5 -41.5 37.5 -108.5v-221q0 -66 -37.5 -107.5t-99.5 -41.5q-30 0 -56 12t-44 35q-2 2 -3.5 1.5t-1.5 -2.5v-28q0 -10 -10 -10h-33q-10 0 -10 10v680q0 10 10 10h33q10 0 10 -10v-224q0 -2 2 -2.5t3 1.5q18 23 44 35t56 12q62 0 99.5 -41.5zM283 435.5
q-27 29.5 -70 29.5q-41 0 -67 -29.5t-26 -76.5v-215q0 -47 26 -76t67 -29q43 0 70 29.5t27 75.5v215q0 47 -27 76.5z" />
    <glyph glyph-name="c" unicode="c" horiz-adv-x="394" 
d="M95.5 33.5q-40.5 41.5 -40.5 108.5v220q0 66 41 108t107 42q44 0 78 -18.5t52.5 -49t18.5 -66.5v-6q0 -10 -10 -10l-33 -2q-10 0 -10 10v6q0 36 -27 62.5t-69 26.5t-68.5 -29.5t-26.5 -76.5v-215q0 -46 26.5 -75.5t68.5 -29.5t69 26.5t27 62.5v5q0 10 10 10h33
q10 0 10 -10v-8q0 -36 -18.5 -66.5t-52.5 -48.5t-78 -18q-67 0 -107.5 41.5z" />
    <glyph glyph-name="d" unicode="d" horiz-adv-x="417" 
d="M307 700h33q10 0 10 -10v-680q0 -10 -10 -10h-33q-10 0 -10 10v28q0 2 -1.5 2.5t-3.5 -1.5q-18 -23 -44 -35t-56 -12q-62 0 -99.5 41.5t-37.5 107.5v221q0 67 37.5 108.5t99.5 41.5q30 0 56 -12t44 -35q2 -2 3.5 -1.5t1.5 2.5v224q0 10 10 10zM271 68q26 29 26 76v215
q0 47 -26 76.5t-67 29.5q-43 0 -70 -29.5t-27 -76.5v-215q0 -46 27 -75.5t70 -29.5q41 0 67 29z" />
    <glyph glyph-name="e" unicode="e" horiz-adv-x="400" 
d="M342 233h-230q-4 0 -4 -4v-85q0 -46 26.5 -75.5t68.5 -29.5q35 0 60 21t33 55q3 9 11 9l32 -2q4 0 7 -2t2 -6v-4q-10 -55 -48 -86.5t-97 -31.5q-66 0 -107 41.5t-41 107.5v221q0 66 41 108t107 42q67 0 108 -42t41 -108v-119q0 -10 -10 -10zM134.5 435.5
q-26.5 -29.5 -26.5 -76.5v-76q0 -4 4 -4h183q4 0 4 4v76q0 47 -26.5 76.5t-69.5 29.5q-42 0 -68.5 -29.5z" />
    <glyph glyph-name="f" unicode="f" horiz-adv-x="272" 
d="M155 633.5q-16 -28.5 -16 -89.5v-36q0 -4 4 -4h82q10 0 10 -10v-22q0 -10 -10 -10h-82q-4 0 -4 -4v-448q0 -10 -10 -10h-33q-10 0 -10 10v448q0 4 -4 4h-42q-10 0 -10 10v22q0 10 10 10h42q4 0 4 4v37q0 84 29 123.5t98 39.5h15q10 0 10 -10l-1 -26q0 -10 -10 -10h-13
q-43 0 -59 -28.5z" />
    <glyph glyph-name="g" unicode="g" horiz-adv-x="406" 
d="M307 504h34q10 0 10 -10v-488q0 -103 -47 -157t-151 -50q-10 0 -10 10v27q0 10 13 10q76 0 108.5 41t32.5 123v38q0 3 -2 3.5t-3 -2.5q-17 -27 -43.5 -40.5t-58.5 -13.5q-62 0 -98.5 41.5t-36.5 108.5v217q0 67 36.5 108.5t98.5 41.5q32 0 59 -14t43 -40q2 -2 3.5 -2
t1.5 3v35q0 10 10 10zM271 71q26 29 26 76v212q0 47 -26 76.5t-67 29.5q-42 0 -69 -29.5t-27 -76.5v-212q0 -46 27 -75.5t69 -29.5q41 0 67 29z" />
    <glyph glyph-name="h" unicode="h" 
d="M325 470q33 -41 33 -115v-345q0 -10 -10 -10h-33q-10 0 -10 10v340q0 54 -24 84t-67 30q-44 0 -69 -32t-25 -88v-334q0 -10 -10 -10h-33q-10 0 -10 10v680q0 10 10 10h33q10 0 10 -10v-234q0 -3 1.5 -3t3.5 2q34 56 106 56q61 0 94 -41z" />
    <glyph glyph-name="i" unicode="i" horiz-adv-x="205" 
d="M66 619q-14 14 -14 36t14 36t36 14t36 -14t14 -36t-14 -36t-36 -14t-36 14zM76 10v484q0 10 10 10h33q10 0 10 -10v-484q0 -10 -10 -10h-33q-10 0 -10 10z" />
    <glyph glyph-name="j" unicode="j" horiz-adv-x="195" 
d="M57 619q-14 14 -14 36t14 36t36 14t36 -14t14 -36t-14 -36t-36 -14t-36 14zM-23 -199v27q0 10 10 10q40 2 60 30.5t20 76.5v549q0 10 10 10h33q10 0 10 -10v-549q0 -75 -30 -114t-103 -40q-10 0 -10 10z" />
    <glyph glyph-name="k" unicode="k" horiz-adv-x="394" 
d="M67 10v680q0 10 10 10h33q10 0 10 -10v-420q0 -2 2 -2.5t3 1.5l165 229q4 6 12 6h35q6 0 8 -3.5t-2 -8.5l-97 -136q-2 -2 -1 -5l117 -340l1 -4q0 -7 -9 -7h-35q-9 0 -12 8l-95 297q-1 6 -6 1l-84 -116q-2 -2 -2 -5v-175q0 -10 -10 -10h-33q-10 0 -10 10z" />
    <glyph glyph-name="l" unicode="l" horiz-adv-x="174" 
d="M61 10v680q0 10 10 10h33q10 0 10 -10v-680q0 -10 -10 -10h-33q-10 0 -10 10z" />
    <glyph glyph-name="m" unicode="m" horiz-adv-x="641" 
d="M547 467q33 -44 33 -120v-337q0 -10 -10 -10h-33q-10 0 -10 10v332q0 56 -23.5 89t-62.5 33q-42 0 -66.5 -32t-24.5 -88v-334q0 -10 -10 -10h-33q-10 0 -10 10v332q0 56 -24 89t-62 33q-42 0 -67 -32t-25 -88v-334q0 -10 -10 -10h-32q-10 0 -10 10v484q0 10 10 10h32
q10 0 10 -10v-37q0 -3 2 -3.5t3 2.5q18 27 45.5 41t57.5 14q38 0 66 -20t43 -57q2 -5 5 2q17 37 48 56t68 19q57 0 90 -44z" />
    <glyph glyph-name="n" unicode="n" 
d="M325 470q33 -41 33 -115v-345q0 -10 -10 -10h-33q-10 0 -10 10v340q0 54 -24 84t-67 30q-44 0 -69 -32t-25 -88v-334q0 -10 -10 -10h-33q-10 0 -10 10v484q0 10 10 10h33q10 0 10 -10v-38q0 -3 1.5 -3t3.5 2q34 56 106 56q61 0 94 -41z" />
    <glyph glyph-name="o" unicode="o" horiz-adv-x="407" 
d="M95.5 33.5q-40.5 41.5 -40.5 108.5v220q0 66 41 108t107 42q68 0 109 -41.5t41 -108.5v-220q0 -67 -41 -108.5t-109 -41.5q-67 0 -107.5 41.5zM273 68.5q27 29.5 27 75.5v215q0 47 -27 76.5t-70 29.5q-42 0 -68.5 -29.5t-26.5 -76.5v-215q0 -46 26.5 -75.5t68.5 -29.5
q43 0 70 29.5z" />
    <glyph glyph-name="p" unicode="p" horiz-adv-x="423" 
d="M330.5 470.5q37.5 -41.5 37.5 -108.5v-220q0 -67 -37.5 -108.5t-99.5 -41.5q-30 0 -56 12t-44 35q-2 2 -3.5 1.5t-1.5 -2.5v-224q0 -10 -10 -10h-33q-10 0 -10 10v680q0 10 10 10h33q10 0 10 -10v-28q0 -2 2 -2.5t3 1.5q18 23 44 35t56 12q62 0 99.5 -41.5zM289 435.5
q-27 29.5 -70 29.5q-41 0 -67 -29t-26 -76v-216q0 -47 26 -76t67 -29q43 0 70 29.5t27 75.5v216q0 46 -27 75.5z" />
    <glyph glyph-name="q" unicode="q" horiz-adv-x="423" 
d="M307 504h33q10 0 10 -10v-680q0 -10 -10 -10h-33q-10 0 -10 10v224q0 2 -1.5 2.5t-3.5 -1.5q-18 -23 -44 -35t-56 -12q-62 0 -99.5 41.5t-37.5 108.5v220q0 67 37.5 108.5t99.5 41.5q30 0 56 -12t44 -35q2 -2 3.5 -1.5t1.5 2.5v28q0 10 10 10zM271 68q26 29 26 76v216
q0 47 -26 76t-67 29q-43 0 -70 -29.5t-27 -75.5v-216q0 -46 27 -75.5t70 -29.5q41 0 67 29z" />
    <glyph glyph-name="r" unicode="r" horiz-adv-x="284" 
d="M265 498q7 -4 5 -13l-8 -34q-3 -9 -13 -5q-16 6 -39 5q-40 -1 -65 -40t-25 -96v-305q0 -10 -10 -10h-33q-10 0 -10 10v484q0 10 10 10h33q10 0 10 -10v-62q0 -3 2 -3t3 3q14 36 38.5 56t58.5 20q25 0 43 -10z" />
    <glyph glyph-name="s" unicode="s" horiz-adv-x="364" 
d="M85.5 30.5q-39.5 35.5 -39.5 91.5v6q0 10 10 10h31q10 0 10 -10v-6q0 -36 26 -60t67 -24q40 0 64.5 24.5t24.5 63.5q0 29 -14 48t-35 30.5t-57 26.5q-39 16 -64 31.5t-42.5 43t-17.5 69.5q0 61 38 97t101 36q64 0 102 -37t38 -96v-3q0 -10 -10 -10h-30q-10 0 -10 10v5
q0 37 -25 62t-65 25t-64 -24.5t-24 -63.5q0 -27 13 -45t32.5 -29t54.5 -27q41 -17 67.5 -32.5t45.5 -43.5t19 -71q0 -60 -39 -96.5t-103 -36.5q-65 0 -104.5 35.5z" />
    <glyph glyph-name="t" unicode="t" horiz-adv-x="261" 
d="M220 462h-80q-4 0 -4 -4v-322q0 -50 17 -69.5t54 -19.5h10q10 0 10 -10v-27q0 -10 -10 -10h-20q-56 0 -84.5 26t-28.5 97v335q0 4 -4 4h-41q-10 0 -10 10v22q0 10 10 10h41q4 0 4 4v112q0 10 10 10h32q10 0 10 -10v-112q0 -4 4 -4h80q10 0 10 -10v-22q0 -10 -10 -10z" />
    <glyph glyph-name="u" unicode="u" 
d="M308 504h33q10 0 10 -10v-484q0 -10 -10 -10h-33q-10 0 -10 10v36q0 3 -1.5 3.5t-3.5 -1.5q-32 -55 -102 -55q-60 0 -95 36.5t-35 109.5v355q0 10 10 10h33q10 0 10 -10v-343q0 -55 23.5 -83t66.5 -28q44 0 69 32t25 88v334q0 10 10 10z" />
    <glyph glyph-name="v" unicode="v" horiz-adv-x="364" 
d="M152 9l-125 484l-1 3q0 8 10 8h38q9 0 11 -9l95 -405q1 -3 2 -3t2 3l95 405q2 9 11 9l39 -1q5 0 7.5 -3t0.5 -8l-123 -483q-1 -9 -11 -9h-40q-9 0 -11 9z" />
    <glyph glyph-name="w" unicode="w" horiz-adv-x="539" 
d="M131 9l-105 484v2q0 9 9 9h32q10 0 11 -9l80 -408q1 -3 2 -3t2 3l81 408q2 9 11 9h29q10 0 11 -9l82 -408q1 -3 2 -3t2 3l82 408q2 9 11 9l31 -1q5 0 7.5 -3t1.5 -8l-107 -483q-1 -9 -11 -9h-33q-9 0 -11 9l-81 393q-1 3 -2 3t-2 -3l-79 -393q-1 -9 -11 -9h-34
q-9 0 -11 9z" />
    <glyph glyph-name="x" unicode="x" horiz-adv-x="359" 
d="M24 3.5q-2 3.5 0 8.5l124 237q2 3 0 6l-124 237q-1 2 -1 5q0 7 8 7h38q9 0 12 -7l96 -194q1 -2 3 -2t3 2l96 194q3 7 12 7h37q5 0 7 -3.5t0 -8.5l-123 -237q-1 -3 0 -6l123 -237q1 -2 1 -5q0 -7 -8 -7h-37q-9 0 -12 7l-96 194q-1 2 -3 2t-3 -2l-96 -194q-3 -7 -12 -7h-38
q-5 0 -7 3.5z" />
    <glyph glyph-name="y" unicode="y" horiz-adv-x="353" 
d="M41 -197q-2 3 -2 7v26q0 10 10 10h1q30 1 46.5 12.5t28 42.5t24.5 96q1 2 0.5 3.5t-0.5 2.5l-128 490l-1 3q0 8 10 8h35q9 0 11 -9l99 -417q1 -3 2 -3t2 3l98 417q2 9 11 9l36 -1q5 0 7.5 -3t0.5 -8l-141 -543q-17 -65 -33.5 -96t-40.5 -42t-67 -11h-5q-2 0 -4 3z" />
    <glyph glyph-name="z" unicode="z" horiz-adv-x="357" 
d="M37 10v32q0 6 3 13l217 395q1 2 0.5 3.5t-2.5 1.5h-205q-10 0 -10 10v29q0 10 10 10h262q10 0 10 -10v-32q0 -7 -3 -13l-218 -395q-1 -2 -0.5 -3.5t2.5 -1.5h209q10 0 10 -10v-29q0 -10 -10 -10h-265q-10 0 -10 10z" />
    <glyph glyph-name="braceleft" unicode="{" horiz-adv-x="255" 
d="M105.5 -87.5q-22.5 26.5 -22.5 84.5v219q0 42 -12 64t-37 27q-9 2 -9 10v26q0 9 9 10q25 5 37 26.5t12 63.5v213q0 58 22.5 85t71.5 27h42q10 0 10 -10v-28q0 -10 -10 -10h-27q-29 0 -42.5 -18.5t-13.5 -58.5v-201q0 -45 -11 -71t-35 -38q-5 -2 0 -5q23 -13 34.5 -39.5
t11.5 -70.5v-208q0 -40 13.5 -58.5t42.5 -18.5h27q10 0 10 -10v-27q0 -10 -10 -10h-42q-49 0 -71.5 26.5z" />
    <glyph glyph-name="bar" unicode="|" horiz-adv-x="133" 
d="M40 -70v820q0 10 10 10h33q10 0 10 -10v-820q0 -10 -10 -10h-33q-10 0 -10 10z" />
    <glyph glyph-name="braceright" unicode="}" horiz-adv-x="255" 
d="M35 -114q-10 0 -10 10v27q0 10 10 10h28q29 0 42.5 18.5t13.5 58.5v208q0 44 11 70.5t34 39.5q5 3 0 5q-23 12 -34 38t-11 71v201q0 40 -13.5 58.5t-42.5 18.5h-28q-10 0 -10 10v28q0 10 10 10h43q49 0 71.5 -27t22.5 -85v-213q0 -42 11.5 -63.5t36.5 -26.5q9 -1 9 -10
v-26q0 -8 -9 -10q-25 -5 -36.5 -27t-11.5 -64v-219q0 -58 -22.5 -84.5t-71.5 -26.5h-43z" />
    <glyph glyph-name="asciitilde" unicode="~" horiz-adv-x="454" 
d="M268.5 248.5q-20.5 8.5 -51.5 26.5q-19 12 -35.5 18.5t-35.5 6.5q-46 0 -73 -42q-5 -10 -14 -4l-17 11q-8 6 -4 13q15 32 42 51t63 19q24 0 42 -7t40 -20q27 -17 46.5 -25t45.5 -8q20 0 33 10t30 30q7 9 14 3l17 -12q7 -6 3 -13q-39 -66 -96 -66q-29 0 -49.5 8.5z" />
    <glyph glyph-name="uni00A0" unicode="&#xa0;" horiz-adv-x="200" 
 />
    <glyph glyph-name="exclamdown" unicode="&#xa1;" horiz-adv-x="244" 
d="M158 694q14 -14 14 -36t-14 -36t-36 -14t-36 14t-14 36t14 36t36 14t36 -14zM111 487h24q10 0 10 -10l5 -455q0 -10 -10 -10h-33q-10 0 -10 10l4 455q0 10 10 10z" />
    <glyph glyph-name="cent" unicode="&#xa2;" horiz-adv-x="394" 
d="M342 452l-33 -2q-10 0 -10 10v6q0 36 -27 62.5t-69 26.5t-68.5 -29.5t-26.5 -76.5v-215q0 -46 26.5 -75.5t68.5 -29.5t69 26.5t27 62.5v5q0 10 10 10h33q10 0 10 -10v-8q0 -50 -33.5 -87t-89.5 -45q-4 0 -4 -4l1 -69q0 -10 -10 -10h-27q-10 0 -10 10l2 69q0 4 -4 5
q-56 8 -89 48t-33 100v220q0 59 33 99.5t89 48.5q4 1 4 5l-2 68q0 10 10 10h27q10 0 10 -10l-1 -68q0 -4 4 -5q56 -8 89.5 -45.5t33.5 -86.5v-8q0 -8 -10 -8z" />
    <glyph glyph-name="sterling" unicode="&#xa3;" horiz-adv-x="499" 
d="M170 46h283q10 0 10 -10v-26q0 -10 -10 -10h-339q-10 0 -10 10v28q0 8 6 12q20 16 31 50t11 78v132q0 4 -4 4h-59q-10 0 -10 10v24q0 10 10 10h59q4 0 4 4v155q0 90 42.5 140.5t116.5 50.5q54 0 90 -32.5t52 -95.5v-2q0 -8 -8 -10l-31 -5h-2q-8 0 -10 9q-22 90 -95 90
q-49 0 -76.5 -37.5t-27.5 -105.5v-157q0 -4 4 -4h147q10 0 10 -10v-24q0 -10 -10 -10h-147q-4 0 -4 -4v-130q0 -42 -9.5 -75t-25.5 -54q-3 -5 2 -5z" />
    <glyph glyph-name="currency" unicode="&#xa4;" horiz-adv-x="497" 
d="M399 186q-2 -4 1 -6l65 -64q3 -3 3 -6q0 -4 -4 -8l-21 -18q-3 -3 -6 -3q-4 0 -8 4l-63 61q-3 3 -6 1q-51 -38 -115 -38q-63 0 -112 35q-3 2 -6 -1l-60 -58q-7 -7 -14 -1l-20 18q-7 8 -1 14l60 60q3 3 1 6q-42 53 -42 119q0 64 40 115q2 3 -1 6l-65 65q-3 3 -3 6q0 4 4 8
l21 18q3 3 7 3t7 -4l62 -63q3 -3 6 -1q50 39 116 39q68 0 119 -42q3 -2 6 1l66 66q3 3 7 3.5t7 -2.5l20 -18q8 -7 1 -14l-68 -68q-3 -3 -1 -6q36 -49 36 -112q0 -65 -39 -115zM118.5 228.5q19.5 -33.5 53 -53t73.5 -19.5q39 0 72.5 19.5t53 52.5t19.5 73q0 39 -19.5 72.5
t-53 53.5t-72.5 20q-40 0 -73.5 -19.5t-53 -53t-19.5 -73.5q0 -39 19.5 -72.5z" />
    <glyph glyph-name="yen" unicode="&#xa5;" horiz-adv-x="521" 
d="M427 307h-139q-4 0 -4 -4v-74q0 -4 4 -4h139q10 0 10 -10v-16q0 -10 -10 -10h-139q-4 0 -4 -4v-175q0 -10 -10 -10h-33q-10 0 -10 10v175q0 4 -4 4h-134q-10 0 -10 10v16q0 10 10 10h134q4 0 4 4v74q0 4 -4 4h-134q-10 0 -10 10v15q0 10 10 10h126q2 0 3 1.5t0 3.5
l-130 341l-1 4q0 8 9 8h34q9 0 12 -8l108 -306q1 -2 3 -2t3 2l108 306q3 8 12 8h34q5 0 7.5 -3.5t0.5 -8.5l-129 -341q-1 -2 0 -3.5t3 -1.5h131q10 0 10 -10v-15q0 -10 -10 -10z" />
    <glyph glyph-name="brokenbar" unicode="&#xa6;" horiz-adv-x="133" 
d="M40 395v355q0 10 10 10h33q10 0 10 -10v-355q0 -10 -10 -10h-33q-10 0 -10 10zM40 -70v347q0 10 10 10h33q10 0 10 -10v-347q0 -10 -10 -10h-33q-10 0 -10 10z" />
    <glyph glyph-name="section" unicode="&#xa7;" horiz-adv-x="375" 
d="M88.5 -164q-37.5 43 -37.5 112v14q0 10 10 10h33q10 0 10 -10v-11q1 -50 23.5 -80.5t59.5 -30.5t60.5 31t23.5 77q0 38 -17 63t-38.5 38t-54.5 27q-39 17 -62.5 34.5t-37.5 49.5q-16 38 -16 86q0 49 24 94q25 46 64 59q5 2 0 5q-37 19 -60.5 59t-23.5 92q0 67 38 110
t99 43q60 0 97 -43.5t38 -113.5v-12q0 -10 -10 -10h-34q-10 0 -10 10v10q0 50 -22.5 81t-59.5 31t-60 -31t-23 -80q0 -50 25.5 -79t79.5 -51q36 -15 57.5 -29t39.5 -41q26 -43 26 -98t-20 -95q-24 -49 -68 -62q-5 -2 0 -5q36 -19 59 -55.5t23 -88.5q0 -66 -38 -109.5
t-99 -43.5t-98.5 43zM232.5 139.5q18.5 12.5 30.5 38.5q15 33 15 73q0 44 -23 78q-12 18 -30.5 28.5t-39.5 10.5q-26 0 -45 -15.5t-28 -37.5q-13 -30 -13 -68q0 -39 13 -70q22 -50 75 -50q27 0 45.5 12.5z" />
    <glyph glyph-name="dieresis" unicode="&#xa8;" horiz-adv-x="290" 
d="M180 619q-14 14 -14 36t14 36t36 14t36 -14t14 -36t-14 -36t-36 -14t-36 14zM39 619q-14 14 -14 36t14 36t36 14t36 -14t14 -36t-14 -36t-36 -14t-36 14z" />
    <glyph glyph-name="copyright" unicode="&#xa9;" horiz-adv-x="846" 
d="M238.5 39.5q-82.5 47.5 -130 129.5t-47.5 180q0 99 47.5 181.5t130 130t183.5 47.5q102 0 185 -47.5t130.5 -130t47.5 -181.5q0 -98 -47.5 -180t-130.5 -129.5t-185 -47.5q-101 0 -183.5 47.5zM587.5 70.5q74.5 42.5 117 116.5t42.5 162q0 89 -42.5 163t-117 117
t-165.5 43q-90 0 -164.5 -43t-117 -117t-42.5 -163q0 -88 42.5 -161.5t117 -116.5t164.5 -43q91 0 165.5 42.5zM363.5 202q-22.5 21 -22.5 56v178q0 35 22.5 55.5t59.5 20.5q38 0 61 -21t23 -55v-7q0 -10 -10 -10l-16 -1q-10 0 -10 10v10q0 19 -13 30.5t-35 11.5t-35 -11.5
t-13 -30.5v-182q0 -19 13 -31t35 -12t35 12t13 31v10q0 10 10 10l16 -1q10 0 10 -10v-7q0 -34 -23 -55.5t-61 -21.5q-37 0 -59.5 21z" />
    <glyph glyph-name="ordfeminine" unicode="&#xaa;" horiz-adv-x="271" 
d="M186 561q4 0 4 4v31q0 35 -15.5 56t-44.5 21q-21 0 -37 -12.5t-20 -33.5q-2 -11 -11 -9l-21 2q-10 2 -9 11q5 34 32.5 55.5t65.5 21.5q47 0 73.5 -29.5t26.5 -79.5v-219q0 -10 -10 -10h-20q-10 0 -10 10v17q0 2 -1.5 3t-3.5 -1q-24 -34 -71 -34q-37 0 -63.5 20.5
t-26.5 73.5q0 102 112 102h50zM169 416.5q21 17.5 21 51.5v56q0 4 -4 4h-49q-33 0 -52.5 -18t-19.5 -51q0 -31 15 -45.5t40 -14.5q28 0 49 17.5zM33 317h201q10 0 10 -10v-19q0 -10 -10 -10h-201q-10 0 -10 10v19q0 10 10 10z" />
    <glyph glyph-name="guillemotleft" unicode="&#xab;" horiz-adv-x="475" 
d="M244 113q0 -2 -2 -4t-6 -2h-29q-8 0 -12 6l-114 161q-4 7 0 14l114 161q4 6 12 6h29q6 0 8 -3.5t-2 -8.5l-112 -159q-1 -3 0 -6l112 -159q2 -2 2 -6zM390 113q0 -2 -2 -4t-6 -2h-29q-8 0 -12 6l-114 161q-4 7 0 14l114 161q4 6 12 6h29q6 0 8 -3.5t-2 -8.5l-113 -159
q-1 -3 0 -6l113 -159q2 -2 2 -6z" />
    <glyph glyph-name="logicalnot" unicode="&#xac;" horiz-adv-x="443" 
d="M408 330v-27v-6l-1 -2v-105q0 -10 -10 -10h-24q-10 0 -10 10v103q0 4 -4 4h-315q-10 0 -10 10v23q0 10 10 10h354q10 0 10 -10z" />
    <glyph glyph-name="uni00AD" unicode="&#xad;" horiz-adv-x="309" 
d="M34 301v27q0 10 10 10h221q10 0 10 -10v-27q0 -10 -10 -10h-221q-10 0 -10 10z" />
    <glyph glyph-name="registered" unicode="&#xae;" horiz-adv-x="439" 
d="M317.5 689q44.5 -26 70.5 -70t26 -97t-26 -97.5t-70.5 -70t-98.5 -25.5q-53 0 -98 25.5t-71 70t-26 97.5t26 97t71 70t98 26q54 0 98.5 -26zM301.5 381q37.5 22 59.5 59.5t22 81.5t-22 81.5t-59.5 59t-82.5 21.5t-82.5 -21.5t-59 -59t-21.5 -81.5t21.5 -81.5t59 -59.5
t82.5 -22t82.5 22zM274 529.5q-7 -11.5 -20 -16.5q-3 -2 -2 -6l26 -63l1 -4q0 -8 -9 -8h-8q-8 0 -11 8l-27 65q-1 3 -4 3h-19q-4 0 -4 -4v-62q0 -10 -10 -10h-7q-10 0 -10 10v158q0 10 10 10h50q22 0 36.5 -15t14.5 -38q0 -16 -7 -27.5zM197 582v-49q0 -4 4 -4h26
q12 0 19.5 7.5t7.5 20.5t-7.5 21t-19.5 8h-26q-4 0 -4 -4z" />
    <glyph glyph-name="macron" unicode="&#xaf;" horiz-adv-x="531" 
d="M165 609v20q0 10 10 10h179q10 0 10 -10v-20q0 -10 -10 -10h-179q-10 0 -10 10z" />
    <glyph glyph-name="degree" unicode="&#xb0;" horiz-adv-x="358" 
d="M101 515q-36 21 -56.5 57t-20.5 79t20.5 79t56.5 57t78 21t78 -21t56.5 -57t20.5 -79t-20.5 -79t-56.5 -57t-78 -21t-78 21zM260.5 567.5q33.5 34.5 33.5 83.5t-33.5 83.5t-81.5 34.5t-81.5 -34.5t-33.5 -83.5t33.5 -83.5t81.5 -34.5t81.5 34.5z" />
    <glyph glyph-name="plusminus" unicode="&#xb1;" horiz-adv-x="443" 
d="M408 352v-23q0 -10 -10 -10h-152q-4 0 -4 -4v-151q0 -10 -10 -10h-22q-10 0 -10 10v151q0 4 -4 4h-152q-10 0 -10 10v23q0 10 10 10h152q4 0 4 4v152q0 10 10 10h22q10 0 10 -10v-152q0 -4 4 -4h152q10 0 10 -10zM34 42v23q0 10 10 10h354q10 0 10 -10v-23q0 -10 -10 -10
h-354q-10 0 -10 10z" />
    <glyph glyph-name="uni00B2" unicode="&#xb2;" horiz-adv-x="239" 
d="M24 459v18q0 8 4 13l59 96q24 36 45 72q37 65 37 111q0 32 -14.5 50.5t-38.5 18.5q-23 0 -37.5 -18.5t-14.5 -49.5v-19q0 -10 -10 -10h-21q-10 0 -10 10v20q1 47 26.5 75t67.5 28t67.5 -28t25.5 -79q0 -55 -38 -123q-30 -55 -92 -155q-1 -2 0 -3.5t3 -1.5h129
q10 0 10 -10v-15q0 -10 -10 -10h-178q-10 0 -10 10z" />
    <glyph glyph-name="uni00B3" unicode="&#xb3;" horiz-adv-x="258" 
d="M218 575q0 -40 -10 -66q-8 -31 -30.5 -48t-56.5 -17q-38 0 -64 24t-31 63q-2 22 -2 34q0 10 10 10h20q10 0 10 -10q0 -11 2 -25q4 -28 18 -44t37 -16q36 0 50 39q9 31 9 60q0 31 -6 53q-6 24 -19.5 36.5t-33.5 12.5q-5 0 -11 -2l-6 -1q-5 0 -8 4l-9 10q-5 7 -1 14l80 123
q1 1 0 3t-3 2h-127q-10 0 -10 10v15q0 10 10 10h169q10 0 10 -10v-18q0 -5 -4 -13l-72 -113q-1 -2 -0.5 -3.5t2.5 -1.5q26 -3 44.5 -23t25.5 -52q7 -31 7 -60z" />
    <glyph glyph-name="acute" unicode="&#xb4;" horiz-adv-x="170" 
d="M30 574.5q-2 3.5 1 8.5l62 110q5 7 12 7h27q6 0 8 -3.5t-1 -8.5l-69 -110q-5 -7 -12 -7h-20q-6 0 -8 3.5z" />
    <glyph glyph-name="uni00B5" unicode="&#xb5;" horiz-adv-x="424" 
d="M314 504h33q10 0 10 -10v-484q0 -10 -10 -10h-33q-10 0 -10 10v36q0 3 -1.5 3t-3.5 -2q-32 -54 -102 -54q-42 0 -72 18q-2 1 -3.5 0t-1.5 -3v-198q0 -10 -10 -10h-33q-10 0 -10 10v684q0 10 10 10h33q10 0 10 -10v-343q0 -55 23.5 -83t66.5 -28q44 0 69 32t25 88v334
q0 10 10 10z" />
    <glyph glyph-name="paragraph" unicode="&#xb6;" horiz-adv-x="459" 
d="M370 700q10 0 10 -10v-880q0 -10 -10 -10h-26q-10 0 -10 10v841q0 4 -4 4h-86q-4 0 -4 -4v-841q0 -10 -10 -10h-27q-10 0 -10 10v436q0 4 -4 4q-46 4 -80.5 34.5t-53.5 80.5t-19 110q0 63 20.5 114.5t58.5 81t87 29.5h168z" />
    <glyph glyph-name="periodcentered" unicode="&#xb7;" horiz-adv-x="189" 
d="M58 240q-14 14 -14 36t14 36t36 14t36 -14t14 -36t-14 -36t-36 -14t-36 14z" />
    <glyph glyph-name="cedilla" unicode="&#xb8;" horiz-adv-x="113" 
d="M3 -169l3 13q1 10 12 7q4 -1 11 -1q20 0 32.5 12t12.5 38q0 42 -42 88q-3 3 -3 6q0 6 8 6h16q7 0 10 -3l4 -4q46 -43 46 -96q0 -44 -21.5 -62.5t-54.5 -18.5q-15 0 -27 3q-9 1 -7 12z" />
    <glyph glyph-name="uni00B9" unicode="&#xb9;" horiz-adv-x="142" 
d="M75 869h24q10 0 10 -10v-400q0 -10 -10 -10h-21q-10 0 -10 10v365q0 2 -1.5 3.5t-3.5 0.5l-30 -10l-3 -1q-8 0 -8 10v11q0 9 7 12l33 16q6 3 13 3z" />
    <glyph glyph-name="ordmasculine" unicode="&#xba;" horiz-adv-x="276" 
d="M64.5 392.5q-27.5 27.5 -27.5 72.5v143q0 45 27.5 72.5t73.5 27.5t73.5 -27.5t27.5 -72.5v-143q0 -45 -27.5 -72.5t-73.5 -27.5t-73.5 27.5zM182 418.5q17 18.5 17 47.5v139q0 30 -17 49t-44 19t-44 -19t-17 -49v-139q0 -29 17 -47.5t44 -18.5t44 18.5zM28 288v19
q0 10 10 10h201q10 0 10 -10v-19q0 -10 -10 -10h-201q-10 0 -10 10z" />
    <glyph glyph-name="guillemotright" unicode="&#xbb;" horiz-adv-x="475" 
d="M86 110.5q-2 3.5 2 8.5l112 159q2 3 0 6l-112 159q-2 2 -2 6q0 2 2 4t6 2h29q8 0 12 -6l113 -161q4 -7 0 -14l-113 -161q-4 -6 -12 -6h-29q-6 0 -8 3.5zM232 110.5q-2 3.5 2 8.5l112 159q2 3 0 6l-112 159q-2 2 -2 6q0 2 2 4t6 2h29q8 0 12 -6l113 -161q4 -7 0 -14
l-113 -161q-4 -6 -12 -6h-29q-6 0 -8 3.5z" />
    <glyph glyph-name="onequarter" unicode="&#xbc;" horiz-adv-x="649" 
d="M75 700h24q10 0 10 -10v-400q0 -10 -10 -10h-21q-10 0 -10 10v365q0 2 -1.5 3.5t-3.5 0.5l-30 -10l-3 -1q-8 0 -8 10v11q0 9 7 12l33 16q6 3 13 3zM69.5 3.5q-1.5 3.5 1.5 8.5l436 681q5 7 12 7h21q6 0 7.5 -3.5t-1.5 -8.5l-436 -681q-5 -7 -12 -7h-21q-6 0 -7.5 3.5z
M635 142v-17q0 -10 -10 -10h-13q-4 0 -4 -4v-101q0 -10 -10 -10h-20q-10 0 -10 10v101q0 4 -4 4h-130q-10 0 -10 10v16q0 4 2 12l88 259q3 8 12 8h22q11 0 8 -11l-84 -252q-1 -2 0 -3.5t3 -1.5h89q4 0 4 4v88q0 10 10 10h20q10 0 10 -10v-88q0 -4 4 -4h13q10 0 10 -10z" />
    <glyph glyph-name="onehalf" unicode="&#xbd;" horiz-adv-x="658" 
d="M75 700h24q10 0 10 -10v-400q0 -10 -10 -10h-21q-10 0 -10 10v365q0 2 -1.5 3.5t-3.5 0.5l-30 -10l-3 -1q-8 0 -8 10v11q0 9 7 12l33 16q6 3 13 3zM69.5 3.5q-1.5 3.5 1.5 8.5l436 681q5 7 12 7h21q6 0 7.5 -3.5t-1.5 -8.5l-436 -681q-5 -7 -12 -7h-21q-6 0 -7.5 3.5z
M442 10v18q0 8 4 13l59 96q24 36 45 72q37 65 37 111q0 32 -14.5 50.5t-38.5 18.5q-23 0 -37.5 -18.5t-14.5 -49.5v-19q0 -10 -10 -10h-21q-10 0 -10 10v20q1 47 26.5 75t67.5 28t67.5 -28t25.5 -79q0 -55 -38 -123q-30 -55 -92 -155q-1 -2 0 -3.5t3 -1.5h129q10 0 10 -10
v-15q0 -10 -10 -10h-178q-10 0 -10 10z" />
    <glyph glyph-name="threequarters" unicode="&#xbe;" horiz-adv-x="716" 
d="M218 404q0 -40 -10 -66q-8 -31 -30.5 -48t-56.5 -17q-38 0 -64 24t-31 63q-2 22 -2 34q0 10 10 10h20q10 0 10 -10q0 -11 2 -25q4 -28 18 -44t37 -16q36 0 50 39q9 31 9 60q0 31 -6 53q-6 24 -19.5 36.5t-33.5 12.5q-5 0 -11 -2l-6 -1q-5 0 -8 4l-9 10q-5 7 -1 14l80 123
q1 1 0 3t-3 2h-127q-10 0 -10 10v15q0 10 10 10h169q10 0 10 -10v-18q0 -5 -4 -13l-72 -113q-1 -2 -0.5 -3.5t2.5 -1.5q26 -3 44.5 -23t25.5 -52q7 -31 7 -60zM136.5 3.5q-1.5 3.5 1.5 8.5l436 681q5 7 12 7h21q6 0 7.5 -3.5t-1.5 -8.5l-436 -681q-5 -7 -12 -7h-21
q-6 0 -7.5 3.5zM703 142v-17q0 -10 -10 -10h-13q-4 0 -4 -4v-101q0 -10 -10 -10h-20q-10 0 -10 10v101q0 4 -4 4h-130q-10 0 -10 10v16q0 4 2 12l88 259q3 8 12 8h22q11 0 8 -11l-84 -252q-1 -2 0 -3.5t3 -1.5h89q4 0 4 4v88q0 10 10 10h20q10 0 10 -10v-88q0 -4 4 -4h13
q10 0 10 -10z" />
    <glyph glyph-name="questiondown" unicode="&#xbf;" horiz-adv-x="352" 
d="M225 483q14 -14 14 -36t-14 -36t-36 -14t-36 14t-14 36t14 36t36 14t36 -14zM217 295v-65q0 -41 -15.5 -67.5t-47.5 -59.5q-34 -35 -51 -64.5t-17 -77.5q0 -55 24.5 -88t65.5 -33q42 0 67.5 33.5t25.5 88.5v34q0 10 10 10l33 -2q10 0 10 -10v-32q0 -76 -41 -123.5
t-106 -47.5t-103.5 46.5t-38.5 124.5q0 63 20.5 100t57.5 74q27 29 39.5 48.5t12.5 48.5v62q0 10 10 10h34q10 0 10 -10z" />
    <glyph glyph-name="Agrave" unicode="&#xc0;" horiz-adv-x="391" 
d="M325 9l-27 131q0 2 -1.5 3t-3.5 1h-196q-2 0 -3.5 -1t-1.5 -3l-27 -131q-1 -9 -11 -9h-33q-5 0 -7.5 3t-1.5 8l152 680q2 9 11 9h40q10 0 11 -9l153 -680v-2q0 -9 -9 -9h-34q-9 0 -11 9zM106 188h177q3 0 3 4l-89 423q-1 3 -2 3t-2 -3l-90 -423q0 -4 3 -4zM212 773
q0 -6 -9 -6h-21q-7 0 -12 7l-68 110q-2 4 -2 6q0 6 9 6h27q7 0 12 -7l62 -110q2 -4 2 -6z" />
    <glyph glyph-name="Aacute" unicode="&#xc1;" horiz-adv-x="391" 
d="M325 9l-27 131q0 2 -1.5 3t-3.5 1h-196q-2 0 -3.5 -1t-1.5 -3l-27 -131q-1 -9 -11 -9h-33q-5 0 -7.5 3t-1.5 8l152 680q2 9 11 9h40q10 0 11 -9l153 -680v-2q0 -9 -9 -9h-34q-9 0 -11 9zM106 188h177q3 0 3 4l-89 423q-1 3 -2 3t-2 -3l-90 -423q0 -4 3 -4zM158 770.5
q-2 3.5 1 8.5l62 110q5 7 12 7h27q6 0 8 -3.5t-1 -8.5l-69 -110q-5 -7 -12 -7h-20q-6 0 -8 3.5z" />
    <glyph glyph-name="Acircumflex" unicode="&#xc2;" horiz-adv-x="391" 
d="M325 9l-27 131q0 2 -1.5 3t-3.5 1h-196q-2 0 -3.5 -1t-1.5 -3l-27 -131q-1 -9 -11 -9h-33q-5 0 -7.5 3t-1.5 8l152 680q2 9 11 9h40q10 0 11 -9l153 -680v-2q0 -9 -9 -9h-34q-9 0 -11 9zM106 188h177q3 0 3 4l-89 423q-1 3 -2 3t-2 -3l-90 -423q0 -4 3 -4zM94.5 778.5
q-1.5 3.5 1.5 8.5l65 102q5 7 12 7h42q7 0 12 -7l67 -102q2 -4 2 -6q0 -6 -8 -6h-31q-7 0 -12 7l-47 76q-1 2 -3 2t-3 -2l-47 -76q-5 -7 -12 -7h-31q-6 0 -7.5 3.5z" />
    <glyph glyph-name="Atilde" unicode="&#xc3;" horiz-adv-x="391" 
d="M325 9l-27 131q0 2 -1.5 3t-3.5 1h-196q-2 0 -3.5 -1t-1.5 -3l-27 -131q-1 -9 -11 -9h-33q-5 0 -7.5 3t-1.5 8l152 680q2 9 11 9h40q10 0 11 -9l153 -680v-2q0 -9 -9 -9h-34q-9 0 -11 9zM106 188h177q3 0 3 4l-89 423q-1 3 -2 3t-2 -3l-90 -423q0 -4 3 -4zM229.5 815.5
q-11.5 5.5 -27.5 16.5q-3 2 -12 8.5t-17 9.5t-16 3q-15 0 -25 -5.5t-21 -21.5q-6 -9 -14 -3l-12 9q-9 5 -4 13q27 48 73 48q15 0 27 -6t29 -17q5 -3 14 -9.5t17 -9.5t16 -3q13 0 23.5 6.5t20.5 23.5q5 10 14 4l12 -7q4 -3 4 -8t-4 -12q-14 -23 -34 -34t-38 -11
q-14 0 -25.5 5.5z" />
    <glyph glyph-name="Adieresis" unicode="&#xc4;" horiz-adv-x="391" 
d="M325 9l-27 131q0 2 -1.5 3t-3.5 1h-196q-2 0 -3.5 -1t-1.5 -3l-27 -131q-1 -9 -11 -9h-33q-5 0 -7.5 3t-1.5 8l152 680q2 9 11 9h40q10 0 11 -9l153 -680v-2q0 -9 -9 -9h-34q-9 0 -11 9zM106 188h177q3 0 3 4l-89 423q-1 3 -2 3t-2 -3l-90 -423q0 -4 3 -4zM230 815
q-14 14 -14 36t14 36t36 14t36 -14t14 -36t-14 -36t-36 -14t-36 14zM89 815q-14 14 -14 36t14 36t36 14t36 -14t14 -36t-14 -36t-36 -14t-36 14z" />
    <glyph glyph-name="Aring" unicode="&#xc5;" horiz-adv-x="391" 
d="M325 9l-27 131q0 2 -1.5 3t-3.5 1h-196q-2 0 -3.5 -1t-1.5 -3l-27 -131q-1 -9 -11 -9h-33q-5 0 -7.5 3t-1.5 8l152 680q2 9 11 9h40q10 0 11 -9l153 -680v-2q0 -9 -9 -9h-34q-9 0 -11 9zM106 188h177q3 0 3 4l-89 423q-1 3 -2 3t-2 -3l-90 -423q0 -4 3 -4zM123.5 809.5
q-29.5 30.5 -29.5 73.5t29.5 73.5t71.5 30.5q43 0 72.5 -30t29.5 -74t-29.5 -74t-72.5 -30q-42 0 -71.5 30.5zM242.5 834q19.5 20 19.5 49t-19.5 49t-47.5 20q-27 0 -47 -20t-20 -49t20 -49t47 -20q28 0 47.5 20z" />
    <glyph glyph-name="AE" unicode="&#xc6;" horiz-adv-x="685" 
d="M631 653h-237q-4 0 -4 -4v-271q0 -4 4 -4h152q10 0 10 -10v-27q0 -10 -10 -10h-152q-4 0 -4 -4v-272q0 -4 4 -4h237q10 0 10 -10v-27q0 -10 -10 -10h-285q-10 0 -10 10v130q0 4 -4 4h-201q-2 0 -4 -3l-59 -133q-3 -8 -11 -8h-34q-5 0 -7.5 3.5t-0.5 8.5l302 680q3 8 11 8
h303q10 0 10 -10v-27q0 -10 -10 -10zM149 189.5q1 -1.5 3 -1.5h180q4 0 4 4l1 420q0 3 -2 3t-3 -2l-183 -420q-1 -2 0 -3.5z" />
    <glyph glyph-name="Ccedilla" unicode="&#xc7;" horiz-adv-x="441" 
d="M383 516q-3 -3 -7 -3l-33 -2q-10 0 -10 10v25q0 52 -30 83.5t-80 31.5q-49 0 -79 -31.5t-30 -83.5v-391q0 -52 30 -84t79 -32t79.5 32t30.5 84v23q0 10 10 10l33 -2q10 0 10 -10v-17q0 -69 -37 -113t-100 -52q-5 -2 -2 -5q42 -42 42 -92q0 -44 -21.5 -63t-53.5 -19
q-15 0 -27 3q-9 1 -7 12l2 14q1 5 4.5 6.5t7.5 0.5t13 -1q19 0 31 12t12 39q0 42 -46 90q-2 2 -5 2q-63 8 -100.5 52.5t-37.5 113.5v384q0 75 44.5 120t117.5 45q74 0 118.5 -45t44.5 -120v-19q0 -5 -3 -8z" />
    <glyph glyph-name="Egrave" unicode="&#xc8;" horiz-adv-x="427" 
d="M373 653h-237q-4 0 -4 -4v-271q0 -4 4 -4h152q10 0 10 -10v-27q0 -10 -10 -10h-152q-4 0 -4 -4v-272q0 -4 4 -4h237q10 0 10 -10v-27q0 -10 -10 -10h-284q-10 0 -10 10v680q0 10 10 10h284q10 0 10 -10v-27q0 -10 -10 -10zM248 773q0 -6 -9 -6h-21q-7 0 -12 7l-68 110
q-2 4 -2 6q0 6 9 6h27q7 0 12 -7l62 -110q2 -4 2 -6z" />
    <glyph glyph-name="Eacute" unicode="&#xc9;" horiz-adv-x="427" 
d="M373 653h-237q-4 0 -4 -4v-271q0 -4 4 -4h152q10 0 10 -10v-27q0 -10 -10 -10h-152q-4 0 -4 -4v-272q0 -4 4 -4h237q10 0 10 -10v-27q0 -10 -10 -10h-284q-10 0 -10 10v680q0 10 10 10h284q10 0 10 -10v-27q0 -10 -10 -10zM194 770.5q-2 3.5 1 8.5l62 110q5 7 12 7h27
q6 0 8 -3.5t-1 -8.5l-69 -110q-5 -7 -12 -7h-20q-6 0 -8 3.5z" />
    <glyph glyph-name="Ecircumflex" unicode="&#xca;" horiz-adv-x="427" 
d="M373 653h-237q-4 0 -4 -4v-271q0 -4 4 -4h152q10 0 10 -10v-27q0 -10 -10 -10h-152q-4 0 -4 -4v-272q0 -4 4 -4h237q10 0 10 -10v-27q0 -10 -10 -10h-284q-10 0 -10 10v680q0 10 10 10h284q10 0 10 -10v-27q0 -10 -10 -10zM130.5 778.5q-1.5 3.5 1.5 8.5l65 102q5 7 12 7
h42q7 0 12 -7l67 -102q2 -4 2 -6q0 -6 -8 -6h-31q-7 0 -12 7l-47 76q-1 2 -3 2t-3 -2l-47 -76q-5 -7 -12 -7h-31q-6 0 -7.5 3.5z" />
    <glyph glyph-name="Edieresis" unicode="&#xcb;" horiz-adv-x="427" 
d="M373 653h-237q-4 0 -4 -4v-271q0 -4 4 -4h152q10 0 10 -10v-27q0 -10 -10 -10h-152q-4 0 -4 -4v-272q0 -4 4 -4h237q10 0 10 -10v-27q0 -10 -10 -10h-284q-10 0 -10 10v680q0 10 10 10h284q10 0 10 -10v-27q0 -10 -10 -10zM266 815q-14 14 -14 36t14 36t36 14t36 -14
t14 -36t-14 -36t-36 -14t-36 14zM125 815q-14 14 -14 36t14 36t36 14t36 -14t14 -36t-14 -36t-36 -14t-36 14z" />
    <glyph glyph-name="Igrave" unicode="&#xcc;" horiz-adv-x="211" 
d="M79 10v680q0 10 10 10h33q10 0 10 -10v-680q0 -10 -10 -10h-33q-10 0 -10 10zM123 773q0 -6 -9 -6h-21q-7 0 -12 7l-68 110q-2 4 -2 6q0 6 9 6h27q7 0 12 -7l62 -110q2 -4 2 -6z" />
    <glyph glyph-name="Iacute" unicode="&#xcd;" horiz-adv-x="211" 
d="M79 10v680q0 10 10 10h33q10 0 10 -10v-680q0 -10 -10 -10h-33q-10 0 -10 10zM68 770.5q-2 3.5 1 8.5l62 110q5 7 12 7h27q6 0 8 -3.5t-1 -8.5l-69 -110q-5 -7 -12 -7h-20q-6 0 -8 3.5z" />
    <glyph glyph-name="Icircumflex" unicode="&#xce;" horiz-adv-x="211" 
d="M79 10v680q0 10 10 10h33q10 0 10 -10v-680q0 -10 -10 -10h-33q-10 0 -10 10zM4.5 778.5q-1.5 3.5 1.5 8.5l65 102q5 7 12 7h42q7 0 12 -7l67 -102q2 -4 2 -6q0 -6 -8 -6h-31q-7 0 -12 7l-47 76q-1 2 -3 2t-3 -2l-47 -76q-5 -7 -12 -7h-31q-6 0 -7.5 3.5z" />
    <glyph glyph-name="Idieresis" unicode="&#xcf;" horiz-adv-x="211" 
d="M79 10v680q0 10 10 10h33q10 0 10 -10v-680q0 -10 -10 -10h-33q-10 0 -10 10zM140 815q-14 14 -14 36t14 36t36 14t36 -14t14 -36t-14 -36t-36 -14t-36 14zM-1 815q-14 14 -14 36t14 36t36 14t36 -14t14 -36t-14 -36t-36 -14t-36 14z" />
    <glyph glyph-name="Eth" unicode="&#xd0;" horiz-adv-x="509" 
d="M399 650.5q43 -49.5 43 -134.5v-332q0 -85 -43 -134.5t-117 -49.5h-147q-10 0 -10 10v333q0 4 -4 4h-32q-10 0 -10 10v17q0 10 10 10h32q4 0 4 4v302q0 10 10 10h147q74 0 117 -49.5zM389 514q0 64 -28.5 101.5t-78.5 37.5h-100q-4 0 -4 -4v-261q0 -4 4 -4h85
q10 0 10 -10v-17q0 -10 -10 -10h-85q-4 0 -4 -4v-292q0 -4 4 -4h100q49 1 77.5 37.5t29.5 100.5v329z" />
    <glyph glyph-name="Ntilde" unicode="&#xd1;" horiz-adv-x="488" 
d="M367 700h32q10 0 10 -10v-680q0 -10 -10 -10h-39q-8 0 -11 8l-213 560q-1 3 -3 2.5t-2 -3.5l1 -557q0 -10 -10 -10h-33q-10 0 -10 10v680q0 10 10 10h38q8 0 11 -8l214 -557q1 -3 3 -2.5t2 3.5v554q0 10 10 10zM278.5 823.5q-11.5 5.5 -27.5 16.5q-3 2 -12 8.5t-17 9.5
t-16 3q-15 0 -25 -5.5t-21 -21.5q-6 -9 -14 -3l-12 9q-9 5 -4 13q27 48 73 48q15 0 27 -6t29 -17q5 -3 14 -9.5t17 -9.5t16 -3q13 0 23.5 6.5t20.5 23.5q5 10 14 4l12 -7q4 -3 4 -8t-4 -12q-14 -23 -34 -34t-38 -11q-14 0 -25.5 5.5z" />
    <glyph glyph-name="Ograve" unicode="&#xd2;" horiz-adv-x="451" 
d="M106.5 38.5q-45.5 46.5 -45.5 121.5v379q0 76 45 122.5t119 46.5t120 -46.5t46 -122.5v-379q0 -75 -46 -121.5t-120 -46.5q-73 0 -118.5 46.5zM306.5 72q31.5 33 31.5 86v383q0 53 -31.5 86.5t-81.5 33.5q-49 0 -80 -33.5t-31 -86.5v-383q0 -53 31 -86t80 -33
q50 0 81.5 33zM242 772q0 -6 -9 -6h-21q-7 0 -12 7l-68 110q-2 4 -2 6q0 6 9 6h27q7 0 12 -7l62 -110q2 -4 2 -6z" />
    <glyph glyph-name="Oacute" unicode="&#xd3;" horiz-adv-x="451" 
d="M106.5 38.5q-45.5 46.5 -45.5 121.5v379q0 76 45 122.5t119 46.5t120 -46.5t46 -122.5v-379q0 -75 -46 -121.5t-120 -46.5q-73 0 -118.5 46.5zM306.5 72q31.5 33 31.5 86v383q0 53 -31.5 86.5t-81.5 33.5q-49 0 -80 -33.5t-31 -86.5v-383q0 -53 31 -86t80 -33
q50 0 81.5 33zM188 769.5q-2 3.5 1 8.5l62 110q5 7 12 7h27q6 0 8 -3.5t-1 -8.5l-69 -110q-5 -7 -12 -7h-20q-6 0 -8 3.5z" />
    <glyph glyph-name="Ocircumflex" unicode="&#xd4;" horiz-adv-x="451" 
d="M106.5 38.5q-45.5 46.5 -45.5 121.5v379q0 76 45 122.5t119 46.5t120 -46.5t46 -122.5v-379q0 -75 -46 -121.5t-120 -46.5q-73 0 -118.5 46.5zM306.5 72q31.5 33 31.5 86v383q0 53 -31.5 86.5t-81.5 33.5q-49 0 -80 -33.5t-31 -86.5v-383q0 -53 31 -86t80 -33
q50 0 81.5 33zM124.5 777.5q-1.5 3.5 1.5 8.5l65 102q5 7 12 7h42q7 0 12 -7l67 -102q2 -4 2 -6q0 -6 -8 -6h-31q-7 0 -12 7l-47 76q-1 2 -3 2t-3 -2l-47 -76q-5 -7 -12 -7h-31q-6 0 -7.5 3.5z" />
    <glyph glyph-name="Otilde" unicode="&#xd5;" horiz-adv-x="451" 
d="M106.5 38.5q-45.5 46.5 -45.5 121.5v379q0 76 45 122.5t119 46.5t120 -46.5t46 -122.5v-379q0 -75 -46 -121.5t-120 -46.5q-73 0 -118.5 46.5zM306.5 72q31.5 33 31.5 86v383q0 53 -31.5 86.5t-81.5 33.5q-49 0 -80 -33.5t-31 -86.5v-383q0 -53 31 -86t80 -33
q50 0 81.5 33zM259.5 814.5q-11.5 5.5 -27.5 16.5q-3 2 -12 8.5t-17 9.5t-16 3q-15 0 -25 -5.5t-21 -21.5q-6 -9 -14 -3l-12 9q-9 5 -4 13q27 48 73 48q15 0 27 -6t29 -17q5 -3 14 -9.5t17 -9.5t16 -3q13 0 23.5 6.5t20.5 23.5q5 10 14 4l12 -7q4 -3 4 -8t-4 -12
q-14 -23 -34 -34t-38 -11q-14 0 -25.5 5.5z" />
    <glyph glyph-name="Odieresis" unicode="&#xd6;" horiz-adv-x="451" 
d="M106.5 38.5q-45.5 46.5 -45.5 121.5v379q0 76 45 122.5t119 46.5t120 -46.5t46 -122.5v-379q0 -75 -46 -121.5t-120 -46.5q-73 0 -118.5 46.5zM306.5 72q31.5 33 31.5 86v383q0 53 -31.5 86.5t-81.5 33.5q-49 0 -80 -33.5t-31 -86.5v-383q0 -53 31 -86t80 -33
q50 0 81.5 33zM259 814q-14 14 -14 36t14 36t36 14t36 -14t14 -36t-14 -36t-36 -14t-36 14zM118 814q-14 14 -14 36t14 36t36 14t36 -14t14 -36t-14 -36t-36 -14t-36 14z" />
    <glyph glyph-name="multiply" unicode="&#xd7;" horiz-adv-x="363" 
d="M324 429q0 -4 -3 -7l-107 -107q-3 -3 0 -6l107 -108q3 -3 3 -7t-3 -7l-16 -16q-3 -3 -7 -3t-7 3l-107 107q-3 3 -6 0l-107 -107q-3 -3 -7 -3t-7 3l-16 16q-3 3 -3 7t3 7l107 108q3 3 0 6l-107 107q-3 3 -3 7t3 7l16 16q3 3 7 3t7 -3l107 -107q3 -3 6 0l107 107q3 3 7 3
t7 -3l16 -16q3 -3 3 -7z" />
    <glyph glyph-name="Oslash" unicode="&#xd8;" horiz-adv-x="494" 
d="M394 703l-27 -65q-1 -2 1 -6q24 -37 24 -93v-379q0 -75 -46 -121.5t-120 -46.5q-63 0 -105 34q-4 3 -6 -1l-20 -49q-3 -10 -13 -5l-20 10q-8 5 -5 13l28 68q2 3 -1 6q-23 38 -23 92v379q0 76 45.5 122.5t119.5 46.5q63 0 106 -35q4 -3 6 1l20 49q2 5 5.5 6.5t7.5 -1.5
l19 -11q7 -4 4 -14zM115 146q0 -3 2 -3t3 2l194 471q1 3 -1 5q-15 19 -37.5 29.5t-49.5 10.5q-50 0 -81 -33.5t-31 -86.5v-383q0 -8 1 -12zM338 554q0 3 -2 3t-3 -2l-194 -471q-1 -3 1 -5q32 -40 86 -40q50 0 81.5 33.5t31.5 85.5v383q0 9 -1 13z" />
    <glyph glyph-name="Ugrave" unicode="&#xd9;" horiz-adv-x="475" 
d="M118 43.5q-45 51.5 -45 137.5v509q0 10 10 10h33q10 0 10 -10v-515q0 -61 30.5 -98.5t80.5 -37.5t81.5 37.5t31.5 98.5v515q0 10 10 10h33q10 0 10 -10v-509q0 -85 -46 -137t-120 -52t-119 51.5zM254 773q0 -6 -9 -6h-21q-7 0 -12 7l-68 110q-2 4 -2 6q0 6 9 6h27
q7 0 12 -7l62 -110q2 -4 2 -6z" />
    <glyph glyph-name="Uacute" unicode="&#xda;" horiz-adv-x="475" 
d="M118 43.5q-45 51.5 -45 137.5v509q0 10 10 10h33q10 0 10 -10v-515q0 -61 30.5 -98.5t80.5 -37.5t81.5 37.5t31.5 98.5v515q0 10 10 10h33q10 0 10 -10v-509q0 -85 -46 -137t-120 -52t-119 51.5zM200 770.5q-2 3.5 1 8.5l62 110q5 7 12 7h27q6 0 8 -3.5t-1 -8.5l-69 -110
q-5 -7 -12 -7h-20q-6 0 -8 3.5z" />
    <glyph glyph-name="Ucircumflex" unicode="&#xdb;" horiz-adv-x="475" 
d="M118 43.5q-45 51.5 -45 137.5v509q0 10 10 10h33q10 0 10 -10v-515q0 -61 30.5 -98.5t80.5 -37.5t81.5 37.5t31.5 98.5v515q0 10 10 10h33q10 0 10 -10v-509q0 -85 -46 -137t-120 -52t-119 51.5zM136.5 778.5q-1.5 3.5 1.5 8.5l65 102q5 7 12 7h42q7 0 12 -7l67 -102
q2 -4 2 -6q0 -6 -8 -6h-31q-7 0 -12 7l-47 76q-1 2 -3 2t-3 -2l-47 -76q-5 -7 -12 -7h-31q-6 0 -7.5 3.5z" />
    <glyph glyph-name="Udieresis" unicode="&#xdc;" horiz-adv-x="475" 
d="M118 43.5q-45 51.5 -45 137.5v509q0 10 10 10h33q10 0 10 -10v-515q0 -61 30.5 -98.5t80.5 -37.5t81.5 37.5t31.5 98.5v515q0 10 10 10h33q10 0 10 -10v-509q0 -85 -46 -137t-120 -52t-119 51.5zM271 815q-14 14 -14 36t14 36t36 14t36 -14t14 -36t-14 -36t-36 -14
t-36 14zM130 815q-14 14 -14 36t14 36t36 14t36 -14t14 -36t-14 -36t-36 -14t-36 14z" />
    <glyph glyph-name="Yacute" unicode="&#xdd;" horiz-adv-x="411" 
d="M179 10v310q0 4 -1 5l-138 363l-1 4q0 8 9 8h35q9 0 12 -8l108 -306q1 -2 3 -2t3 2l107 306q3 8 12 8h35q5 0 7.5 -3.5t0.5 -8.5l-138 -363q-1 -1 -1 -5v-310q0 -10 -10 -10h-33q-10 0 -10 10zM169 770.5q-2 3.5 1 8.5l62 110q5 7 12 7h27q6 0 8 -3.5t-1 -8.5l-69 -110
q-5 -7 -12 -7h-20q-6 0 -8 3.5z" />
    <glyph glyph-name="Thorn" unicode="&#xde;" horiz-adv-x="436" 
d="M357 487.5q43 -52.5 43 -137.5q0 -84 -42.5 -135.5t-112.5 -51.5h-110q-4 0 -4 -4v-149q0 -10 -10 -10h-33q-10 0 -10 10v680q0 10 10 10h33q10 0 10 -10v-146q0 -4 4 -4h108q71 0 114 -52.5zM317 246.5q30 38.5 30 102.5q0 66 -30 105t-80 39h-102q-4 0 -4 -4v-277
q0 -4 4 -4h102q50 0 80 38.5z" />
    <glyph glyph-name="germandbls" unicode="&#xdf;" horiz-adv-x="422" 
d="M67 10v507q0 90 38 141t105 51q71 0 111.5 -51.5t40.5 -139.5q0 -55 -18.5 -93t-50.5 -54q-5 -2 0 -5q35 -19 55 -64.5t20 -109.5q0 -90 -43 -141t-120 -51h-35q-10 0 -10 10v26q0 10 10 10l36 1q53 1 81.5 39.5t28.5 109.5t-25 110t-70 41h-36q-10 0 -10 10v24
q0 10 10 10h36q43 0 66 33.5t23 94.5q0 68 -26.5 105.5t-72.5 37.5q-43 0 -67 -36.5t-24 -103.5v-512q0 -10 -10 -10h-33q-10 0 -10 10z" />
    <glyph glyph-name="agrave" unicode="&#xe0;" horiz-adv-x="403" 
d="M310.5 466.5q38.5 -45.5 38.5 -121.5v-335q0 -10 -10 -10h-33q-10 0 -10 10v36q0 3 -1.5 3.5t-3.5 -1.5q-37 -56 -116 -56q-53 0 -92 31t-39 109q0 83 46.5 122t123.5 39h78q4 0 4 4v46q0 56 -25 89t-69 33q-34 0 -59.5 -22t-29.5 -57q0 -10 -10 -10l-36 2q-5 0 -7.5 3
t-1.5 7q6 56 47 90t99 34q68 0 106.5 -45.5zM263.5 68q32.5 29 32.5 82v95q0 4 -4 4h-78q-52 0 -83.5 -28.5t-31.5 -84.5q0 -49 24 -73t63 -24q45 0 77.5 29zM219 577q0 -6 -9 -6h-21q-7 0 -12 7l-68 110q-2 4 -2 6q0 6 9 6h27q7 0 12 -7l62 -110q2 -4 2 -6z" />
    <glyph glyph-name="aacute" unicode="&#xe1;" horiz-adv-x="403" 
d="M310.5 466.5q38.5 -45.5 38.5 -121.5v-335q0 -10 -10 -10h-33q-10 0 -10 10v36q0 3 -1.5 3.5t-3.5 -1.5q-37 -56 -116 -56q-53 0 -92 31t-39 109q0 83 46.5 122t123.5 39h78q4 0 4 4v46q0 56 -25 89t-69 33q-34 0 -59.5 -22t-29.5 -57q0 -10 -10 -10l-36 2q-5 0 -7.5 3
t-1.5 7q6 56 47 90t99 34q68 0 106.5 -45.5zM263.5 68q32.5 29 32.5 82v95q0 4 -4 4h-78q-52 0 -83.5 -28.5t-31.5 -84.5q0 -49 24 -73t63 -24q45 0 77.5 29zM164 574.5q-2 3.5 1 8.5l62 110q5 7 12 7h27q6 0 8 -3.5t-1 -8.5l-69 -110q-5 -7 -12 -7h-20q-6 0 -8 3.5z" />
    <glyph glyph-name="acircumflex" unicode="&#xe2;" horiz-adv-x="403" 
d="M310.5 466.5q38.5 -45.5 38.5 -121.5v-335q0 -10 -10 -10h-33q-10 0 -10 10v36q0 3 -1.5 3.5t-3.5 -1.5q-37 -56 -116 -56q-53 0 -92 31t-39 109q0 83 46.5 122t123.5 39h78q4 0 4 4v46q0 56 -25 89t-69 33q-34 0 -59.5 -22t-29.5 -57q0 -10 -10 -10l-36 2q-5 0 -7.5 3
t-1.5 7q6 56 47 90t99 34q68 0 106.5 -45.5zM263.5 68q32.5 29 32.5 82v95q0 4 -4 4h-78q-52 0 -83.5 -28.5t-31.5 -84.5q0 -49 24 -73t63 -24q45 0 77.5 29zM100.5 582.5q-1.5 3.5 1.5 8.5l65 102q5 7 12 7h42q7 0 12 -7l67 -102q2 -4 2 -6q0 -6 -8 -6h-31q-7 0 -12 7
l-47 76q-1 2 -3 2t-3 -2l-47 -76q-5 -7 -12 -7h-31q-6 0 -7.5 3.5z" />
    <glyph glyph-name="atilde" unicode="&#xe3;" horiz-adv-x="403" 
d="M310.5 466.5q38.5 -45.5 38.5 -121.5v-335q0 -10 -10 -10h-33q-10 0 -10 10v36q0 3 -1.5 3.5t-3.5 -1.5q-37 -56 -116 -56q-53 0 -92 31t-39 109q0 83 46.5 122t123.5 39h78q4 0 4 4v46q0 56 -25 89t-69 33q-34 0 -59.5 -22t-29.5 -57q0 -10 -10 -10l-36 2q-5 0 -7.5 3
t-1.5 7q6 56 47 90t99 34q68 0 106.5 -45.5zM263.5 68q32.5 29 32.5 82v95q0 4 -4 4h-78q-52 0 -83.5 -28.5t-31.5 -84.5q0 -49 24 -73t63 -24q45 0 77.5 29zM236.5 619.5q-11.5 5.5 -27.5 16.5q-3 2 -12 8.5t-17 9.5t-16 3q-15 0 -25 -5.5t-21 -21.5q-6 -9 -14 -3l-12 9
q-9 5 -4 13q27 48 73 48q15 0 27 -6t29 -17q5 -3 14 -9.5t17 -9.5t16 -3q13 0 23.5 6.5t20.5 23.5q5 10 14 4l12 -7q4 -3 4 -8t-4 -12q-14 -23 -34 -34t-38 -11q-14 0 -25.5 5.5z" />
    <glyph glyph-name="adieresis" unicode="&#xe4;" horiz-adv-x="403" 
d="M310.5 466.5q38.5 -45.5 38.5 -121.5v-335q0 -10 -10 -10h-33q-10 0 -10 10v36q0 3 -1.5 3.5t-3.5 -1.5q-37 -56 -116 -56q-53 0 -92 31t-39 109q0 83 46.5 122t123.5 39h78q4 0 4 4v46q0 56 -25 89t-69 33q-34 0 -59.5 -22t-29.5 -57q0 -10 -10 -10l-36 2q-5 0 -7.5 3
t-1.5 7q6 56 47 90t99 34q68 0 106.5 -45.5zM263.5 68q32.5 29 32.5 82v95q0 4 -4 4h-78q-52 0 -83.5 -28.5t-31.5 -84.5q0 -49 24 -73t63 -24q45 0 77.5 29zM236 619q-14 14 -14 36t14 36t36 14t36 -14t14 -36t-14 -36t-36 -14t-36 14zM95 619q-14 14 -14 36t14 36t36 14
t36 -14t14 -36t-14 -36t-36 -14t-36 14z" />
    <glyph glyph-name="aring" unicode="&#xe5;" horiz-adv-x="403" 
d="M310.5 466.5q38.5 -45.5 38.5 -121.5v-335q0 -10 -10 -10h-33q-10 0 -10 10v36q0 3 -1.5 3.5t-3.5 -1.5q-37 -56 -116 -56q-53 0 -92 31t-39 109q0 83 46.5 122t123.5 39h78q4 0 4 4v46q0 56 -25 89t-69 33q-34 0 -59.5 -22t-29.5 -57q0 -10 -10 -10l-36 2q-5 0 -7.5 3
t-1.5 7q6 56 47 90t99 34q68 0 106.5 -45.5zM263.5 68q32.5 29 32.5 82v95q0 4 -4 4h-78q-52 0 -83.5 -28.5t-31.5 -84.5q0 -49 24 -73t63 -24q45 0 77.5 29zM130.5 613.5q-29.5 30.5 -29.5 73.5t29.5 73.5t71.5 30.5q43 0 72.5 -30t29.5 -74t-29.5 -74t-72.5 -30
q-42 0 -71.5 30.5zM249.5 638q19.5 20 19.5 49t-19.5 49t-47.5 20q-27 0 -47 -20t-20 -49t20 -49t47 -20q28 0 47.5 20z" />
    <glyph glyph-name="ae" unicode="&#xe6;" horiz-adv-x="644" 
d="M82 22.5q-38 30.5 -38 108.5q0 153 165 153h82q4 0 4 4v55q0 56 -24.5 89t-69.5 33q-35 0 -62 -22t-31 -57q-1 -9 -11 -9l-33 2q-5 0 -7.5 3t-1.5 7q5 56 46.5 89.5t99.5 33.5q82 0 117 -73q3 -4 6 0q18 34 50 53.5t74 19.5q65 0 106 -42t41 -108v-114q0 -10 -10 -10
h-230q-4 0 -4 -4v-90q0 -44 26.5 -73t68.5 -29q35 0 60 20.5t33 53.5q2 5 4 7t7 1l33 -2q4 0 7 -3t2 -8q-10 -55 -48 -87t-95 -32q-47 0 -81.5 22.5t-46.5 57.5q-1 2 -2 2.5t-2 -1.5q-15 -38 -53.5 -59.5t-89.5 -21.5q-54 0 -92 30.5zM355 283h183q4 0 4 4v72
q0 47 -26.5 76.5t-69.5 29.5q-42 0 -68.5 -29.5t-26.5 -76.5v-72q0 -4 4 -4zM262.5 64q32.5 28 32.5 80v89q0 4 -4 4h-78q-53 0 -84 -25.5t-31 -78.5q0 -49 24.5 -73t63.5 -24q44 0 76.5 28z" />
    <glyph glyph-name="ccedilla" unicode="&#xe7;" horiz-adv-x="394" 
d="M342 362l-33 -2q-10 0 -10 10v6q0 36 -27 62.5t-69 26.5t-68.5 -29.5t-26.5 -76.5v-215q0 -46 26.5 -75.5t68.5 -29.5t69 26.5t27 62.5v5q0 10 10 10h33q10 0 10 -10v-8q0 -50 -33.5 -87t-89.5 -44q-6 -2 -1 -5q42 -41 42 -93q0 -44 -22 -62.5t-54 -18.5q-15 0 -27 3
q-9 1 -7 12l2 14q1 5 4.5 6.5t7.5 0.5q5 -1 13 -1q43 0 43 51q0 42 -46 90q-2 2 -5 2q-56 8 -90 48t-34 101v220q0 66 41 108t107 42q44 0 78 -18.5t52.5 -49t18.5 -66.5v-8q0 -8 -10 -8z" />
    <glyph glyph-name="egrave" unicode="&#xe8;" horiz-adv-x="401" 
d="M342 233h-230q-4 0 -4 -4v-85q0 -46 26.5 -75.5t68.5 -29.5q35 0 60 21t33 55q3 9 11 9l32 -2q4 0 7 -2t2 -6v-4q-10 -55 -48 -86.5t-97 -31.5q-66 0 -107 41.5t-41 107.5v221q0 66 41 108t107 42q67 0 108 -42t41 -108v-119q0 -10 -10 -10zM134.5 435.5
q-26.5 -29.5 -26.5 -76.5v-76q0 -4 4 -4h183q4 0 4 4v76q0 47 -26.5 76.5t-69.5 29.5q-42 0 -68.5 -29.5zM217 577q0 -6 -9 -6h-21q-7 0 -12 7l-68 110q-2 4 -2 6q0 6 9 6h27q7 0 12 -7l62 -110q2 -4 2 -6z" />
    <glyph glyph-name="eacute" unicode="&#xe9;" horiz-adv-x="401" 
d="M342 233h-230q-4 0 -4 -4v-85q0 -46 26.5 -75.5t68.5 -29.5q35 0 60 21t33 55q3 9 11 9l32 -2q4 0 7 -2t2 -6v-4q-10 -55 -48 -86.5t-97 -31.5q-66 0 -107 41.5t-41 107.5v221q0 66 41 108t107 42q67 0 108 -42t41 -108v-119q0 -10 -10 -10zM134.5 435.5
q-26.5 -29.5 -26.5 -76.5v-76q0 -4 4 -4h183q4 0 4 4v76q0 47 -26.5 76.5t-69.5 29.5q-42 0 -68.5 -29.5zM163 574.5q-2 3.5 1 8.5l62 110q5 7 12 7h27q6 0 8 -3.5t-1 -8.5l-69 -110q-5 -7 -12 -7h-20q-6 0 -8 3.5z" />
    <glyph glyph-name="ecircumflex" unicode="&#xea;" horiz-adv-x="401" 
d="M342 233h-230q-4 0 -4 -4v-85q0 -46 26.5 -75.5t68.5 -29.5q35 0 60 21t33 55q3 9 11 9l32 -2q4 0 7 -2t2 -6v-4q-10 -55 -48 -86.5t-97 -31.5q-66 0 -107 41.5t-41 107.5v221q0 66 41 108t107 42q67 0 108 -42t41 -108v-119q0 -10 -10 -10zM134.5 435.5
q-26.5 -29.5 -26.5 -76.5v-76q0 -4 4 -4h183q4 0 4 4v76q0 47 -26.5 76.5t-69.5 29.5q-42 0 -68.5 -29.5zM99.5 582.5q-1.5 3.5 1.5 8.5l65 102q5 7 12 7h42q7 0 12 -7l67 -102q2 -4 2 -6q0 -6 -8 -6h-31q-7 0 -12 7l-47 76q-1 2 -3 2t-3 -2l-47 -76q-5 -7 -12 -7h-31
q-6 0 -7.5 3.5z" />
    <glyph glyph-name="edieresis" unicode="&#xeb;" horiz-adv-x="401" 
d="M342 233h-230q-4 0 -4 -4v-85q0 -46 26.5 -75.5t68.5 -29.5q35 0 60 21t33 55q3 9 11 9l32 -2q4 0 7 -2t2 -6v-4q-10 -55 -48 -86.5t-97 -31.5q-66 0 -107 41.5t-41 107.5v221q0 66 41 108t107 42q67 0 108 -42t41 -108v-119q0 -10 -10 -10zM134.5 435.5
q-26.5 -29.5 -26.5 -76.5v-76q0 -4 4 -4h183q4 0 4 4v76q0 47 -26.5 76.5t-69.5 29.5q-42 0 -68.5 -29.5zM235 619q-14 14 -14 36t14 36t36 14t36 -14t14 -36t-14 -36t-36 -14t-36 14zM94 619q-14 14 -14 36t14 36t36 14t36 -14t14 -36t-14 -36t-36 -14t-36 14z" />
    <glyph glyph-name="igrave" unicode="&#xec;" horiz-adv-x="163" 
d="M55 10v484q0 10 10 10h33q10 0 10 -10v-484q0 -10 -10 -10h-33q-10 0 -10 10zM99 577q0 -6 -9 -6h-21q-7 0 -12 7l-68 110q-2 4 -2 6q0 6 9 6h27q7 0 12 -7l62 -110q2 -4 2 -6z" />
    <glyph glyph-name="iacute" unicode="&#xed;" horiz-adv-x="163" 
d="M55 10v484q0 10 10 10h33q10 0 10 -10v-484q0 -10 -10 -10h-33q-10 0 -10 10zM44 574.5q-2 3.5 1 8.5l62 110q5 7 12 7h27q6 0 8 -3.5t-1 -8.5l-69 -110q-5 -7 -12 -7h-20q-6 0 -8 3.5z" />
    <glyph glyph-name="icircumflex" unicode="&#xee;" horiz-adv-x="163" 
d="M55 10v484q0 10 10 10h33q10 0 10 -10v-484q0 -10 -10 -10h-33q-10 0 -10 10zM-19.5 582.5q-1.5 3.5 1.5 8.5l65 102q5 7 12 7h42q7 0 12 -7l67 -102q2 -4 2 -6q0 -6 -8 -6h-31q-7 0 -12 7l-47 76q-1 2 -3 2t-3 -2l-47 -76q-5 -7 -12 -7h-31q-6 0 -7.5 3.5z" />
    <glyph glyph-name="idieresis" unicode="&#xef;" horiz-adv-x="163" 
d="M55 10v484q0 10 10 10h33q10 0 10 -10v-484q0 -10 -10 -10h-33q-10 0 -10 10zM116 619q-14 14 -14 36t14 36t36 14t36 -14t14 -36t-14 -36t-36 -14t-36 14zM-25 619q-14 14 -14 36t14 36t36 14t36 -14t14 -36t-14 -36t-36 -14t-36 14z" />
    <glyph glyph-name="eth" unicode="&#xf0;" horiz-adv-x="428" 
d="M290 598q59 -100 63 -243v-34v-73v-106q0 -67 -41 -108.5t-109 -41.5q-67 0 -107.5 41.5t-40.5 108.5v213q0 65 40 107t102 42q58 0 92 -39q2 -2 3.5 -1.5t0.5 2.5q-10 61 -44 120q-2 4 -5 2l-73 -23l-4 -1q-6 0 -9 8l-3 11v3q0 6 7 9l62 20q4 2 2 5q-21 31 -58 68
q-3 3 -3 7q0 5 8 5h30q7 0 12 -5q36 -38 53 -63q2 -4 5 -2l82 25l4 1q6 0 9 -8l3 -11v-3q0 -6 -7 -9l-72 -22q-3 -2 -2 -5zM273 427.5q-27 29.5 -70 29.5q-42 0 -68.5 -29.5t-26.5 -75.5v-208q0 -46 26.5 -75.5t68.5 -29.5q43 0 70 29.5t27 75.5v208q0 46 -27 75.5z" />
    <glyph glyph-name="ntilde" unicode="&#xf1;" 
d="M159 651.5q-9 -5.5 -18 -20.5q-7 -10 -14 -3l-8 7q-7 7 -3 14q22 48 62 48q13 0 23.5 -6t24.5 -17q3 -2 11 -8.5t15 -10t14 -3.5q12 0 20.5 6t16.5 23q7 10 14 4l9 -6q7 -5 4 -14q-12 -27 -30 -39t-35 -12q-20 0 -46 22q-14 12 -21 16.5t-18 4.5q-12 0 -21 -5.5zM325 470
q33 -41 33 -115v-345q0 -10 -10 -10h-33q-10 0 -10 10v340q0 54 -24 84t-67 30q-44 0 -69 -32t-25 -88v-334q0 -10 -10 -10h-33q-10 0 -10 10v484q0 10 10 10h33q10 0 10 -10v-38q0 -3 1.5 -3t3.5 2q34 56 106 56q61 0 94 -41z" />
    <glyph glyph-name="ograve" unicode="&#xf2;" horiz-adv-x="407" 
d="M95.5 33.5q-40.5 41.5 -40.5 108.5v220q0 66 41 108t107 42q68 0 109 -41.5t41 -108.5v-220q0 -67 -41 -108.5t-109 -41.5q-67 0 -107.5 41.5zM273 68.5q27 29.5 27 75.5v215q0 47 -27 76.5t-70 29.5q-42 0 -68.5 -29.5t-26.5 -76.5v-215q0 -46 26.5 -75.5t68.5 -29.5
q43 0 70 29.5zM220 577q0 -6 -9 -6h-21q-7 0 -12 7l-68 110q-2 4 -2 6q0 6 9 6h27q7 0 12 -7l62 -110q2 -4 2 -6z" />
    <glyph glyph-name="oacute" unicode="&#xf3;" horiz-adv-x="407" 
d="M95.5 33.5q-40.5 41.5 -40.5 108.5v220q0 66 41 108t107 42q68 0 109 -41.5t41 -108.5v-220q0 -67 -41 -108.5t-109 -41.5q-67 0 -107.5 41.5zM273 68.5q27 29.5 27 75.5v215q0 47 -27 76.5t-70 29.5q-42 0 -68.5 -29.5t-26.5 -76.5v-215q0 -46 26.5 -75.5t68.5 -29.5
q43 0 70 29.5zM166 574.5q-2 3.5 1 8.5l62 110q5 7 12 7h27q6 0 8 -3.5t-1 -8.5l-69 -110q-5 -7 -12 -7h-20q-6 0 -8 3.5z" />
    <glyph glyph-name="ocircumflex" unicode="&#xf4;" horiz-adv-x="407" 
d="M95.5 33.5q-40.5 41.5 -40.5 108.5v220q0 66 41 108t107 42q68 0 109 -41.5t41 -108.5v-220q0 -67 -41 -108.5t-109 -41.5q-67 0 -107.5 41.5zM273 68.5q27 29.5 27 75.5v215q0 47 -27 76.5t-70 29.5q-42 0 -68.5 -29.5t-26.5 -76.5v-215q0 -46 26.5 -75.5t68.5 -29.5
q43 0 70 29.5zM102.5 582.5q-1.5 3.5 1.5 8.5l65 102q5 7 12 7h42q7 0 12 -7l67 -102q2 -4 2 -6q0 -6 -8 -6h-31q-7 0 -12 7l-47 76q-1 2 -3 2t-3 -2l-47 -76q-5 -7 -12 -7h-31q-6 0 -7.5 3.5z" />
    <glyph glyph-name="otilde" unicode="&#xf5;" horiz-adv-x="407" 
d="M95.5 33.5q-40.5 41.5 -40.5 108.5v220q0 66 41 108t107 42q68 0 109 -41.5t41 -108.5v-220q0 -67 -41 -108.5t-109 -41.5q-67 0 -107.5 41.5zM273 68.5q27 29.5 27 75.5v215q0 47 -27 76.5t-70 29.5q-42 0 -68.5 -29.5t-26.5 -76.5v-215q0 -46 26.5 -75.5t68.5 -29.5
q43 0 70 29.5zM238.5 619.5q-11.5 5.5 -27.5 16.5q-3 2 -12 8.5t-17 9.5t-16 3q-15 0 -25 -5.5t-21 -21.5q-6 -9 -14 -3l-12 9q-9 5 -4 13q27 48 73 48q15 0 27 -6t29 -17q5 -3 14 -9.5t17 -9.5t16 -3q13 0 23.5 6.5t20.5 23.5q5 10 14 4l12 -7q4 -3 4 -8t-4 -12
q-14 -23 -34 -34t-38 -11q-14 0 -25.5 5.5z" />
    <glyph glyph-name="odieresis" unicode="&#xf6;" horiz-adv-x="407" 
d="M95.5 33.5q-40.5 41.5 -40.5 108.5v220q0 66 41 108t107 42q68 0 109 -41.5t41 -108.5v-220q0 -67 -41 -108.5t-109 -41.5q-67 0 -107.5 41.5zM273 68.5q27 29.5 27 75.5v215q0 47 -27 76.5t-70 29.5q-42 0 -68.5 -29.5t-26.5 -76.5v-215q0 -46 26.5 -75.5t68.5 -29.5
q43 0 70 29.5zM238 619q-14 14 -14 36t14 36t36 14t36 -14t14 -36t-14 -36t-36 -14t-36 14zM97 619q-14 14 -14 36t14 36t36 14t36 -14t14 -36t-14 -36t-36 -14t-36 14z" />
    <glyph glyph-name="divide" unicode="&#xf7;" horiz-adv-x="443" 
d="M186.5 444q-14.5 14 -14.5 34q0 19 14.5 33t34.5 14t34.5 -14t14.5 -33q0 -20 -14.5 -34t-34.5 -14t-34.5 14zM34 318v22q0 10 10 10h354q10 0 10 -10v-22q0 -10 -10 -10h-354q-10 0 -10 10zM186.5 148q-14.5 14 -14.5 34q0 19 14.5 33.5t34.5 14.5t34.5 -14.5
t14.5 -33.5t-14.5 -33.5t-34.5 -14.5t-34.5 14z" />
    <glyph glyph-name="oslash" unicode="&#xf8;" horiz-adv-x="417" 
d="M323 459q31 -39 31 -97v-220q0 -67 -41 -108.5t-109 -41.5q-41 0 -71 15q-5 2 -6 -2l-20 -47q-2 -5 -5.5 -6.5t-7.5 1.5l-22 12q-7 4 -4 14l24 56q1 3 -1 5q-35 40 -35 102v220q0 66 41 108t107 42q44 0 77 -18q5 -2 6 2l22 53q3 10 13 5l23 -12q7 -4 4 -14l-27 -64
q-1 -3 1 -5zM115 104q1 -3 3 -2.5t3 2.5l142 337q1 3 -2 5q-24 19 -57 19q-42 0 -68.5 -29.5t-26.5 -76.5v-215q0 -22 6 -40zM297 391q-1 3 -2.5 3t-2.5 -2l-142 -333q-1 -3 2 -5q21 -15 52 -15q43 0 70 29.5t27 75.5v215q0 20 -4 32z" />
    <glyph glyph-name="ugrave" unicode="&#xf9;" 
d="M308 504h33q10 0 10 -10v-484q0 -10 -10 -10h-33q-10 0 -10 10v36q0 3 -1.5 3.5t-3.5 -1.5q-32 -55 -102 -55q-60 0 -95 36.5t-35 109.5v355q0 10 10 10h33q10 0 10 -10v-343q0 -55 23.5 -83t66.5 -28q44 0 69 32t25 88v334q0 10 10 10zM223 577q0 -6 -9 -6h-21
q-7 0 -12 7l-68 110q-2 4 -2 6q0 6 9 6h27q7 0 12 -7l62 -110q2 -4 2 -6z" />
    <glyph glyph-name="uacute" unicode="&#xfa;" 
d="M308 504h33q10 0 10 -10v-484q0 -10 -10 -10h-33q-10 0 -10 10v36q0 3 -1.5 3.5t-3.5 -1.5q-32 -55 -102 -55q-60 0 -95 36.5t-35 109.5v355q0 10 10 10h33q10 0 10 -10v-343q0 -55 23.5 -83t66.5 -28q44 0 69 32t25 88v334q0 10 10 10zM168 574.5q-2 3.5 1 8.5l62 110
q5 7 12 7h27q6 0 8 -3.5t-1 -8.5l-69 -110q-5 -7 -12 -7h-20q-6 0 -8 3.5z" />
    <glyph glyph-name="ucircumflex" unicode="&#xfb;" 
d="M308 504h33q10 0 10 -10v-484q0 -10 -10 -10h-33q-10 0 -10 10v36q0 3 -1.5 3.5t-3.5 -1.5q-32 -55 -102 -55q-60 0 -95 36.5t-35 109.5v355q0 10 10 10h33q10 0 10 -10v-343q0 -55 23.5 -83t66.5 -28q44 0 69 32t25 88v334q0 10 10 10zM104.5 582.5q-1.5 3.5 1.5 8.5
l65 102q5 7 12 7h42q7 0 12 -7l67 -102q2 -4 2 -6q0 -6 -8 -6h-31q-7 0 -12 7l-47 76q-1 2 -3 2t-3 -2l-47 -76q-5 -7 -12 -7h-31q-6 0 -7.5 3.5z" />
    <glyph glyph-name="udieresis" unicode="&#xfc;" 
d="M308 504h33q10 0 10 -10v-484q0 -10 -10 -10h-33q-10 0 -10 10v36q0 3 -1.5 3.5t-3.5 -1.5q-32 -55 -102 -55q-60 0 -95 36.5t-35 109.5v355q0 10 10 10h33q10 0 10 -10v-343q0 -55 23.5 -83t66.5 -28q44 0 69 32t25 88v334q0 10 10 10zM240 619q-14 14 -14 36t14 36
t36 14t36 -14t14 -36t-14 -36t-36 -14t-36 14zM99 619q-14 14 -14 36t14 36t36 14t36 -14t14 -36t-14 -36t-36 -14t-36 14z" />
    <glyph glyph-name="yacute" unicode="&#xfd;" horiz-adv-x="353" 
d="M41 -197q-2 3 -2 7v26q0 10 10 10h1q30 1 46.5 12.5t28 42.5t24.5 96q1 2 0.5 3.5t-0.5 2.5l-128 490l-1 3q0 8 10 8h35q9 0 11 -9l99 -417q1 -3 2 -3t2 3l98 417q2 9 11 9l36 -1q5 0 7.5 -3t0.5 -8l-141 -543q-17 -65 -33.5 -96t-40.5 -42t-67 -11h-5q-2 0 -4 3z
M140 574.5q-2 3.5 1 8.5l62 110q5 7 12 7h27q6 0 8 -3.5t-1 -8.5l-69 -110q-5 -7 -12 -7h-20q-6 0 -8 3.5z" />
    <glyph glyph-name="thorn" unicode="&#xfe;" horiz-adv-x="411" 
d="M320 470.5q36 -41.5 36 -108.5v-220q0 -68 -36 -109t-98 -41q-33 0 -60 15t-43 43q-1 3 -3 2.5t-2 -3.5v-239q0 -10 -10 -10h-33q-10 0 -10 10v880q0 10 10 10h33q10 0 10 -10v-235q0 -3 2 -3.5t3 2.5q16 28 43 43t60 15q62 0 98 -41.5zM276.5 435.5
q-26.5 29.5 -69.5 29.5q-41 0 -67 -29.5t-26 -76.5v-215q0 -47 26 -76t67 -29q43 0 69.5 29t26.5 76v215q0 47 -26.5 76.5z" />
    <glyph glyph-name="ydieresis" unicode="&#xff;" horiz-adv-x="353" 
d="M41 -197q-2 3 -2 7v26q0 10 10 10h1q30 1 46.5 12.5t28 42.5t24.5 96q1 2 0.5 3.5t-0.5 2.5l-128 490l-1 3q0 8 10 8h35q9 0 11 -9l99 -417q1 -3 2 -3t2 3l98 417q2 9 11 9l36 -1q5 0 7.5 -3t0.5 -8l-141 -543q-17 -65 -33.5 -96t-40.5 -42t-67 -11h-5q-2 0 -4 3z
M212 619q-14 14 -14 36t14 36t36 14t36 -14t14 -36t-14 -36t-36 -14t-36 14zM71 619q-14 14 -14 36t14 36t36 14t36 -14t14 -36t-14 -36t-36 -14t-36 14z" />
    <glyph glyph-name="Amacron" unicode="&#x100;" horiz-adv-x="391" 
d="M325 9l-27 131q0 2 -1.5 3t-3.5 1h-196q-2 0 -3.5 -1t-1.5 -3l-27 -131q-1 -9 -11 -9h-33q-5 0 -7.5 3t-1.5 8l152 680q2 9 11 9h40q10 0 11 -9l153 -680v-2q0 -9 -9 -9h-34q-9 0 -11 9zM106 188h177q3 0 3 4l-89 423q-1 3 -2 3t-2 -3l-90 -423q0 -4 3 -4zM95 805v20
q0 10 10 10h179q10 0 10 -10v-20q0 -10 -10 -10h-179q-10 0 -10 10z" />
    <glyph glyph-name="amacron" unicode="&#x101;" horiz-adv-x="403" 
d="M310.5 466.5q38.5 -45.5 38.5 -121.5v-335q0 -10 -10 -10h-33q-10 0 -10 10v36q0 3 -1.5 3.5t-3.5 -1.5q-37 -56 -116 -56q-53 0 -92 31t-39 109q0 83 46.5 122t123.5 39h78q4 0 4 4v46q0 56 -25 89t-69 33q-34 0 -59.5 -22t-29.5 -57q0 -10 -10 -10l-36 2q-5 0 -7.5 3
t-1.5 7q6 56 47 90t99 34q68 0 106.5 -45.5zM263.5 68q32.5 29 32.5 82v95q0 4 -4 4h-78q-52 0 -83.5 -28.5t-31.5 -84.5q0 -49 24 -73t63 -24q45 0 77.5 29zM102 609v20q0 10 10 10h179q10 0 10 -10v-20q0 -10 -10 -10h-179q-10 0 -10 10z" />
    <glyph glyph-name="Abreve" unicode="&#x102;" horiz-adv-x="391" 
d="M325 9l-27 131q0 2 -1.5 3t-3.5 1h-196q-2 0 -3.5 -1t-1.5 -3l-27 -131q-1 -9 -11 -9h-33q-5 0 -7.5 3t-1.5 8l152 680q2 9 11 9h40q10 0 11 -9l153 -680v-2q0 -9 -9 -9h-34q-9 0 -11 9zM106 188h177q3 0 3 4l-89 423q-1 3 -2 3t-2 -3l-90 -423q0 -4 3 -4zM126.5 782
q-28.5 26 -32.5 66q0 10 10 10h15q10 0 11 -10q3 -26 21.5 -43t43.5 -17t43.5 17t21.5 43q1 10 11 10h15q10 0 10 -10q-4 -40 -32 -66t-69 -26q-40 0 -68.5 26z" />
    <glyph glyph-name="abreve" unicode="&#x103;" horiz-adv-x="403" 
d="M310.5 466.5q38.5 -45.5 38.5 -121.5v-335q0 -10 -10 -10h-33q-10 0 -10 10v36q0 3 -1.5 3.5t-3.5 -1.5q-37 -56 -116 -56q-53 0 -92 31t-39 109q0 83 46.5 122t123.5 39h78q4 0 4 4v46q0 56 -25 89t-69 33q-34 0 -59.5 -22t-29.5 -57q0 -10 -10 -10l-36 2q-5 0 -7.5 3
t-1.5 7q6 56 47 90t99 34q68 0 106.5 -45.5zM263.5 68q32.5 29 32.5 82v95q0 4 -4 4h-78q-52 0 -83.5 -28.5t-31.5 -84.5q0 -49 24 -73t63 -24q45 0 77.5 29zM132.5 586q-28.5 26 -32.5 66q0 10 10 10h15q10 0 11 -10q3 -26 21.5 -43t43.5 -17t43.5 17t21.5 43q1 10 11 10
h15q10 0 10 -10q-4 -40 -32 -66t-69 -26q-40 0 -68.5 26z" />
    <glyph glyph-name="Aogonek" unicode="&#x104;" horiz-adv-x="391" 
d="M325 9l-27 131q0 2 -1.5 3t-3.5 1h-196q-2 0 -3.5 -1t-1.5 -3l-27 -131q-1 -9 -11 -9h-33q-5 0 -7.5 3t-1.5 8l152 680q2 9 11 9h40q10 0 11 -9l153 -680v-2q0 -9 -9 -9h-34q-9 0 -11 9zM106 188h177q3 0 3 4l-89 423q-1 3 -2 3t-2 -3l-90 -423q0 -4 3 -4zM397 -173
q0 -7 -7 -8q-12 -3 -27 -3q-31 0 -53.5 18.5t-22.5 62.5q0 53 46 96l4 4q3 3 10 3h17q7 0 8.5 -3.5t-3.5 -8.5q-42 -44 -42 -87q0 -30 15 -41.5t39 -8.5q3 0 4 1q8 0 10 -8l2 -14v-3z" />
    <glyph glyph-name="aogonek" unicode="&#x105;" horiz-adv-x="403" 
d="M354 -148q6 0 8 -8l2 -14v-3q0 -7 -7 -8q-12 -3 -27 -3q-32 0 -54 18.5t-22 62.5q0 55 49 99q2 3 4 4h-1q-10 0 -10 10v36q0 3 -1.5 3.5t-3.5 -1.5q-37 -56 -116 -56q-53 0 -92 31t-39 109q0 83 46.5 122t123.5 39h78q4 0 4 4v46q0 56 -25 89t-69 33q-34 0 -59.5 -22
t-29.5 -57q0 -10 -10 -10l-36 2q-5 0 -7.5 3t-1.5 7q6 56 47 90t99 34q68 0 106.5 -45.5t38.5 -121.5v-338v-7l-3 -2q-52 -48 -52 -97q0 -51 44 -51q8 0 12 1zM263.5 68q32.5 29 32.5 82v95q0 4 -4 4h-78q-52 0 -83.5 -28.5t-31.5 -84.5q0 -49 24 -73t63 -24q45 0 77.5 29z
" />
    <glyph glyph-name="Cacute" unicode="&#x106;" horiz-adv-x="441" 
d="M105.5 37.5q-44.5 45.5 -44.5 121.5v384q0 75 44.5 120t117.5 45q74 0 118.5 -45t44.5 -120v-19q0 -5 -3 -8t-7 -3l-33 -2q-10 0 -10 10v25q0 52 -30 83.5t-80 31.5q-49 0 -79 -31.5t-30 -83.5v-391q0 -52 30 -84t79 -32t79.5 32t30.5 84v23q0 10 10 10l33 -2
q10 0 10 -10v-17q0 -76 -44.5 -121.5t-118.5 -45.5q-73 0 -117.5 45.5zM186 770.5q-2 3.5 1 8.5l62 110q5 7 12 7h27q6 0 8 -3.5t-1 -8.5l-69 -110q-5 -7 -12 -7h-20q-6 0 -8 3.5z" />
    <glyph glyph-name="cacute" unicode="&#x107;" horiz-adv-x="394" 
d="M95.5 33.5q-40.5 41.5 -40.5 108.5v220q0 66 41 108t107 42q44 0 78 -18.5t52.5 -49t18.5 -66.5v-6q0 -10 -10 -10l-33 -2q-10 0 -10 10v6q0 36 -27 62.5t-69 26.5t-68.5 -29.5t-26.5 -76.5v-215q0 -46 26.5 -75.5t68.5 -29.5t69 26.5t27 62.5v5q0 10 10 10h33
q10 0 10 -10v-8q0 -36 -18.5 -66.5t-52.5 -48.5t-78 -18q-67 0 -107.5 41.5zM166 574.5q-2 3.5 1 8.5l62 110q5 7 12 7h27q6 0 8 -3.5t-1 -8.5l-69 -110q-5 -7 -12 -7h-20q-6 0 -8 3.5z" />
    <glyph glyph-name="Ccircumflex" unicode="&#x108;" horiz-adv-x="441" 
d="M105.5 37.5q-44.5 45.5 -44.5 121.5v384q0 75 44.5 120t117.5 45q74 0 118.5 -45t44.5 -120v-19q0 -5 -3 -8t-7 -3l-33 -2q-10 0 -10 10v25q0 52 -30 83.5t-80 31.5q-49 0 -79 -31.5t-30 -83.5v-391q0 -52 30 -84t79 -32t79.5 32t30.5 84v23q0 10 10 10l33 -2
q10 0 10 -10v-17q0 -76 -44.5 -121.5t-118.5 -45.5q-73 0 -117.5 45.5zM122.5 778.5q-1.5 3.5 1.5 8.5l65 102q5 7 12 7h42q7 0 12 -7l67 -102q2 -4 2 -6q0 -6 -8 -6h-31q-7 0 -12 7l-47 76q-1 2 -3 2t-3 -2l-47 -76q-5 -7 -12 -7h-31q-6 0 -7.5 3.5z" />
    <glyph glyph-name="ccircumflex" unicode="&#x109;" horiz-adv-x="394" 
d="M95.5 33.5q-40.5 41.5 -40.5 108.5v220q0 66 41 108t107 42q44 0 78 -18.5t52.5 -49t18.5 -66.5v-6q0 -10 -10 -10l-33 -2q-10 0 -10 10v6q0 36 -27 62.5t-69 26.5t-68.5 -29.5t-26.5 -76.5v-215q0 -46 26.5 -75.5t68.5 -29.5t69 26.5t27 62.5v5q0 10 10 10h33
q10 0 10 -10v-8q0 -36 -18.5 -66.5t-52.5 -48.5t-78 -18q-67 0 -107.5 41.5zM102.5 582.5q-1.5 3.5 1.5 8.5l65 102q5 7 12 7h42q7 0 12 -7l67 -102q2 -4 2 -6q0 -6 -8 -6h-31q-7 0 -12 7l-47 76q-1 2 -3 2t-3 -2l-47 -76q-5 -7 -12 -7h-31q-6 0 -7.5 3.5z" />
    <glyph glyph-name="Cdotaccent" unicode="&#x10a;" horiz-adv-x="441" 
d="M105.5 37.5q-44.5 45.5 -44.5 121.5v384q0 75 44.5 120t117.5 45q74 0 118.5 -45t44.5 -120v-19q0 -5 -3 -8t-7 -3l-33 -2q-10 0 -10 10v25q0 52 -30 83.5t-80 31.5q-49 0 -79 -31.5t-30 -83.5v-391q0 -52 30 -84t79 -32t79.5 32t30.5 84v23q0 10 10 10l33 -2
q10 0 10 -10v-17q0 -76 -44.5 -121.5t-118.5 -45.5q-73 0 -117.5 45.5zM187 815q-14 14 -14 36t14 36t36 14t36 -14t14 -36t-14 -36t-36 -14t-36 14z" />
    <glyph glyph-name="cdotaccent" unicode="&#x10b;" horiz-adv-x="394" 
d="M95.5 33.5q-40.5 41.5 -40.5 108.5v220q0 66 41 108t107 42q44 0 78 -18.5t52.5 -49t18.5 -66.5v-6q0 -10 -10 -10l-33 -2q-10 0 -10 10v6q0 36 -27 62.5t-69 26.5t-68.5 -29.5t-26.5 -76.5v-215q0 -46 26.5 -75.5t68.5 -29.5t69 26.5t27 62.5v5q0 10 10 10h33
q10 0 10 -10v-8q0 -36 -18.5 -66.5t-52.5 -48.5t-78 -18q-67 0 -107.5 41.5zM167 619q-14 14 -14 36t14 36t36 14t36 -14t14 -36t-14 -36t-36 -14t-36 14z" />
    <glyph glyph-name="Ccaron" unicode="&#x10c;" horiz-adv-x="441" 
d="M105.5 37.5q-44.5 45.5 -44.5 121.5v384q0 75 44.5 120t117.5 45q74 0 118.5 -45t44.5 -120v-19q0 -5 -3 -8t-7 -3l-33 -2q-10 0 -10 10v25q0 52 -30 83.5t-80 31.5q-49 0 -79 -31.5t-30 -83.5v-391q0 -52 30 -84t79 -32t79.5 32t30.5 84v23q0 10 10 10l33 -2
q10 0 10 -10v-17q0 -76 -44.5 -121.5t-118.5 -45.5q-73 0 -117.5 45.5zM123 890q0 6 8 6h31q7 0 12 -7l47 -76q1 -1 3 -1t3 1l47 76q5 7 12 7h31q6 0 7.5 -3.5t-1.5 -8.5l-67 -102q-5 -7 -12 -7h-42q-7 0 -12 7l-65 102q-2 4 -2 6z" />
    <glyph glyph-name="ccaron" unicode="&#x10d;" horiz-adv-x="394" 
d="M95.5 33.5q-40.5 41.5 -40.5 108.5v220q0 66 41 108t107 42q44 0 78 -18.5t52.5 -49t18.5 -66.5v-6q0 -10 -10 -10l-33 -2q-10 0 -10 10v6q0 36 -27 62.5t-69 26.5t-68.5 -29.5t-26.5 -76.5v-215q0 -46 26.5 -75.5t68.5 -29.5t69 26.5t27 62.5v5q0 10 10 10h33
q10 0 10 -10v-8q0 -36 -18.5 -66.5t-52.5 -48.5t-78 -18q-67 0 -107.5 41.5zM104 694q0 6 8 6h31q7 0 12 -7l47 -76q1 -1 3 -1t3 1l47 76q5 7 12 7h31q6 0 7.5 -3.5t-1.5 -8.5l-67 -102q-5 -7 -12 -7h-42q-7 0 -12 7l-65 102q-2 4 -2 6z" />
    <glyph glyph-name="Dcaron" unicode="&#x10e;" horiz-adv-x="463" 
d="M79 10v680q0 10 10 10h147q74 0 117 -49.5t43 -134.5v-332q0 -85 -43 -134.5t-117 -49.5h-147q-10 0 -10 10zM136 47h100q49 1 77.5 37.5t28.5 100.5v329q0 65 -28.5 102t-78.5 37h-99q-4 0 -4 -4v-598q0 -4 4 -4zM129 888q0 6 8 6h31q7 0 12 -7l47 -76q1 -1 3 -1t3 1
l47 76q5 7 12 7h31q6 0 7.5 -3.5t-1.5 -8.5l-67 -102q-5 -7 -12 -7h-42q-7 0 -12 7l-65 102q-2 4 -2 6z" />
    <glyph glyph-name="dcaron" unicode="&#x10f;" horiz-adv-x="417" 
d="M307 700h33q10 0 10 -10v-680q0 -10 -10 -10h-33q-10 0 -10 10v28q0 2 -1.5 2.5t-3.5 -1.5q-18 -23 -44 -35t-56 -12q-62 0 -99.5 41.5t-37.5 107.5v221q0 67 37.5 108.5t99.5 41.5q30 0 56 -12t44 -35q2 -2 3.5 -1.5t1.5 2.5v224q0 10 10 10zM271 68q26 29 26 76v215
q0 47 -26 76.5t-67 29.5q-43 0 -70 -29.5t-27 -76.5v-215q0 -46 27 -75.5t70 -29.5q41 0 67 29zM417 574.5q-2 3.5 1 8.5l62 110q5 7 12 7h27q6 0 8 -3.5t-1 -8.5l-69 -110q-5 -7 -12 -7h-20q-6 0 -8 3.5z" />
    <glyph glyph-name="Dcroat" unicode="&#x110;" horiz-adv-x="509" 
d="M399 650.5q43 -49.5 43 -134.5v-332q0 -85 -43 -134.5t-117 -49.5h-147q-10 0 -10 10v333q0 4 -4 4h-32q-10 0 -10 10v17q0 10 10 10h32q4 0 4 4v302q0 10 10 10h147q74 0 117 -49.5zM389 514q0 64 -28.5 101.5t-78.5 37.5h-100q-4 0 -4 -4v-261q0 -4 4 -4h85
q10 0 10 -10v-17q0 -10 -10 -10h-85q-4 0 -4 -4v-292q0 -4 4 -4h100q49 1 77.5 37.5t29.5 100.5v329z" />
    <glyph glyph-name="dcroat" unicode="&#x111;" horiz-adv-x="417" 
d="M400 598v-17q0 -10 -10 -10h-36q-4 0 -4 -4v-557q0 -10 -10 -10h-33q-10 0 -10 10v28q0 2 -1.5 2.5t-3.5 -1.5q-18 -23 -44 -35t-56 -12q-62 0 -99.5 41.5t-37.5 107.5v221q0 67 37.5 108.5t99.5 41.5q30 0 56 -12t44 -35q2 -2 3.5 -1.5t1.5 2.5v101q0 4 -4 4h-145
q-10 0 -10 10v17q0 10 10 10h145q4 0 4 4v78q0 10 10 10h33q10 0 10 -10v-78q0 -4 4 -4h36q10 0 10 -10zM271 68q26 29 26 76v215q0 47 -26 76.5t-67 29.5q-43 0 -70 -29.5t-27 -76.5v-215q0 -46 27 -75.5t70 -29.5q41 0 67 29z" />
    <glyph glyph-name="Emacron" unicode="&#x112;" horiz-adv-x="427" 
d="M373 653h-237q-4 0 -4 -4v-271q0 -4 4 -4h152q10 0 10 -10v-27q0 -10 -10 -10h-152q-4 0 -4 -4v-272q0 -4 4 -4h237q10 0 10 -10v-27q0 -10 -10 -10h-284q-10 0 -10 10v680q0 10 10 10h284q10 0 10 -10v-27q0 -10 -10 -10zM131 805v20q0 10 10 10h179q10 0 10 -10v-20
q0 -10 -10 -10h-179q-10 0 -10 10z" />
    <glyph glyph-name="emacron" unicode="&#x113;" horiz-adv-x="401" 
d="M342 233h-230q-4 0 -4 -4v-85q0 -46 26.5 -75.5t68.5 -29.5q35 0 60 21t33 55q3 9 11 9l32 -2q4 0 7 -2t2 -6v-4q-10 -55 -48 -86.5t-97 -31.5q-66 0 -107 41.5t-41 107.5v221q0 66 41 108t107 42q67 0 108 -42t41 -108v-119q0 -10 -10 -10zM134.5 435.5
q-26.5 -29.5 -26.5 -76.5v-76q0 -4 4 -4h183q4 0 4 4v76q0 47 -26.5 76.5t-69.5 29.5q-42 0 -68.5 -29.5zM101 638v20q0 10 10 10h178q10 0 10 -10v-20q0 -10 -10 -10h-178q-10 0 -10 10z" />
    <glyph glyph-name="Edotaccent" unicode="&#x116;" horiz-adv-x="427" 
d="M373 653h-237q-4 0 -4 -4v-271q0 -4 4 -4h152q10 0 10 -10v-27q0 -10 -10 -10h-152q-4 0 -4 -4v-272q0 -4 4 -4h237q10 0 10 -10v-27q0 -10 -10 -10h-284q-10 0 -10 10v680q0 10 10 10h284q10 0 10 -10v-27q0 -10 -10 -10zM195 815q-14 14 -14 36t14 36t36 14t36 -14
t14 -36t-14 -36t-36 -14t-36 14z" />
    <glyph glyph-name="edotaccent" unicode="&#x117;" horiz-adv-x="401" 
d="M342 233h-230q-4 0 -4 -4v-85q0 -46 26.5 -75.5t68.5 -29.5q35 0 60 21t33 55q3 9 11 9l32 -2q4 0 7 -2t2 -6v-4q-10 -55 -48 -86.5t-97 -31.5q-66 0 -107 41.5t-41 107.5v221q0 66 41 108t107 42q67 0 108 -42t41 -108v-119q0 -10 -10 -10zM134.5 435.5
q-26.5 -29.5 -26.5 -76.5v-76q0 -4 4 -4h183q4 0 4 4v76q0 47 -26.5 76.5t-69.5 29.5q-42 0 -68.5 -29.5zM164 619q-14 14 -14 36t14 36t36 14t36 -14t14 -36t-14 -36t-36 -14t-36 14z" />
    <glyph glyph-name="Eogonek" unicode="&#x118;" horiz-adv-x="427" 
d="M373 653h-237q-4 0 -4 -4v-271q0 -4 4 -4h152q10 0 10 -10v-27q0 -10 -10 -10h-152q-4 0 -4 -4v-272q0 -4 4 -4h237q10 0 10 -10v-27q0 -10 -10 -10h-121q-3 0 -5 -2q-46 -46 -46 -91q0 -8 1 -12q4 -39 43 -39q8 0 12 1l4 1q6 0 8 -8l2 -14v-3q0 -7 -7 -8q-14 -3 -28 -3
q-32 0 -53.5 18.5t-21.5 62.5q0 51 41 92q3 5 -2 5h-111q-10 0 -10 10v680q0 10 10 10h284q10 0 10 -10v-27q0 -10 -10 -10z" />
    <glyph glyph-name="eogonek" unicode="&#x119;" horiz-adv-x="401" 
d="M342 233h-230q-4 0 -4 -4v-85q0 -46 26.5 -75.5t68.5 -29.5q35 0 60 21t33 55q3 9 11 9l32 -2q4 0 7 -2t2 -6v-4q-10 -51 -44.5 -82.5t-87.5 -35.5q-3 0 -5 -2q-38 -43 -38 -83q0 -27 12.5 -39t32.5 -12q7 0 11 1l4 1q6 0 8 -8l2 -14v-3q0 -7 -7 -8q-13 -3 -28 -3
q-32 0 -53 18.5t-21 63.5q0 48 35 86q4 4 -2 5q-51 11 -81.5 50t-30.5 96v221q0 66 41 108t107 42q67 0 108 -42t41 -108v-119q0 -10 -10 -10zM134.5 435.5q-26.5 -29.5 -26.5 -76.5v-76q0 -4 4 -4h183q4 0 4 4v76q0 47 -26.5 76.5t-69.5 29.5q-42 0 -68.5 -29.5z" />
    <glyph glyph-name="Ecaron" unicode="&#x11a;" horiz-adv-x="427" 
d="M373 653h-237q-4 0 -4 -4v-271q0 -4 4 -4h152q10 0 10 -10v-27q0 -10 -10 -10h-152q-4 0 -4 -4v-272q0 -4 4 -4h237q10 0 10 -10v-27q0 -10 -10 -10h-284q-10 0 -10 10v680q0 10 10 10h284q10 0 10 -10v-27q0 -10 -10 -10zM132 890q0 6 8 6h31q7 0 12 -7l47 -76
q1 -1 3 -1t3 1l47 76q5 7 12 7h31q6 0 7.5 -3.5t-1.5 -8.5l-67 -102q-5 -7 -12 -7h-42q-7 0 -12 7l-65 102q-2 4 -2 6z" />
    <glyph glyph-name="ecaron" unicode="&#x11b;" horiz-adv-x="401" 
d="M342 233h-230q-4 0 -4 -4v-85q0 -46 26.5 -75.5t68.5 -29.5q35 0 60 21t33 55q3 9 11 9l32 -2q4 0 7 -2t2 -6v-4q-10 -55 -48 -86.5t-97 -31.5q-66 0 -107 41.5t-41 107.5v221q0 66 41 108t107 42q67 0 108 -42t41 -108v-119q0 -10 -10 -10zM134.5 435.5
q-26.5 -29.5 -26.5 -76.5v-76q0 -4 4 -4h183q4 0 4 4v76q0 47 -26.5 76.5t-69.5 29.5q-42 0 -68.5 -29.5zM101 692q0 6 8 6h31q7 0 12 -7l47 -76q1 -1 3 -1t3 1l47 76q5 7 12 7h31q6 0 7.5 -3.5t-1.5 -8.5l-67 -102q-5 -7 -12 -7h-42q-7 0 -12 7l-65 102q-2 4 -2 6z" />
    <glyph glyph-name="Gcircumflex" unicode="&#x11c;" horiz-adv-x="446" 
d="M105.5 36.5q-44.5 44.5 -44.5 117.5v392q0 73 44.5 117.5t117.5 44.5t118 -44.5t45 -117.5v-44q0 -10 -10 -10h-33q-10 0 -10 10v45q0 52 -30 83t-80 31t-80 -31t-30 -83v-394q0 -52 30 -83t80 -31t80 31t30 83v141q0 4 -4 4h-94q-10 0 -10 10v27q0 10 10 10h141
q10 0 10 -10v-181q0 -73 -45 -117.5t-118 -44.5t-117.5 44.5zM122.5 778.5q-1.5 3.5 1.5 8.5l65 102q5 7 12 7h42q7 0 12 -7l67 -102q2 -4 2 -6q0 -6 -8 -6h-31q-7 0 -12 7l-47 76q-1 2 -3 2t-3 -2l-47 -76q-5 -7 -12 -7h-31q-6 0 -7.5 3.5z" />
    <glyph glyph-name="gcircumflex" unicode="&#x11d;" horiz-adv-x="406" 
d="M307 504h34q10 0 10 -10v-488q0 -103 -47 -157t-151 -50q-10 0 -10 10v27q0 10 13 10q76 0 108.5 41t32.5 123v38q0 3 -2 3.5t-3 -2.5q-17 -27 -43.5 -40.5t-58.5 -13.5q-62 0 -98.5 41.5t-36.5 108.5v217q0 67 36.5 108.5t98.5 41.5q32 0 59 -14t43 -40q2 -2 3.5 -2
t1.5 3v35q0 10 10 10zM271 71q26 29 26 76v212q0 47 -26 76.5t-67 29.5q-42 0 -69 -29.5t-27 -76.5v-212q0 -46 27 -75.5t69 -29.5q41 0 67 29zM102.5 582.5q-1.5 3.5 1.5 8.5l65 102q5 7 12 7h42q7 0 12 -7l67 -102q2 -4 2 -6q0 -6 -8 -6h-31q-7 0 -12 7l-47 76q-1 2 -3 2
t-3 -2l-47 -76q-5 -7 -12 -7h-31q-6 0 -7.5 3.5z" />
    <glyph glyph-name="Gbreve" unicode="&#x11e;" horiz-adv-x="446" 
d="M105.5 36.5q-44.5 44.5 -44.5 117.5v392q0 73 44.5 117.5t117.5 44.5t118 -44.5t45 -117.5v-44q0 -10 -10 -10h-33q-10 0 -10 10v45q0 52 -30 83t-80 31t-80 -31t-30 -83v-394q0 -52 30 -83t80 -31t80 31t30 83v141q0 4 -4 4h-94q-10 0 -10 10v27q0 10 10 10h141
q10 0 10 -10v-181q0 -73 -45 -117.5t-118 -44.5t-117.5 44.5zM154.5 782q-28.5 26 -32.5 66q0 10 10 10h15q10 0 11 -10q3 -26 21.5 -43t43.5 -17t43.5 17t21.5 43q1 10 11 10h15q10 0 10 -10q-4 -40 -32 -66t-69 -26q-40 0 -68.5 26z" />
    <glyph glyph-name="gbreve" unicode="&#x11f;" horiz-adv-x="406" 
d="M307 504h34q10 0 10 -10v-488q0 -103 -47 -157t-151 -50q-10 0 -10 10v27q0 10 13 10q76 0 108.5 41t32.5 123v38q0 3 -2 3.5t-3 -2.5q-17 -27 -43.5 -40.5t-58.5 -13.5q-62 0 -98.5 41.5t-36.5 108.5v217q0 67 36.5 108.5t98.5 41.5q32 0 59 -14t43 -40q2 -2 3.5 -2
t1.5 3v35q0 10 10 10zM271 71q26 29 26 76v212q0 47 -26 76.5t-67 29.5q-42 0 -69 -29.5t-27 -76.5v-212q0 -46 27 -75.5t69 -29.5q41 0 67 29zM134.5 586q-28.5 26 -32.5 66q0 10 10 10h15q10 0 11 -10q3 -26 21.5 -43t43.5 -17t43.5 17t21.5 43q1 10 11 10h15q10 0 10 -10
q-4 -40 -32 -66t-69 -26q-40 0 -68.5 26z" />
    <glyph glyph-name="Gdotaccent" unicode="&#x120;" horiz-adv-x="446" 
d="M105.5 36.5q-44.5 44.5 -44.5 117.5v392q0 73 44.5 117.5t117.5 44.5t118 -44.5t45 -117.5v-44q0 -10 -10 -10h-33q-10 0 -10 10v45q0 52 -30 83t-80 31t-80 -31t-30 -83v-394q0 -52 30 -83t80 -31t80 31t30 83v141q0 4 -4 4h-94q-10 0 -10 10v27q0 10 10 10h141
q10 0 10 -10v-181q0 -73 -45 -117.5t-118 -44.5t-117.5 44.5zM187 815q-14 14 -14 36t14 36t36 14t36 -14t14 -36t-14 -36t-36 -14t-36 14z" />
    <glyph glyph-name="gdotaccent" unicode="&#x121;" horiz-adv-x="406" 
d="M307 504h34q10 0 10 -10v-488q0 -103 -47 -157t-151 -50q-10 0 -10 10v27q0 10 13 10q76 0 108.5 41t32.5 123v38q0 3 -2 3.5t-3 -2.5q-17 -27 -43.5 -40.5t-58.5 -13.5q-62 0 -98.5 41.5t-36.5 108.5v217q0 67 36.5 108.5t98.5 41.5q32 0 59 -14t43 -40q2 -2 3.5 -2
t1.5 3v35q0 10 10 10zM271 71q26 29 26 76v212q0 47 -26 76.5t-67 29.5q-42 0 -69 -29.5t-27 -76.5v-212q0 -46 27 -75.5t69 -29.5q41 0 67 29zM167 619q-14 14 -14 36t14 36t36 14t36 -14t14 -36t-14 -36t-36 -14t-36 14z" />
    <glyph glyph-name="uni0122" unicode="&#x122;" horiz-adv-x="446" 
d="M105.5 36.5q-44.5 44.5 -44.5 117.5v392q0 73 44.5 117.5t117.5 44.5t118 -44.5t45 -117.5v-44q0 -10 -10 -10h-33q-10 0 -10 10v45q0 52 -30 83t-80 31t-80 -31t-30 -83v-394q0 -52 30 -83t80 -31t80 31t30 83v141q0 4 -4 4h-94q-10 0 -10 10v27q0 10 10 10h141
q10 0 10 -10v-181q0 -73 -45 -117.5t-118 -44.5t-117.5 44.5zM184 -198.5q-2 3.5 1 8.5l62 110q5 7 12 7h27q6 0 8 -3.5t-1 -8.5l-69 -110q-5 -7 -12 -7h-20q-6 0 -8 3.5z" />
    <glyph glyph-name="uni0123" unicode="&#x123;" horiz-adv-x="406" 
d="M241 694.5q2 -3.5 -1 -8.5l-62 -110q-5 -7 -12 -7h-27q-6 0 -8 3.5t1 8.5l69 110q5 7 12 7h20q6 0 8 -3.5zM307 504h34q10 0 10 -10v-488q0 -103 -47 -157t-151 -50q-10 0 -10 10v27q0 10 13 10q76 0 108.5 41t32.5 123v38q0 3 -2 3.5t-3 -2.5q-17 -27 -43.5 -40.5
t-58.5 -13.5q-62 0 -98.5 41.5t-36.5 108.5v217q0 67 36.5 108.5t98.5 41.5q32 0 59 -14t43 -40q2 -2 3.5 -2t1.5 3v35q0 10 10 10zM271 71q26 29 26 76v212q0 47 -26 76.5t-67 29.5q-42 0 -69 -29.5t-27 -76.5v-212q0 -46 27 -75.5t69 -29.5q41 0 67 29z" />
    <glyph glyph-name="Hcircumflex" unicode="&#x124;" horiz-adv-x="470" 
d="M348 700h33q10 0 10 -10v-680q0 -10 -10 -10h-33q-10 0 -10 10v313q0 4 -4 4h-198q-4 0 -4 -4v-313q0 -10 -10 -10h-33q-10 0 -10 10v680q0 10 10 10h33q10 0 10 -10v-312q0 -4 4 -4h198q4 0 4 4v312q0 10 10 10zM131.5 779.5q-1.5 3.5 1.5 8.5l65 102q5 7 12 7h42
q7 0 12 -7l67 -102q2 -4 2 -6q0 -6 -8 -6h-31q-7 0 -12 7l-47 76q-1 2 -3 2t-3 -2l-47 -76q-5 -7 -12 -7h-31q-6 0 -7.5 3.5z" />
    <glyph glyph-name="hcircumflex" unicode="&#x125;" 
d="M325 470q33 -41 33 -115v-345q0 -10 -10 -10h-33q-10 0 -10 10v340q0 54 -24 84t-67 30q-44 0 -69 -32t-25 -88v-334q0 -10 -10 -10h-33q-10 0 -10 10v680q0 10 10 10h33q10 0 10 -10v-234q0 -3 1.5 -3t3.5 2q34 56 106 56q61 0 94 -41zM112.5 753.5q-1.5 3.5 1.5 8.5
l65 102q5 7 12 7h42q7 0 12 -7l67 -102q2 -4 2 -6q0 -6 -8 -6h-31q-7 0 -12 7l-47 76q-1 2 -3 2t-3 -2l-47 -76q-5 -7 -12 -7h-31q-6 0 -7.5 3.5z" />
    <glyph glyph-name="Hbar" unicode="&#x126;" horiz-adv-x="470" 
d="M439 538v-20q0 -10 -10 -10h-34q-4 0 -4 -4v-494q0 -10 -10 -10h-33q-10 0 -10 10v313q0 4 -4 4h-198q-4 0 -4 -4v-313q0 -10 -10 -10h-33q-10 0 -10 10v494q0 4 -4 4h-34q-10 0 -10 10v20q0 10 10 10h34q4 0 4 4v138q0 10 10 10h33q10 0 10 -10v-138q0 -4 4 -4h198
q4 0 4 4v138q0 10 10 10h33q10 0 10 -10v-138q0 -4 4 -4h34q10 0 10 -10zM338 378v126q0 4 -4 4h-198q-4 0 -4 -4v-126q0 -4 4 -4h198q4 0 4 4z" />
    <glyph glyph-name="hbar" unicode="&#x127;" 
d="M325 470q33 -41 33 -115v-345q0 -10 -10 -10h-33q-10 0 -10 10v340q0 54 -24 84t-67 30q-44 0 -69 -32t-25 -88v-334q0 -10 -10 -10h-33q-10 0 -10 10v541q0 4 -4 4h-42q-10 0 -10 10v18q0 10 10 10h42q4 0 4 4v93q0 10 10 10h33q10 0 10 -10v-93q0 -4 4 -4h138
q10 0 10 -10v-18q0 -10 -10 -10h-138q-4 0 -4 -4v-95q0 -3 1.5 -3t3.5 2q34 56 106 56q61 0 94 -41z" />
    <glyph glyph-name="Itilde" unicode="&#x128;" horiz-adv-x="211" 
d="M79 10v680q0 10 10 10h33q10 0 10 -10v-680q0 -10 -10 -10h-33q-10 0 -10 10zM140.5 815.5q-11.5 5.5 -27.5 16.5q-3 2 -12 8.5t-17 9.5t-16 3q-15 0 -25 -5.5t-21 -21.5q-6 -9 -14 -3l-12 9q-9 5 -4 13q27 48 73 48q15 0 27 -6t29 -17q5 -3 14 -9.5t17 -9.5t16 -3
q13 0 23.5 6.5t20.5 23.5q5 10 14 4l12 -7q4 -3 4 -8t-4 -12q-14 -23 -34 -34t-38 -11q-14 0 -25.5 5.5z" />
    <glyph glyph-name="itilde" unicode="&#x129;" horiz-adv-x="163" 
d="M55 10v484q0 10 10 10h33q10 0 10 -10v-484q0 -10 -10 -10h-33q-10 0 -10 10zM116.5 619.5q-11.5 5.5 -27.5 16.5q-3 2 -12 8.5t-17 9.5t-16 3q-15 0 -25 -5.5t-21 -21.5q-6 -9 -14 -3l-12 9q-9 5 -4 13q27 48 73 48q15 0 27 -6t29 -17q5 -3 14 -9.5t17 -9.5t16 -3
q13 0 23.5 6.5t20.5 23.5q5 10 14 4l12 -7q4 -3 4 -8t-4 -12q-14 -23 -34 -34t-38 -11q-14 0 -25.5 5.5z" />
    <glyph glyph-name="Imacron" unicode="&#x12a;" horiz-adv-x="211" 
d="M79 10v680q0 10 10 10h33q10 0 10 -10v-680q0 -10 -10 -10h-33q-10 0 -10 10zM5 805v20q0 10 10 10h179q10 0 10 -10v-20q0 -10 -10 -10h-179q-10 0 -10 10z" />
    <glyph glyph-name="imacron" unicode="&#x12b;" horiz-adv-x="163" 
d="M55 10v484q0 10 10 10h33q10 0 10 -10v-484q0 -10 -10 -10h-33q-10 0 -10 10zM-18 609v20q0 10 10 10h179q10 0 10 -10v-20q0 -10 -10 -10h-179q-10 0 -10 10z" />
    <glyph glyph-name="ibreve" unicode="&#x12d;" horiz-adv-x="163" 
d="M55 10v484q0 10 10 10h33q10 0 10 -10v-484q0 -10 -10 -10h-33q-10 0 -10 10zM13.5 609.5q-28.5 26.5 -32.5 66.5q0 10 10 10h15q10 0 10 -10q4 -27 22.5 -44t43.5 -17q26 0 44 17t21 44q1 10 11 10h15q5 0 7.5 -3t1.5 -7q-4 -40 -32 -66.5t-68 -26.5t-68.5 26.5z" />
    <glyph glyph-name="Iogonek" unicode="&#x12e;" horiz-adv-x="178" 
d="M64 10v680q0 10 10 10h33q10 0 10 -10v-680q0 -10 -10 -10h-33q-10 0 -10 10zM133 -173q0 -7 -7 -8q-12 -3 -27 -3q-31 0 -53.5 18.5t-22.5 62.5q0 53 46 96l4 4q4 3 10 3h16q6 0 7.5 -4t-2.5 -8q-41 -45 -41 -87q0 -30 15 -41.5t39 -8.5q3 0 5 1q9 0 9 -8l2 -14v-3z" />
    <glyph glyph-name="iogonek" unicode="&#x12f;" horiz-adv-x="224" 
d="M95 10v484q0 10 10 10h33q10 0 10 -10v-484q0 -10 -10 -10h-33q-10 0 -10 10zM86 619q-14 14 -14 36t14 36t36 14t36 -14t14 -36t-14 -36t-36 -14t-36 14zM165 -173q0 -7 -7 -8q-12 -3 -27 -3q-31 0 -53.5 18.5t-22.5 62.5q0 53 46 96l4 4q4 3 10 3h16q6 0 7.5 -4
t-2.5 -8q-41 -45 -41 -87q0 -30 15 -41.5t39 -8.5q3 0 5 1q9 0 9 -8l2 -14v-3z" />
    <glyph glyph-name="Idotaccent" unicode="&#x130;" horiz-adv-x="211" 
d="M79 10v680q0 10 10 10h33q10 0 10 -10v-680q0 -10 -10 -10h-33q-10 0 -10 10zM69 815q-14 14 -14 36t14 36t36 14t36 -14t14 -36t-14 -36t-36 -14t-36 14z" />
    <glyph glyph-name="dotlessi" unicode="&#x131;" horiz-adv-x="163" 
d="M55 10v484q0 10 10 10h33q10 0 10 -10v-484q0 -10 -10 -10h-33q-10 0 -10 10z" />
    <glyph glyph-name="ij" unicode="&#x133;" horiz-adv-x="403" 
d="M66 619q-14 14 -14 36t14 36t36 14t36 -14t14 -36t-14 -36t-36 -14t-36 14zM76 10v484q0 10 10 10h33q10 0 10 -10v-484q0 -10 -10 -10h-33q-10 0 -10 10zM264 619q-14 14 -14 36t14 36t36 14t36 -14t14 -36t-14 -36t-36 -14t-36 14zM184 -199v27q0 10 10 10
q40 2 60 30.5t20 76.5v549q0 10 10 10h33q10 0 10 -10v-549q0 -75 -30 -114t-103 -40q-10 0 -10 10z" />
    <glyph glyph-name="Jcircumflex" unicode="&#x134;" horiz-adv-x="419" 
d="M67.5 37q-43.5 45 -43.5 119v88q0 10 10 10h33q10 0 10 -10v-89q0 -52 29 -84t76 -32t76 32t29 84v535q0 10 10 10h33q10 0 10 -10v-534q0 -74 -43.5 -119t-114.5 -45t-114.5 45zM211.5 779.5q-1.5 3.5 1.5 8.5l65 102q5 7 12 7h42q7 0 12 -7l67 -102q2 -4 2 -6
q0 -6 -8 -6h-31q-7 0 -12 7l-47 76q-1 2 -3 2t-3 -2l-47 -76q-5 -7 -12 -7h-31q-6 0 -7.5 3.5z" />
    <glyph glyph-name="jcircumflex" unicode="&#x135;" horiz-adv-x="193" 
d="M-23 -199v27q0 10 10 10q40 2 60 30.5t20 76.5v549q0 10 10 10h33q10 0 10 -10v-549q0 -75 -30 -114t-103 -40q-10 0 -10 10zM-7.5 582.5q-1.5 3.5 1.5 8.5l65 102q5 7 12 7h42q7 0 12 -7l67 -102q2 -4 2 -6q0 -6 -8 -6h-31q-7 0 -12 7l-47 76q-1 2 -3 2t-3 -2l-47 -76
q-5 -7 -12 -7h-31q-6 0 -7.5 3.5z" />
    <glyph glyph-name="uni0136" unicode="&#x136;" horiz-adv-x="442" 
d="M79 10v680q0 10 10 10h33q10 0 10 -10v-343q0 -3 2 -3.5t3 2.5l209 347q5 7 12 7h38q6 0 8 -3.5t-1 -8.5l-158 -266q-3 -3 -1 -6l175 -404l1 -4q0 -8 -9 -8h-38q-8 0 -11 8l-154 360q-1 4 -5 0l-70 -107q-1 -1 -1 -5v-246q0 -10 -10 -10h-33q-10 0 -10 10zM206 -190.5
q-2 3.5 1 8.5l62 110q5 7 12 7h27q6 0 8 -3.5t-1 -8.5l-69 -110q-5 -7 -12 -7h-20q-6 0 -8 3.5z" />
    <glyph glyph-name="uni0137" unicode="&#x137;" horiz-adv-x="394" 
d="M67 10v680q0 10 10 10h33q10 0 10 -10v-420q0 -2 2 -2.5t3 1.5l165 229q4 6 12 6h35q6 0 8 -3.5t-2 -8.5l-97 -136q-2 -2 -1 -5l117 -340l1 -4q0 -7 -9 -7h-35q-9 0 -12 8l-95 297q-1 6 -6 1l-84 -116q-2 -2 -2 -5v-175q0 -10 -10 -10h-33q-10 0 -10 10zM172 -190.5
q-2 3.5 1 8.5l62 110q5 7 12 7h27q6 0 8 -3.5t-1 -8.5l-69 -110q-5 -7 -12 -7h-20q-6 0 -8 3.5z" />
    <glyph glyph-name="Lacute" unicode="&#x139;" horiz-adv-x="388" 
d="M79 10v680q0 10 10 10h33q10 0 10 -10v-639q0 -4 4 -4h234q10 0 10 -10v-27q0 -10 -10 -10h-281q-10 0 -10 10zM67 770.5q-2 3.5 1 8.5l62 110q5 7 12 7h27q6 0 8 -3.5t-1 -8.5l-69 -110q-5 -7 -12 -7h-20q-6 0 -8 3.5z" />
    <glyph glyph-name="lacute" unicode="&#x13a;" horiz-adv-x="174" 
d="M61 10v680q0 10 10 10h33q10 0 10 -10v-680q0 -10 -10 -10h-33q-10 0 -10 10zM50 770.5q-2 3.5 1 8.5l62 110q5 7 12 7h27q6 0 8 -3.5t-1 -8.5l-69 -110q-5 -7 -12 -7h-20q-6 0 -8 3.5z" />
    <glyph glyph-name="uni013B" unicode="&#x13b;" horiz-adv-x="388" 
d="M79 10v680q0 10 10 10h33q10 0 10 -10v-639q0 -4 4 -4h234q10 0 10 -10v-27q0 -10 -10 -10h-281q-10 0 -10 10zM159 -190.5q-2 3.5 1 8.5l62 110q5 7 12 7h27q6 0 8 -3.5t-1 -8.5l-69 -110q-5 -7 -12 -7h-20q-6 0 -8 3.5z" />
    <glyph glyph-name="uni013C" unicode="&#x13c;" horiz-adv-x="174" 
d="M61 10v680q0 10 10 10h33q10 0 10 -10v-680q0 -10 -10 -10h-33q-10 0 -10 10zM-8 -190.5q-2 3.5 1 8.5l62 110q5 7 12 7h27q6 0 8 -3.5t-1 -8.5l-69 -110q-5 -7 -12 -7h-20q-6 0 -8 3.5z" />
    <glyph glyph-name="Lcaron" unicode="&#x13d;" horiz-adv-x="389" 
d="M79 10v680q0 10 10 10h33q10 0 10 -10v-639q0 -4 4 -4h234q10 0 10 -10v-27q0 -10 -10 -10h-281q-10 0 -10 10zM189 574.5q-2 3.5 1 8.5l62 110q5 7 12 7h27q6 0 8 -3.5t-1 -8.5l-69 -110q-5 -7 -12 -7h-20q-6 0 -8 3.5z" />
    <glyph glyph-name="lcaron" unicode="&#x13e;" horiz-adv-x="311" 
d="M61 10v680q0 10 10 10h33q10 0 10 -10v-680q0 -10 -10 -10h-33q-10 0 -10 10zM159 574.5q-2 3.5 1 8.5l62 110q5 7 12 7h27q6 0 8 -3.5t-1 -8.5l-69 -110q-5 -7 -12 -7h-20q-6 0 -8 3.5z" />
    <glyph glyph-name="ldot" unicode="&#x140;" horiz-adv-x="222" 
d="M85 10v680q0 10 10 10h33q10 0 10 -10v-680q0 -10 -10 -10h-33q-10 0 -10 10zM75 816q-14 14 -14 36t14 36t36 14t36 -14t14 -36t-14 -36t-36 -14t-36 14z" />
    <glyph glyph-name="Lslash" unicode="&#x141;" horiz-adv-x="405" 
d="M153 47h234q10 0 10 -10v-27q0 -10 -10 -10h-281q-10 0 -10 10v247q0 2 -2 3t-3 0l-73 -52q-2 -2 -6 -2q-5 0 -8 4l-15 19q-2 3 -2 7t4 7l102 72q3 3 3 5v370q0 10 10 10h33q10 0 10 -10v-330q0 -2 2 -3t3 0l169 120q2 2 6 2q5 0 8 -4l15 -20q2 -3 2 -7t-4 -7l-198 -139
q-3 -3 -3 -5v-246q0 -4 4 -4z" />
    <glyph glyph-name="lslash" unicode="&#x142;" horiz-adv-x="267" 
d="M246 385q0 -4 -6 -9l-81 -48q-3 -1 -3 -5v-313q0 -10 -10 -10h-33q-10 0 -10 10v278q0 2 -1.5 3t-3.5 0l-49 -29q-4 -2 -6 -2q-5 0 -8 6l-12 19q-2 4 -2 6q0 4 6 8l73 44q3 2 3 5v342q0 10 10 10h33q10 0 10 -10v-307q0 -2 1.5 -3t3.5 0l57 34l5 2q5 0 9 -6l12 -20z" />
    <glyph glyph-name="Nacute" unicode="&#x143;" horiz-adv-x="488" 
d="M367 700h32q10 0 10 -10v-680q0 -10 -10 -10h-39q-8 0 -11 8l-213 560q-1 3 -3 2.5t-2 -3.5l1 -557q0 -10 -10 -10h-33q-10 0 -10 10v680q0 10 10 10h38q8 0 11 -8l214 -557q1 -3 3 -2.5t2 3.5v554q0 10 10 10zM207 778.5q-2 3.5 1 8.5l62 110q5 7 12 7h27q6 0 8 -3.5
t-1 -8.5l-69 -110q-5 -7 -12 -7h-20q-6 0 -8 3.5z" />
    <glyph glyph-name="nacute" unicode="&#x144;" 
d="M325 470q33 -41 33 -115v-345q0 -10 -10 -10h-33q-10 0 -10 10v340q0 54 -24 84t-67 30q-44 0 -69 -32t-25 -88v-334q0 -10 -10 -10h-33q-10 0 -10 10v484q0 10 10 10h33q10 0 10 -10v-38q0 -3 1.5 -3t3.5 2q34 56 106 56q61 0 94 -41zM176 574.5q-2 3.5 1 8.5l62 110
q5 7 12 7h27q6 0 8 -3.5t-1 -8.5l-69 -110q-5 -7 -12 -7h-20q-6 0 -8 3.5z" />
    <glyph glyph-name="uni0145" unicode="&#x145;" horiz-adv-x="488" 
d="M367 700h32q10 0 10 -10v-680q0 -10 -10 -10h-39q-8 0 -11 8l-213 560q-1 3 -3 2.5t-2 -3.5l1 -557q0 -10 -10 -10h-33q-10 0 -10 10v680q0 10 10 10h38q8 0 11 -8l214 -557q1 -3 3 -2.5t2 3.5v554q0 10 10 10zM205 -190.5q-2 3.5 1 8.5l62 110q5 7 12 7h27q6 0 8 -3.5
t-1 -8.5l-69 -110q-5 -7 -12 -7h-20q-6 0 -8 3.5z" />
    <glyph glyph-name="uni0146" unicode="&#x146;" 
d="M325 470q33 -41 33 -115v-345q0 -10 -10 -10h-33q-10 0 -10 10v340q0 54 -24 84t-67 30q-44 0 -69 -32t-25 -88v-334q0 -10 -10 -10h-33q-10 0 -10 10v484q0 10 10 10h33q10 0 10 -10v-38q0 -3 1.5 -3t3.5 2q34 56 106 56q61 0 94 -41zM178 -190.5q-2 3.5 1 8.5l62 110
q5 7 12 7h27q6 0 8 -3.5t-1 -8.5l-69 -110q-5 -7 -12 -7h-20q-6 0 -8 3.5z" />
    <glyph glyph-name="Ncaron" unicode="&#x147;" horiz-adv-x="488" 
d="M367 700h32q10 0 10 -10v-680q0 -10 -10 -10h-39q-8 0 -11 8l-213 560q-1 3 -3 2.5t-2 -3.5l1 -557q0 -10 -10 -10h-33q-10 0 -10 10v680q0 10 10 10h38q8 0 11 -8l214 -557q1 -3 3 -2.5t2 3.5v554q0 10 10 10zM145 898q0 6 8 6h31q7 0 12 -7l47 -76q1 -1 3 -1t3 1l47 76
q5 7 12 7h31q6 0 7.5 -3.5t-1.5 -8.5l-67 -102q-5 -7 -12 -7h-42q-7 0 -12 7l-65 102q-2 4 -2 6z" />
    <glyph glyph-name="ncaron" unicode="&#x148;" 
d="M325 470q33 -41 33 -115v-345q0 -10 -10 -10h-33q-10 0 -10 10v340q0 54 -24 84t-67 30q-44 0 -69 -32t-25 -88v-334q0 -10 -10 -10h-33q-10 0 -10 10v484q0 10 10 10h33q10 0 10 -10v-38q0 -3 1.5 -3t3.5 2q34 56 106 56q61 0 94 -41zM114 694q0 6 8 6h31q7 0 12 -7
l47 -76q1 -1 3 -1t3 1l47 76q5 7 12 7h31q6 0 7.5 -3.5t-1.5 -8.5l-67 -102q-5 -7 -12 -7h-42q-7 0 -12 7l-65 102q-2 4 -2 6z" />
    <glyph glyph-name="Eng" unicode="&#x14a;" horiz-adv-x="488" 
d="M367 700h32q10 0 10 -10v-690q0 -54 -6.5 -83t-30.5 -46.5t-77 -18.5q-10 0 -10 10v27q0 10 10 10q29 1 41 12.5t14.5 29.5t2.5 56v3h-1l-216 568q-1 3 -3 2.5t-2 -3.5l1 -557q0 -10 -10 -10h-33q-10 0 -10 10v680q0 10 10 10h38q8 0 11 -8l210 -547q1 -3 3 -2.5t2 3.5
v353q0 10 2 10t2 4v177q0 10 10 10z" />
    <glyph glyph-name="eng" unicode="&#x14b;" 
d="M358 6v-6l-1 -2v-12q0 -70 -25 -107.5t-95 -38.5q-10 0 -10 10v26q0 10 10 10q37 3 52 28.5t15 71.5v252v4q1 1 1 5v103q0 54 -24 84t-67 30q-44 0 -69 -32t-25 -88v-334q0 -10 -10 -10h-33q-10 0 -10 10v484q0 10 10 10h33q10 0 10 -10v-38q0 -3 1.5 -3t3.5 2
q18 28 45 42t61 14q61 0 94 -41t33 -115v-349z" />
    <glyph glyph-name="Omacron" unicode="&#x14c;" horiz-adv-x="451" 
d="M106.5 38.5q-45.5 46.5 -45.5 121.5v379q0 76 45 122.5t119 46.5t120 -46.5t46 -122.5v-379q0 -75 -46 -121.5t-120 -46.5q-73 0 -118.5 46.5zM306.5 72q31.5 33 31.5 86v383q0 53 -31.5 86.5t-81.5 33.5q-49 0 -80 -33.5t-31 -86.5v-383q0 -53 31 -86t80 -33
q50 0 81.5 33zM125 804v20q0 10 10 10h179q10 0 10 -10v-20q0 -10 -10 -10h-179q-10 0 -10 10z" />
    <glyph glyph-name="omacron" unicode="&#x14d;" horiz-adv-x="407" 
d="M95.5 33.5q-40.5 41.5 -40.5 108.5v220q0 66 41 108t107 42q68 0 109 -41.5t41 -108.5v-220q0 -67 -41 -108.5t-109 -41.5q-67 0 -107.5 41.5zM273 68.5q27 29.5 27 75.5v215q0 47 -27 76.5t-70 29.5q-42 0 -68.5 -29.5t-26.5 -76.5v-215q0 -46 26.5 -75.5t68.5 -29.5
q43 0 70 29.5zM103 609v20q0 10 10 10h179q10 0 10 -10v-20q0 -10 -10 -10h-179q-10 0 -10 10z" />
    <glyph glyph-name="obreve" unicode="&#x14f;" horiz-adv-x="407" 
d="M95.5 33.5q-40.5 41.5 -40.5 108.5v220q0 66 41 108t107 42q68 0 109 -41.5t41 -108.5v-220q0 -67 -41 -108.5t-109 -41.5q-67 0 -107.5 41.5zM273 68.5q27 29.5 27 75.5v215q0 47 -27 76.5t-70 29.5q-42 0 -68.5 -29.5t-26.5 -76.5v-215q0 -46 26.5 -75.5t68.5 -29.5
q43 0 70 29.5zM135.5 609.5q-28.5 26.5 -32.5 66.5q0 10 10 10h15q10 0 10 -10q4 -27 22.5 -44t43.5 -17q26 0 44 17t21 44q1 10 11 10h15q5 0 7.5 -3t1.5 -7q-4 -40 -32 -66.5t-68 -26.5t-68.5 26.5z" />
    <glyph glyph-name="Ohungarumlaut" unicode="&#x150;" horiz-adv-x="451" 
d="M106.5 38.5q-45.5 46.5 -45.5 121.5v379q0 76 45 122.5t119 46.5t120 -46.5t46 -122.5v-379q0 -75 -46 -121.5t-120 -46.5q-73 0 -118.5 46.5zM306.5 72q31.5 33 31.5 86v383q0 53 -31.5 86.5t-81.5 33.5q-49 0 -80 -33.5t-31 -86.5v-383q0 -53 31 -86t80 -33
q50 0 81.5 33zM146.5 769.5q-2.5 3.5 0.5 8.5l60 110q3 7 12 7h27q6 0 8 -3.5t-1 -8.5l-61 -110q-4 -7 -12 -7h-25q-6 0 -8.5 3.5zM264 769.5q-2 3.5 1 8.5l60 110q3 7 12 7h25q6 0 8 -3.5t-1 -8.5l-61 -110q-4 -7 -12 -7h-24q-6 0 -8 3.5z" />
    <glyph glyph-name="ohungarumlaut" unicode="&#x151;" horiz-adv-x="407" 
d="M95.5 33.5q-40.5 41.5 -40.5 108.5v220q0 66 41 108t107 42q68 0 109 -41.5t41 -108.5v-220q0 -67 -41 -108.5t-109 -41.5q-67 0 -107.5 41.5zM273 68.5q27 29.5 27 75.5v215q0 47 -27 76.5t-70 29.5q-42 0 -68.5 -29.5t-26.5 -76.5v-215q0 -46 26.5 -75.5t68.5 -29.5
q43 0 70 29.5zM125.5 574.5q-2.5 3.5 0.5 8.5l60 110q3 7 12 7h27q6 0 8 -3.5t-1 -8.5l-61 -110q-4 -7 -12 -7h-25q-6 0 -8.5 3.5zM243 574.5q-2 3.5 1 8.5l60 110q3 7 12 7h25q6 0 8 -3.5t-1 -8.5l-61 -110q-4 -7 -12 -7h-24q-6 0 -8 3.5z" />
    <glyph glyph-name="OE" unicode="&#x152;" horiz-adv-x="686" 
d="M632 653h-237q-4 0 -4 -4v-271q0 -4 4 -4h152q10 0 10 -10v-27q0 -10 -10 -10h-152q-4 0 -4 -4v-272q0 -4 4 -4h237q10 0 10 -10v-27q0 -10 -10 -10h-284q-10 0 -10 10v34q0 2 -1.5 3t-3.5 -1q-43 -54 -117 -54q-44 0 -79.5 21t-55.5 59.5t-20 87.5v379q0 50 20 88.5
t55.5 59.5t79.5 21q74 0 117 -54q2 -2 3.5 -1t1.5 3v34q0 10 10 10h284q10 0 10 -10v-27q0 -10 -10 -10zM306.5 72q31.5 33 31.5 86v383q0 53 -31.5 86.5t-81.5 33.5q-49 0 -80 -33.5t-31 -86.5v-383q0 -53 31 -86t80 -33q50 0 81.5 33z" />
    <glyph glyph-name="oe" unicode="&#x153;" horiz-adv-x="649" 
d="M591 239h-230q-4 0 -4 -4v-91q0 -46 26.5 -75.5t68.5 -29.5q35 0 60 21t33 55q3 9 11 9l33 -2q5 0 7.5 -3t1.5 -7q-9 -55 -48 -87.5t-98 -32.5q-80 0 -121 70q-3 5 -6 0q-39 -70 -122 -70q-67 0 -107.5 41.5t-40.5 108.5v220q0 66 41 108t107 42q82 0 122 -71q3 -4 6 0
q41 71 121 71q67 0 108 -42t41 -108v-113q0 -10 -10 -10zM273 435.5q-27 29.5 -70 29.5q-42 0 -68.5 -29.5t-26.5 -76.5v-215q0 -46 26.5 -75.5t68.5 -29.5q43 0 70 29t27 76v215q0 47 -27 76.5zM383.5 435.5q-26.5 -29.5 -26.5 -76.5v-78q0 -4 4 -4h183q4 0 4 4v78
q0 47 -26.5 76.5t-69.5 29.5q-42 0 -68.5 -29.5z" />
    <glyph glyph-name="Racute" unicode="&#x154;" horiz-adv-x="436" 
d="M349 8l-110 317q-1 3 -4 3h-99q-4 0 -4 -4v-314q0 -10 -10 -10h-33q-10 0 -10 10v680q0 10 10 10h155q70 0 113 -52t43 -136q0 -67 -29 -114t-79 -64q-4 -1 -3 -5l113 -318l1 -4q0 -7 -9 -7h-33q-9 0 -12 8zM132 649v-273q0 -4 4 -4h102q49 0 79 38.5t30 101.5
q0 64 -30 102.5t-79 38.5h-102q-4 0 -4 -4zM185 770.5q-2 3.5 1 8.5l62 110q5 7 12 7h27q6 0 8 -3.5t-1 -8.5l-69 -110q-5 -7 -12 -7h-20q-6 0 -8 3.5z" />
    <glyph glyph-name="racute" unicode="&#x155;" horiz-adv-x="284" 
d="M265 498q7 -4 5 -13l-8 -34q-3 -9 -13 -5q-16 6 -39 5q-40 -1 -65 -40t-25 -96v-305q0 -10 -10 -10h-33q-10 0 -10 10v484q0 10 10 10h33q10 0 10 -10v-62q0 -3 2 -3t3 3q14 36 38.5 56t58.5 20q25 0 43 -10zM134 574.5q-2 3.5 1 8.5l62 110q5 7 12 7h27q6 0 8 -3.5
t-1 -8.5l-69 -110q-5 -7 -12 -7h-20q-6 0 -8 3.5z" />
    <glyph glyph-name="uni0156" unicode="&#x156;" horiz-adv-x="436" 
d="M349 8l-110 317q-1 3 -4 3h-99q-4 0 -4 -4v-314q0 -10 -10 -10h-33q-10 0 -10 10v680q0 10 10 10h155q70 0 113 -52t43 -136q0 -67 -29 -114t-79 -64q-4 -1 -3 -5l113 -318l1 -4q0 -7 -9 -7h-33q-9 0 -12 8zM132 649v-273q0 -4 4 -4h102q49 0 79 38.5t30 101.5
q0 64 -30 102.5t-79 38.5h-102q-4 0 -4 -4zM195 -190.5q-2 3.5 1 8.5l62 110q5 7 12 7h27q6 0 8 -3.5t-1 -8.5l-69 -110q-5 -7 -12 -7h-20q-6 0 -8 3.5z" />
    <glyph glyph-name="uni0157" unicode="&#x157;" horiz-adv-x="284" 
d="M265 498q7 -4 5 -13l-8 -34q-3 -9 -13 -5q-16 6 -39 5q-40 -1 -65 -40t-25 -96v-305q0 -10 -10 -10h-33q-10 0 -10 10v484q0 10 10 10h33q10 0 10 -10v-62q0 -3 2 -3t3 3q14 36 38.5 56t58.5 20q25 0 43 -10zM-2 -190.5q-2 3.5 1 8.5l62 110q5 7 12 7h27q6 0 8 -3.5
t-1 -8.5l-69 -110q-5 -7 -12 -7h-20q-6 0 -8 3.5z" />
    <glyph glyph-name="Rcaron" unicode="&#x158;" horiz-adv-x="436" 
d="M349 8l-110 317q-1 3 -4 3h-99q-4 0 -4 -4v-314q0 -10 -10 -10h-33q-10 0 -10 10v680q0 10 10 10h155q70 0 113 -52t43 -136q0 -67 -29 -114t-79 -64q-4 -1 -3 -5l113 -318l1 -4q0 -7 -9 -7h-33q-9 0 -12 8zM132 649v-273q0 -4 4 -4h102q49 0 79 38.5t30 101.5
q0 64 -30 102.5t-79 38.5h-102q-4 0 -4 -4zM123 890q0 6 8 6h31q7 0 12 -7l47 -76q1 -1 3 -1t3 1l47 76q5 7 12 7h31q6 0 7.5 -3.5t-1.5 -8.5l-67 -102q-5 -7 -12 -7h-42q-7 0 -12 7l-65 102q-2 4 -2 6z" />
    <glyph glyph-name="rcaron" unicode="&#x159;" horiz-adv-x="284" 
d="M265 498q7 -4 5 -13l-8 -34q-3 -9 -13 -5q-16 6 -39 5q-40 -1 -65 -40t-25 -96v-305q0 -10 -10 -10h-33q-10 0 -10 10v484q0 10 10 10h33q10 0 10 -10v-62q0 -3 2 -3t3 3q14 36 38.5 56t58.5 20q25 0 43 -10zM72 694q0 6 8 6h31q7 0 12 -7l47 -76q1 -1 3 -1t3 1l47 76
q5 7 12 7h31q6 0 7.5 -3.5t-1.5 -8.5l-67 -102q-5 -7 -12 -7h-42q-7 0 -12 7l-65 102q-2 4 -2 6z" />
    <glyph glyph-name="Sacute" unicode="&#x15a;" horiz-adv-x="409" 
d="M89 40.5q-44 48.5 -44 126.5v21q0 10 10 10h32q10 0 10 -10v-19q0 -59 29.5 -95t76.5 -36t78 35t31 91q0 37 -14.5 64t-37 46.5t-73.5 58.5q-52 39 -79.5 64.5t-45.5 61t-18 84.5q0 77 43 121t111 44q73 0 117 -49t44 -129v-25q0 -10 -10 -10h-33q-10 0 -10 10v25
q0 59 -29.5 95.5t-78.5 36.5q-44 0 -73 -31.5t-29 -88.5q0 -34 12.5 -59t36 -47t71.5 -58q59 -44 88 -71t44.5 -59t15.5 -77q0 -82 -44.5 -130.5t-115.5 -48.5t-115 48.5zM161 770.5q-2 3.5 1 8.5l62 110q5 7 12 7h27q6 0 8 -3.5t-1 -8.5l-69 -110q-5 -7 -12 -7h-20
q-6 0 -8 3.5z" />
    <glyph glyph-name="sacute" unicode="&#x15b;" horiz-adv-x="365" 
d="M85.5 30.5q-39.5 35.5 -39.5 91.5v6q0 10 10 10h31q10 0 10 -10v-6q0 -36 26 -60t67 -24q40 0 64.5 24.5t24.5 63.5q0 29 -14 48t-35 30.5t-57 26.5q-39 16 -64 31.5t-42.5 43t-17.5 69.5q0 61 38 97t101 36q64 0 102 -37t38 -96v-3q0 -10 -10 -10h-30q-10 0 -10 10v5
q0 37 -25 62t-65 25t-64 -24.5t-24 -63.5q0 -27 13 -45t32.5 -29t54.5 -27q41 -17 67.5 -32.5t45.5 -43.5t19 -71q0 -60 -39 -96.5t-103 -36.5q-65 0 -104.5 35.5zM150 574.5q-2 3.5 1 8.5l62 110q5 7 12 7h27q6 0 8 -3.5t-1 -8.5l-69 -110q-5 -7 -12 -7h-20q-6 0 -8 3.5z
" />
    <glyph glyph-name="Scircumflex" unicode="&#x15c;" horiz-adv-x="409" 
d="M89 40.5q-44 48.5 -44 126.5v21q0 10 10 10h32q10 0 10 -10v-19q0 -59 29.5 -95t76.5 -36t78 35t31 91q0 37 -14.5 64t-37 46.5t-73.5 58.5q-52 39 -79.5 64.5t-45.5 61t-18 84.5q0 77 43 121t111 44q73 0 117 -49t44 -129v-25q0 -10 -10 -10h-33q-10 0 -10 10v25
q0 59 -29.5 95.5t-78.5 36.5q-44 0 -73 -31.5t-29 -88.5q0 -34 12.5 -59t36 -47t71.5 -58q59 -44 88 -71t44.5 -59t15.5 -77q0 -82 -44.5 -130.5t-115.5 -48.5t-115 48.5zM97.5 778.5q-1.5 3.5 1.5 8.5l65 102q5 7 12 7h42q7 0 12 -7l67 -102q2 -4 2 -6q0 -6 -8 -6h-31
q-7 0 -12 7l-47 76q-1 2 -3 2t-3 -2l-47 -76q-5 -7 -12 -7h-31q-6 0 -7.5 3.5z" />
    <glyph glyph-name="scircumflex" unicode="&#x15d;" horiz-adv-x="365" 
d="M85.5 30.5q-39.5 35.5 -39.5 91.5v6q0 10 10 10h31q10 0 10 -10v-6q0 -36 26 -60t67 -24q40 0 64.5 24.5t24.5 63.5q0 29 -14 48t-35 30.5t-57 26.5q-39 16 -64 31.5t-42.5 43t-17.5 69.5q0 61 38 97t101 36q64 0 102 -37t38 -96v-3q0 -10 -10 -10h-30q-10 0 -10 10v5
q0 37 -25 62t-65 25t-64 -24.5t-24 -63.5q0 -27 13 -45t32.5 -29t54.5 -27q41 -17 67.5 -32.5t45.5 -43.5t19 -71q0 -60 -39 -96.5t-103 -36.5q-65 0 -104.5 35.5zM86.5 582.5q-1.5 3.5 1.5 8.5l65 102q5 7 12 7h42q7 0 12 -7l67 -102q2 -4 2 -6q0 -6 -8 -6h-31q-7 0 -12 7
l-47 76q-1 2 -3 2t-3 -2l-47 -76q-5 -7 -12 -7h-31q-6 0 -7.5 3.5z" />
    <glyph glyph-name="Scedilla" unicode="&#x15e;" horiz-adv-x="409" 
d="M327.5 50q-36.5 -47 -96.5 -56q-5 -2 -2 -5q42 -42 42 -92q0 -44 -22 -63t-54 -19q-15 0 -27 3q-9 1 -7 12l2 14q1 5 4.5 6.5t7.5 0.5q5 -1 13 -1q43 0 43 51q0 44 -46 90q-2 2 -5 2q-61 9 -98 56t-37 118v21q0 10 10 10h32q10 0 10 -10v-19q0 -59 29.5 -95t76.5 -36
t78 35t31 91q0 37 -14.5 64t-37 46.5t-73.5 58.5q-52 39 -79.5 64.5t-45.5 61t-18 84.5q0 77 43 121t111 44q73 0 117 -49t44 -129v-25q0 -10 -10 -10h-33q-10 0 -10 10v25q0 59 -29.5 95.5t-78.5 36.5q-44 0 -73 -31.5t-29 -88.5q0 -34 12.5 -59t36 -47t71.5 -58
q59 -44 88 -71t44.5 -59t15.5 -77q0 -74 -36.5 -121z" />
    <glyph glyph-name="scedilla" unicode="&#x15f;" horiz-adv-x="365" 
d="M301.5 40q-30.5 -35 -83.5 -43q-5 -2 -2 -5q42 -42 42 -92q0 -44 -21.5 -63t-53.5 -19q-10 0 -28 4q-8 1 -7 11l2 14q1 5 4.5 6.5t7.5 0.5t13 -1q19 0 31 12.5t12 38.5q0 44 -46 90q-2 2 -5 2q-55 6 -88 40.5t-33 85.5v6q0 10 10 10h31q10 0 10 -10v-6q0 -36 26 -60
t67 -24q40 0 64.5 24.5t24.5 63.5q0 29 -14 48t-35 30.5t-57 26.5q-39 16 -64 31.5t-42.5 43t-17.5 69.5q0 61 38 97t101 36q64 0 102 -37t38 -96v-3q0 -10 -10 -10h-30q-10 0 -10 10v5q0 37 -25 62t-65 25t-64 -24.5t-24 -63.5q0 -27 13 -45t32.5 -29t54.5 -27
q41 -17 67.5 -32.5t45.5 -43.5t19 -71q0 -53 -30.5 -88z" />
    <glyph glyph-name="Scaron" unicode="&#x160;" horiz-adv-x="409" 
d="M89 40.5q-44 48.5 -44 126.5v21q0 10 10 10h32q10 0 10 -10v-19q0 -59 29.5 -95t76.5 -36t78 35t31 91q0 37 -14.5 64t-37 46.5t-73.5 58.5q-52 39 -79.5 64.5t-45.5 61t-18 84.5q0 77 43 121t111 44q73 0 117 -49t44 -129v-25q0 -10 -10 -10h-33q-10 0 -10 10v25
q0 59 -29.5 95.5t-78.5 36.5q-44 0 -73 -31.5t-29 -88.5q0 -34 12.5 -59t36 -47t71.5 -58q59 -44 88 -71t44.5 -59t15.5 -77q0 -82 -44.5 -130.5t-115.5 -48.5t-115 48.5zM99 890q0 6 8 6h31q7 0 12 -7l47 -76q1 -1 3 -1t3 1l47 76q5 7 12 7h31q6 0 7.5 -3.5t-1.5 -8.5
l-67 -102q-5 -7 -12 -7h-42q-7 0 -12 7l-65 102q-2 4 -2 6z" />
    <glyph glyph-name="scaron" unicode="&#x161;" horiz-adv-x="365" 
d="M85.5 30.5q-39.5 35.5 -39.5 91.5v6q0 10 10 10h31q10 0 10 -10v-6q0 -36 26 -60t67 -24q40 0 64.5 24.5t24.5 63.5q0 29 -14 48t-35 30.5t-57 26.5q-39 16 -64 31.5t-42.5 43t-17.5 69.5q0 61 38 97t101 36q64 0 102 -37t38 -96v-3q0 -10 -10 -10h-30q-10 0 -10 10v5
q0 37 -25 62t-65 25t-64 -24.5t-24 -63.5q0 -27 13 -45t32.5 -29t54.5 -27q41 -17 67.5 -32.5t45.5 -43.5t19 -71q0 -60 -39 -96.5t-103 -36.5q-65 0 -104.5 35.5zM88 694q0 6 8 6h31q7 0 12 -7l47 -76q1 -1 3 -1t3 1l47 76q5 7 12 7h31q6 0 7.5 -3.5t-1.5 -8.5l-67 -102
q-5 -7 -12 -7h-42q-7 0 -12 7l-65 102q-2 4 -2 6z" />
    <glyph glyph-name="uni0162" unicode="&#x162;" horiz-adv-x="411" 
d="M375 690v-27q0 -10 -10 -10h-133q-4 0 -4 -4v-639q0 -10 -10 -10h-33q-10 0 -10 10v639q0 4 -4 4h-125q-10 0 -10 10v27q0 10 10 10h319q10 0 10 -10zM171 -169l3 13q1 10 12 7q4 -1 11 -1q20 0 32.5 12.5t12.5 39.5q0 42 -42 86q-3 3 -3 6q0 6 8 6h16q7 0 10 -3l4 -4
q46 -41 46 -95q0 -44 -22 -63t-54 -19q-15 0 -27 3q-9 1 -7 12z" />
    <glyph glyph-name="uni0163" unicode="&#x163;" horiz-adv-x="261" 
d="M220 462h-80q-4 0 -4 -4v-322q0 -50 17 -69.5t54 -19.5h10q10 0 10 -10v-27q0 -10 -10 -10h-23q-5 0 -2 -5q31 -37 31 -80t-21.5 -62t-53.5 -19q-10 0 -28 4q-8 1 -7 11l2 14q1 5 4.5 6.5t7.5 0.5t13 -1q19 0 31 12t12 38q0 45 -43 88l-4 3q-26 12 -39 39t-13 74v335
q0 4 -4 4h-41q-10 0 -10 10v22q0 10 10 10h41q4 0 4 4v112q0 10 10 10h32q10 0 10 -10v-112q0 -4 4 -4h80q10 0 10 -10v-22q0 -10 -10 -10z" />
    <glyph glyph-name="Tcaron" unicode="&#x164;" horiz-adv-x="411" 
d="M375 690v-27q0 -10 -10 -10h-133q-4 0 -4 -4v-639q0 -10 -10 -10h-33q-10 0 -10 10v639q0 4 -4 4h-125q-10 0 -10 10v27q0 10 10 10h319q10 0 10 -10zM104 888q0 6 8 6h31q7 0 12 -7l47 -76q1 -1 3 -1t3 1l47 76q5 7 12 7h31q6 0 7.5 -3.5t-1.5 -8.5l-67 -102
q-5 -7 -12 -7h-42q-7 0 -12 7l-65 102q-2 4 -2 6z" />
    <glyph glyph-name="tcaron" unicode="&#x165;" horiz-adv-x="261" 
d="M220 462h-80q-4 0 -4 -4v-322q0 -50 17 -69.5t54 -19.5h10q10 0 10 -10v-27q0 -10 -10 -10h-20q-56 0 -84.5 26t-28.5 97v335q0 4 -4 4h-41q-10 0 -10 10v22q0 10 10 10h41q4 0 4 4v112q0 10 10 10h32q10 0 10 -10v-112q0 -4 4 -4h80q10 0 10 -10v-22q0 -10 -10 -10z
M158 574.5q-2 3.5 1 8.5l62 110q5 7 12 7h27q6 0 8 -3.5t-1 -8.5l-69 -110q-5 -7 -12 -7h-20q-6 0 -8 3.5z" />
    <glyph glyph-name="Tbar" unicode="&#x166;" horiz-adv-x="411" 
d="M365 653h-133q-4 0 -4 -4v-225q0 -4 4 -4h85q10 0 10 -10v-18q0 -10 -10 -10h-85q-4 0 -4 -4v-368q0 -10 -10 -10h-33q-10 0 -10 10v368q0 4 -4 4h-96q-10 0 -10 10v18q0 10 10 10h96q4 0 4 4v225q0 4 -4 4h-125q-10 0 -10 10v27q0 10 10 10h319q10 0 10 -10v-27
q0 -10 -10 -10z" />
    <glyph glyph-name="tbar" unicode="&#x167;" horiz-adv-x="261" 
d="M220 462h-80q-4 0 -4 -4v-107q0 -4 4 -4h79q10 0 10 -10v-17q0 -10 -10 -10h-79q-4 0 -4 -4v-170q0 -50 17 -69.5t54 -19.5h10q10 0 10 -10v-27q0 -10 -10 -10h-20q-56 0 -84.5 26t-28.5 97v183q0 4 -4 4h-38q-10 0 -10 10v17q0 10 10 10h38q4 0 4 4v107q0 4 -4 4h-41
q-10 0 -10 10v22q0 10 10 10h41q4 0 4 4v112q0 10 10 10h32q10 0 10 -10v-112q0 -4 4 -4h80q10 0 10 -10v-22q0 -10 -10 -10z" />
    <glyph glyph-name="Utilde" unicode="&#x168;" horiz-adv-x="475" 
d="M118 43.5q-45 51.5 -45 137.5v509q0 10 10 10h33q10 0 10 -10v-515q0 -61 30.5 -98.5t80.5 -37.5t81.5 37.5t31.5 98.5v515q0 10 10 10h33q10 0 10 -10v-509q0 -85 -46 -137t-120 -52t-119 51.5zM271.5 815.5q-11.5 5.5 -27.5 16.5q-3 2 -12 8.5t-17 9.5t-16 3
q-15 0 -25 -5.5t-21 -21.5q-6 -9 -14 -3l-12 9q-9 5 -4 13q27 48 73 48q15 0 27 -6t29 -17q5 -3 14 -9.5t17 -9.5t16 -3q13 0 23.5 6.5t20.5 23.5q5 10 14 4l12 -7q4 -3 4 -8t-4 -12q-14 -23 -34 -34t-38 -11q-14 0 -25.5 5.5z" />
    <glyph glyph-name="utilde" unicode="&#x169;" 
d="M308 504h33q10 0 10 -10v-484q0 -10 -10 -10h-33q-10 0 -10 10v36q0 3 -1.5 3.5t-3.5 -1.5q-32 -55 -102 -55q-60 0 -95 36.5t-35 109.5v355q0 10 10 10h33q10 0 10 -10v-343q0 -55 23.5 -83t66.5 -28q44 0 69 32t25 88v334q0 10 10 10zM240.5 619.5
q-11.5 5.5 -27.5 16.5q-3 2 -12 8.5t-17 9.5t-16 3q-15 0 -25 -5.5t-21 -21.5q-6 -9 -14 -3l-12 9q-9 5 -4 13q27 48 73 48q15 0 27 -6t29 -17q5 -3 14 -9.5t17 -9.5t16 -3q13 0 23.5 6.5t20.5 23.5q5 10 14 4l12 -7q4 -3 4 -8t-4 -12q-14 -23 -34 -34t-38 -11
q-14 0 -25.5 5.5z" />
    <glyph glyph-name="Umacron" unicode="&#x16a;" horiz-adv-x="475" 
d="M118 43.5q-45 51.5 -45 137.5v509q0 10 10 10h33q10 0 10 -10v-515q0 -61 30.5 -98.5t80.5 -37.5t81.5 37.5t31.5 98.5v515q0 10 10 10h33q10 0 10 -10v-509q0 -85 -46 -137t-120 -52t-119 51.5zM137 805v20q0 10 10 10h179q10 0 10 -10v-20q0 -10 -10 -10h-179
q-10 0 -10 10z" />
    <glyph glyph-name="umacron" unicode="&#x16b;" 
d="M308 504h33q10 0 10 -10v-484q0 -10 -10 -10h-33q-10 0 -10 10v36q0 3 -1.5 3.5t-3.5 -1.5q-32 -55 -102 -55q-60 0 -95 36.5t-35 109.5v355q0 10 10 10h33q10 0 10 -10v-343q0 -55 23.5 -83t66.5 -28q44 0 69 32t25 88v334q0 10 10 10zM105 609v20q0 10 10 10h179
q10 0 10 -10v-20q0 -10 -10 -10h-179q-10 0 -10 10z" />
    <glyph glyph-name="Ubreve" unicode="&#x16c;" horiz-adv-x="475" 
d="M118 43.5q-45 51.5 -45 137.5v509q0 10 10 10h33q10 0 10 -10v-515q0 -61 30.5 -98.5t80.5 -37.5t81.5 37.5t31.5 98.5v515q0 10 10 10h33q10 0 10 -10v-509q0 -85 -46 -137t-120 -52t-119 51.5zM168.5 805.5q-28.5 26.5 -32.5 66.5q0 10 10 10h15q10 0 10 -10
q4 -27 22.5 -44t43.5 -17q26 0 44 17t21 44q1 10 11 10h15q5 0 7.5 -3t1.5 -7q-4 -40 -32 -66.5t-68 -26.5t-68.5 26.5z" />
    <glyph glyph-name="ubreve" unicode="&#x16d;" 
d="M308 504h33q10 0 10 -10v-484q0 -10 -10 -10h-33q-10 0 -10 10v36q0 3 -1.5 3.5t-3.5 -1.5q-32 -55 -102 -55q-60 0 -95 36.5t-35 109.5v355q0 10 10 10h33q10 0 10 -10v-343q0 -55 23.5 -83t66.5 -28q44 0 69 32t25 88v334q0 10 10 10zM137.5 609.5
q-28.5 26.5 -32.5 66.5q0 10 10 10h15q10 0 10 -10q4 -27 22.5 -44t43.5 -17q26 0 44 17t21 44q1 10 11 10h15q5 0 7.5 -3t1.5 -7q-4 -40 -32 -66.5t-68 -26.5t-68.5 26.5z" />
    <glyph glyph-name="Uring" unicode="&#x16e;" horiz-adv-x="475" 
d="M118 43.5q-45 51.5 -45 137.5v509q0 10 10 10h33q10 0 10 -10v-515q0 -61 30.5 -98.5t80.5 -37.5t81.5 37.5t31.5 98.5v515q0 10 10 10h33q10 0 10 -10v-509q0 -85 -46 -137t-120 -52t-119 51.5zM165.5 809.5q-29.5 30.5 -29.5 73.5t29.5 73.5t71.5 30.5q43 0 72.5 -30
t29.5 -74t-29.5 -74t-72.5 -30q-42 0 -71.5 30.5zM284.5 834q19.5 20 19.5 49t-19.5 49t-47.5 20q-27 0 -47 -20t-20 -49t20 -49t47 -20q28 0 47.5 20z" />
    <glyph glyph-name="uring" unicode="&#x16f;" 
d="M308 504h33q10 0 10 -10v-484q0 -10 -10 -10h-33q-10 0 -10 10v36q0 3 -1.5 3.5t-3.5 -1.5q-32 -55 -102 -55q-60 0 -95 36.5t-35 109.5v355q0 10 10 10h33q10 0 10 -10v-343q0 -55 23.5 -83t66.5 -28q44 0 69 32t25 88v334q0 10 10 10zM134.5 613.5
q-29.5 30.5 -29.5 73.5t29.5 73.5t71.5 30.5q43 0 72.5 -30t29.5 -74t-29.5 -74t-72.5 -30q-42 0 -71.5 30.5zM253.5 638q19.5 20 19.5 49t-19.5 49t-47.5 20q-27 0 -47 -20t-20 -49t20 -49t47 -20q28 0 47.5 20z" />
    <glyph glyph-name="Uhungarumlaut" unicode="&#x170;" horiz-adv-x="475" 
d="M118 43.5q-45 51.5 -45 137.5v509q0 10 10 10h33q10 0 10 -10v-515q0 -61 30.5 -98.5t80.5 -37.5t81.5 37.5t31.5 98.5v515q0 10 10 10h33q10 0 10 -10v-509q0 -85 -46 -137t-120 -52t-119 51.5zM158.5 770.5q-2.5 3.5 0.5 8.5l60 110q3 7 12 7h27q6 0 8 -3.5t-1 -8.5
l-61 -110q-4 -7 -12 -7h-25q-6 0 -8.5 3.5zM276 770.5q-2 3.5 1 8.5l60 110q3 7 12 7h25q6 0 8 -3.5t-1 -8.5l-61 -110q-4 -7 -12 -7h-24q-6 0 -8 3.5z" />
    <glyph glyph-name="uhungarumlaut" unicode="&#x171;" 
d="M308 504h33q10 0 10 -10v-484q0 -10 -10 -10h-33q-10 0 -10 10v36q0 3 -1.5 3.5t-3.5 -1.5q-32 -55 -102 -55q-60 0 -95 36.5t-35 109.5v355q0 10 10 10h33q10 0 10 -10v-343q0 -55 23.5 -83t66.5 -28q44 0 69 32t25 88v334q0 10 10 10zM127.5 574.5q-2.5 3.5 0.5 8.5
l60 110q3 7 12 7h27q6 0 8 -3.5t-1 -8.5l-61 -110q-4 -7 -12 -7h-25q-6 0 -8.5 3.5zM245 574.5q-2 3.5 1 8.5l60 110q3 7 12 7h25q6 0 8 -3.5t-1 -8.5l-61 -110q-4 -7 -12 -7h-24q-6 0 -8 3.5z" />
    <glyph glyph-name="Uogonek" unicode="&#x172;" horiz-adv-x="475" 
d="M360 700h33q10 0 10 -10v-509q0 -80 -41 -131t-108 -57q-3 0 -5 -2q-38 -43 -38 -86q0 -25 13 -37t32 -12q7 0 11 1l5 1q5 0 7 -8l3 -13v-3q0 -8 -7 -9q-13 -3 -29 -3q-32 0 -53 18.5t-21 63.5q0 48 35 86q4 4 -2 5q-60 11 -96 60.5t-36 125.5v509q0 10 10 10h33
q10 0 10 -10v-515q0 -61 30.5 -98.5t80.5 -37.5t81.5 37.5t31.5 98.5v515q0 10 10 10z" />
    <glyph glyph-name="uogonek" unicode="&#x173;" 
d="M358 -148q6 0 8 -8l2 -14v-3q0 -7 -7 -8q-12 -3 -27 -3q-31 0 -53.5 18.5t-22.5 62.5q0 54 47 98q5 5 3 5q-10 0 -10 10v36q0 3 -1.5 3.5t-3.5 -1.5q-32 -55 -102 -55q-60 0 -95 36.5t-35 109.5v355q0 10 10 10h33q10 0 10 -10v-343q0 -55 23.5 -83t66.5 -28q44 0 69 32
t25 88v334q0 10 10 10h33q10 0 10 -10v-487q0 -5 -5 -12q-48 -46 -48 -93q0 -52 44 -52q8 0 12 1z" />
    <glyph glyph-name="Wcircumflex" unicode="&#x174;" horiz-adv-x="604" 
d="M162 9l-131 680v2q0 9 9 9h35q10 0 11 -9l103 -567q1 -2 2 -2t2 2l87 567q1 9 10 9h31q9 0 10 -9l92 -567q1 -2 2 -2t2 2l94 567q2 9 10 9h35q5 0 7.5 -3t1.5 -8l-124 -680q-1 -9 -11 -9h-32q-8 0 -10 9l-90 566q-1 2 -2 2t-2 -2l-89 -566q-1 -9 -10 -9h-32q-9 0 -11 9z
M203.5 778.5q-1.5 3.5 1.5 8.5l65 102q5 7 12 7h42q7 0 12 -7l67 -102q2 -4 2 -6q0 -6 -8 -6h-31q-7 0 -12 7l-47 76q-1 2 -3 2t-3 -2l-47 -76q-5 -7 -12 -7h-31q-6 0 -7.5 3.5z" />
    <glyph glyph-name="wcircumflex" unicode="&#x175;" horiz-adv-x="539" 
d="M131 9l-105 484v2q0 9 9 9h32q10 0 11 -9l80 -408q1 -3 2 -3t2 3l81 408q2 9 11 9h29q10 0 11 -9l82 -408q1 -3 2 -3t2 3l82 408q2 9 11 9l31 -1q5 0 7.5 -3t1.5 -8l-107 -483q-1 -9 -11 -9h-33q-9 0 -11 9l-81 393q-1 3 -2 3t-2 -3l-79 -393q-1 -9 -11 -9h-34
q-9 0 -11 9zM167.5 582.5q-1.5 3.5 1.5 8.5l65 102q5 7 12 7h42q7 0 12 -7l67 -102q2 -4 2 -6q0 -6 -8 -6h-31q-7 0 -12 7l-47 76q-1 2 -3 2t-3 -2l-47 -76q-5 -7 -12 -7h-31q-6 0 -7.5 3.5z" />
    <glyph glyph-name="Ycircumflex" unicode="&#x176;" horiz-adv-x="411" 
d="M179 10v310q0 4 -1 5l-138 363l-1 4q0 8 9 8h35q9 0 12 -8l108 -306q1 -2 3 -2t3 2l107 306q3 8 12 8h35q5 0 7.5 -3.5t0.5 -8.5l-138 -363q-1 -1 -1 -5v-310q0 -10 -10 -10h-33q-10 0 -10 10zM105.5 778.5q-1.5 3.5 1.5 8.5l65 102q5 7 12 7h42q7 0 12 -7l67 -102
q2 -4 2 -6q0 -6 -8 -6h-31q-7 0 -12 7l-47 76q-1 2 -3 2t-3 -2l-47 -76q-5 -7 -12 -7h-31q-6 0 -7.5 3.5z" />
    <glyph glyph-name="ycircumflex" unicode="&#x177;" horiz-adv-x="353" 
d="M41 -197q-2 3 -2 7v26q0 10 10 10h1q30 1 46.5 12.5t28 42.5t24.5 96q1 2 0.5 3.5t-0.5 2.5l-128 490l-1 3q0 8 10 8h35q9 0 11 -9l99 -417q1 -3 2 -3t2 3l98 417q2 9 11 9l36 -1q5 0 7.5 -3t0.5 -8l-141 -543q-17 -65 -33.5 -96t-40.5 -42t-67 -11h-5q-2 0 -4 3z
M76.5 582.5q-1.5 3.5 1.5 8.5l65 102q5 7 12 7h42q7 0 12 -7l67 -102q2 -4 2 -6q0 -6 -8 -6h-31q-7 0 -12 7l-47 76q-1 2 -3 2t-3 -2l-47 -76q-5 -7 -12 -7h-31q-6 0 -7.5 3.5z" />
    <glyph glyph-name="Ydieresis" unicode="&#x178;" horiz-adv-x="411" 
d="M179 10v310q0 4 -1 5l-138 363l-1 4q0 8 9 8h35q9 0 12 -8l108 -306q1 -2 3 -2t3 2l107 306q3 8 12 8h35q5 0 7.5 -3.5t0.5 -8.5l-138 -363q-1 -1 -1 -5v-310q0 -10 -10 -10h-33q-10 0 -10 10zM241 815q-14 14 -14 36t14 36t36 14t36 -14t14 -36t-14 -36t-36 -14t-36 14z
M100 815q-14 14 -14 36t14 36t36 14t36 -14t14 -36t-14 -36t-36 -14t-36 14z" />
    <glyph glyph-name="Zacute" unicode="&#x179;" horiz-adv-x="391" 
d="M36 10v31q0 7 2 12l252 595q1 2 0 3.5t-3 1.5h-241q-10 0 -10 10v27q0 10 10 10h292q10 0 10 -10v-31q0 -7 -2 -12l-251 -595q-1 -2 0 -3.5t3 -1.5h240q10 0 10 -10v-27q0 -10 -10 -10h-292q-10 0 -10 10zM157 770.5q-2 3.5 1 8.5l62 110q5 7 12 7h27q6 0 8 -3.5t-1 -8.5
l-69 -110q-5 -7 -12 -7h-20q-6 0 -8 3.5z" />
    <glyph glyph-name="zacute" unicode="&#x17a;" horiz-adv-x="357" 
d="M37 10v32q0 6 3 13l217 395q1 2 0.5 3.5t-2.5 1.5h-205q-10 0 -10 10v29q0 10 10 10h262q10 0 10 -10v-32q0 -7 -3 -13l-218 -395q-1 -2 -0.5 -3.5t2.5 -1.5h209q10 0 10 -10v-29q0 -10 -10 -10h-265q-10 0 -10 10zM145 574.5q-2 3.5 1 8.5l62 110q5 7 12 7h27
q6 0 8 -3.5t-1 -8.5l-69 -110q-5 -7 -12 -7h-20q-6 0 -8 3.5z" />
    <glyph glyph-name="Zdotaccent" unicode="&#x17b;" horiz-adv-x="391" 
d="M36 10v31q0 7 2 12l252 595q1 2 0 3.5t-3 1.5h-241q-10 0 -10 10v27q0 10 10 10h292q10 0 10 -10v-31q0 -7 -2 -12l-251 -595q-1 -2 0 -3.5t3 -1.5h240q10 0 10 -10v-27q0 -10 -10 -10h-292q-10 0 -10 10zM158 815q-14 14 -14 36t14 36t36 14t36 -14t14 -36t-14 -36
t-36 -14t-36 14z" />
    <glyph glyph-name="zdotaccent" unicode="&#x17c;" horiz-adv-x="357" 
d="M37 10v32q0 6 3 13l217 395q1 2 0.5 3.5t-2.5 1.5h-205q-10 0 -10 10v29q0 10 10 10h262q10 0 10 -10v-32q0 -7 -3 -13l-218 -395q-1 -2 -0.5 -3.5t2.5 -1.5h209q10 0 10 -10v-29q0 -10 -10 -10h-265q-10 0 -10 10zM146 619q-14 14 -14 36t14 36t36 14t36 -14t14 -36
t-14 -36t-36 -14t-36 14z" />
    <glyph glyph-name="Zcaron" unicode="&#x17d;" horiz-adv-x="391" 
d="M36 10v31q0 7 2 12l252 595q1 2 0 3.5t-3 1.5h-241q-10 0 -10 10v27q0 10 10 10h292q10 0 10 -10v-31q0 -7 -2 -12l-251 -595q-1 -2 0 -3.5t3 -1.5h240q10 0 10 -10v-27q0 -10 -10 -10h-292q-10 0 -10 10zM95 890q0 6 8 6h31q7 0 12 -7l47 -76q1 -1 3 -1t3 1l47 76
q5 7 12 7h31q6 0 7.5 -3.5t-1.5 -8.5l-67 -102q-5 -7 -12 -7h-42q-7 0 -12 7l-65 102q-2 4 -2 6z" />
    <glyph glyph-name="zcaron" unicode="&#x17e;" horiz-adv-x="357" 
d="M37 10v32q0 6 3 13l217 395q1 2 0.5 3.5t-2.5 1.5h-205q-10 0 -10 10v29q0 10 10 10h262q10 0 10 -10v-32q0 -7 -3 -13l-218 -395q-1 -2 -0.5 -3.5t2.5 -1.5h209q10 0 10 -10v-29q0 -10 -10 -10h-265q-10 0 -10 10zM83 694q0 6 8 6h31q7 0 12 -7l47 -76q1 -1 3 -1t3 1
l47 76q5 7 12 7h31q6 0 7.5 -3.5t-1.5 -8.5l-67 -102q-5 -7 -12 -7h-42q-7 0 -12 7l-65 102q-2 4 -2 6z" />
    <glyph glyph-name="uni018F" unicode="&#x18f;" horiz-adv-x="513" 
d="M357 682q45 -26 70 -72.5t25 -105.5v-311q0 -59 -25 -105.5t-70 -72.5t-103 -26q-59 0 -104 26t-70 72.5t-25 105.5v160q0 10 10 10h330q4 0 4 4v135q0 70 -40.5 114.5t-104.5 44.5q-53 0 -90.5 -32.5t-48.5 -85.5q-3 -9 -11 -9l-35 1q-5 0 -8 3t-2 7q12 74 64.5 118.5
t130.5 44.5q58 0 103 -26zM358.5 81q40.5 45 40.5 115v113q0 4 -4 4h-284q-4 0 -4 -4v-113q0 -70 41.5 -115t105.5 -45t104.5 45z" />
    <glyph glyph-name="florin" unicode="&#x192;" horiz-adv-x="463" 
d="M279 648q19 35 52 49.5t88 11.5q9 -1 9 -11l-1 -28q0 -10 -11 -10h-19q-44 0 -64 -29.5t-30 -90.5l-25 -155q0 -4 3 -4h76q10 0 10 -10v-21q0 -10 -10 -10h-82q-5 0 -5 -4l-62 -387q-9 -62 -28 -97t-52 -49.5t-88 -11.5q-9 1 -9 11l1 28q0 10 11 10h19q43 0 63.5 30
t29.5 90l61 376q0 4 -3 4h-58q-10 0 -10 10v21q0 10 10 10h64q5 0 5 4l27 166q9 62 28 97z" />
    <glyph glyph-name="Ohorn" unicode="&#x1a0;" horiz-adv-x="451" 
d="M328 676q30 -22 46.5 -57t16.5 -80v-379q0 -75 -46 -121.5t-120 -46.5q-73 0 -118.5 46.5t-45.5 121.5v379q0 76 45 122.5t119 46.5q23 0 53 -7q1 -1 5 -1q24 2 42 20.5t21 47.5q0 10 10 10h15q11 0 9 -12q-2 -29 -15.5 -51t-35.5 -34q-4 -1 -1 -5zM338 541
q0 53 -31.5 86.5t-81.5 33.5q-49 0 -80 -33.5t-31 -86.5v-383q0 -53 31 -86t80 -33q50 0 81.5 33t31.5 86v383z" />
    <glyph glyph-name="ohorn" unicode="&#x1a1;" horiz-adv-x="407" 
d="M303 479q24 -20 37 -50t13 -67v-220q0 -67 -41 -108.5t-109 -41.5q-67 0 -107.5 41.5t-40.5 108.5v220q0 66 41 108t107 42q23 0 51 -7q1 -1 5 -1q25 2 43 20t21 48q0 10 10 10h15q11 0 9 -12q-2 -29 -16.5 -51.5t-37.5 -34.5q-3 -2 0 -5zM273 435.5q-27 29.5 -70 29.5
q-42 0 -68.5 -29.5t-26.5 -76.5v-215q0 -46 26.5 -75.5t68.5 -29.5q43 0 70 29.5t27 75.5v215q0 47 -27 76.5z" />
    <glyph glyph-name="Uhorn" unicode="&#x1af;" horiz-adv-x="475" 
d="M481 768q-3 -37 -23.5 -62.5t-51.5 -33.5q-3 -1 -3 -5v-486q0 -85 -46 -137t-120 -52t-119 51.5t-45 137.5v509q0 10 10 10h33q10 0 10 -10v-515q0 -61 30.5 -98.5t80.5 -37.5t81.5 37.5t31.5 98.5v515q0 10 10 10h16q26 0 46 18.5t24 49.5q0 10 10 10h15q10 0 10 -10z
" />
    <glyph glyph-name="uhorn" unicode="&#x1b0;" 
d="M427 572q-3 -36 -22.5 -61t-50.5 -34q-3 -1 -3 -5v-462q0 -10 -10 -10h-33q-10 0 -10 10v36q0 3 -1.5 3.5t-3.5 -1.5q-32 -55 -102 -55q-60 0 -95 36.5t-35 109.5v355q0 10 10 10h33q10 0 10 -10v-343q0 -55 23.5 -83t66.5 -28q44 0 69 32t25 88v334q0 10 10 10h14
q27 0 46.5 18t23.5 50q0 10 10 10h15q10 0 10 -10z" />
    <glyph glyph-name="uni01CD" unicode="&#x1cd;" horiz-adv-x="391" 
d="M325 9l-27 131q0 2 -1.5 3t-3.5 1h-196q-2 0 -3.5 -1t-1.5 -3l-27 -131q-1 -9 -11 -9h-33q-5 0 -7.5 3t-1.5 8l152 680q2 9 11 9h40q10 0 11 -9l153 -680v-2q0 -9 -9 -9h-34q-9 0 -11 9zM106 188h177q3 0 3 4l-89 423q-1 3 -2 3t-2 -3l-90 -423q0 -4 3 -4zM96 888
q0 6 8 6h31q7 0 12 -7l47 -76q1 -1 3 -1t3 1l47 76q5 7 12 7h31q6 0 7.5 -3.5t-1.5 -8.5l-67 -102q-5 -7 -12 -7h-42q-7 0 -12 7l-65 102q-2 4 -2 6z" />
    <glyph glyph-name="uni01CE" unicode="&#x1ce;" horiz-adv-x="403" 
d="M310.5 466.5q38.5 -45.5 38.5 -121.5v-335q0 -10 -10 -10h-33q-10 0 -10 10v36q0 3 -1.5 3.5t-3.5 -1.5q-37 -56 -116 -56q-53 0 -92 31t-39 109q0 83 46.5 122t123.5 39h78q4 0 4 4v46q0 56 -25 89t-69 33q-34 0 -59.5 -22t-29.5 -57q0 -10 -10 -10l-36 2q-5 0 -7.5 3
t-1.5 7q6 56 47 90t99 34q68 0 106.5 -45.5zM263.5 68q32.5 29 32.5 82v95q0 4 -4 4h-78q-52 0 -83.5 -28.5t-31.5 -84.5q0 -49 24 -73t63 -24q45 0 77.5 29zM102 692q0 6 8 6h31q7 0 12 -7l47 -76q1 -1 3 -1t3 1l47 76q5 7 12 7h31q6 0 7.5 -3.5t-1.5 -8.5l-67 -102
q-5 -7 -12 -7h-42q-7 0 -12 7l-65 102q-2 4 -2 6z" />
    <glyph glyph-name="uni01D4" unicode="&#x1d4;" 
d="M308 504h33q10 0 10 -10v-484q0 -10 -10 -10h-33q-10 0 -10 10v36q0 3 -1.5 3.5t-3.5 -1.5q-32 -55 -102 -55q-60 0 -95 36.5t-35 109.5v355q0 10 10 10h33q10 0 10 -10v-343q0 -55 23.5 -83t66.5 -28q44 0 69 32t25 88v334q0 10 10 10zM106 692q0 6 8 6h31q7 0 12 -7
l47 -76q1 -1 3 -1t3 1l47 76q5 7 12 7h31q6 0 7.5 -3.5t-1.5 -8.5l-67 -102q-5 -7 -12 -7h-42q-7 0 -12 7l-65 102q-2 4 -2 6z" />
    <glyph glyph-name="uni01E5" unicode="&#x1e5;" horiz-adv-x="412" 
d="M411 258v-17q0 -10 -10 -10h-46q-4 0 -4 -4v-221q0 -103 -47 -157t-151 -50q-10 0 -10 10v27q0 10 13 10q76 0 108.5 41t32.5 123v38q0 3 -2 3.5t-3 -2.5q-17 -27 -43.5 -40.5t-58.5 -13.5q-62 0 -98.5 41.5t-36.5 108.5v217q0 67 36.5 108.5t98.5 41.5q32 0 59 -14
t43 -40q2 -2 3.5 -2t1.5 3v35q0 10 10 10h34q10 0 10 -10v-222q0 -4 4 -4h46q10 0 10 -10zM271 71q26 29 26 76v80q0 4 -4 4h-92q-10 0 -10 10v17q0 10 10 10h92q4 0 4 4v87q0 47 -26 76.5t-67 29.5q-42 0 -69 -29.5t-27 -76.5v-212q0 -46 27 -75.5t69 -29.5q41 0 67 29z
" />
    <glyph glyph-name="gcaron" unicode="&#x1e7;" horiz-adv-x="406" 
d="M307 504h34q10 0 10 -10v-488q0 -103 -47 -157t-151 -50q-10 0 -10 10v27q0 10 13 10q76 0 108.5 41t32.5 123v38q0 3 -2 3.5t-3 -2.5q-17 -27 -43.5 -40.5t-58.5 -13.5q-62 0 -98.5 41.5t-36.5 108.5v217q0 67 36.5 108.5t98.5 41.5q32 0 59 -14t43 -40q2 -2 3.5 -2
t1.5 3v35q0 10 10 10zM271 71q26 29 26 76v212q0 47 -26 76.5t-67 29.5q-42 0 -69 -29.5t-27 -76.5v-212q0 -46 27 -75.5t69 -29.5q41 0 67 29zM104 692q0 6 8 6h31q7 0 12 -7l47 -76q1 -1 3 -1t3 1l47 76q5 7 12 7h31q6 0 7.5 -3.5t-1.5 -8.5l-67 -102q-5 -7 -12 -7h-42
q-7 0 -12 7l-65 102q-2 4 -2 6z" />
    <glyph glyph-name="uni01E9" unicode="&#x1e9;" horiz-adv-x="394" 
d="M67 10v680q0 10 10 10h33q10 0 10 -10v-420q0 -2 2 -2.5t3 1.5l165 229q4 6 12 6h35q6 0 8 -3.5t-2 -8.5l-97 -136q-2 -2 -1 -5l117 -340l1 -4q0 -7 -9 -7h-35q-9 0 -12 8l-95 297q-1 6 -6 1l-84 -116q-2 -2 -2 -5v-175q0 -10 -10 -10h-33q-10 0 -10 10zM104 888q0 6 8 6
h31q7 0 12 -7l47 -76q1 -1 3 -1t3 1l47 76q5 7 12 7h31q6 0 7.5 -3.5t-1.5 -8.5l-67 -102q-5 -7 -12 -7h-42q-7 0 -12 7l-65 102q-2 4 -2 6z" />
    <glyph glyph-name="uni01EF" unicode="&#x1ef;" horiz-adv-x="445" 
d="M167 238q117 -4 175 -63.5t58 -155.5q0 -76 -35 -128t-90.5 -77t-119.5 -25q-46 0 -91 14q-7 3 -7 12l1 27q0 11 12 8q38 -12 80 -12q80 0 138.5 43.5t58.5 139.5q0 74 -45 123t-155 49q-14 0 -44 -2h-2q-6 0 -10 8l-6 20l-1 5q0 5 4 9l207 217q3 5 -2 5h-205
q-10 0 -10 10v29q0 10 10 10h267q10 0 10 -10v-32q0 -7 -5 -12l-196 -207q-3 -5 3 -5zM126 692q0 6 8 6h31q7 0 12 -7l47 -76q1 -1 3 -1t3 1l47 76q5 7 12 7h31q6 0 7.5 -3.5t-1.5 -8.5l-67 -102q-5 -7 -12 -7h-42q-7 0 -12 7l-65 102q-2 4 -2 6z" />
    <glyph glyph-name="oslashacute" unicode="&#x1ff;" horiz-adv-x="407" 
d="M323 459q31 -39 31 -97v-220q0 -67 -41 -108.5t-109 -41.5q-41 0 -71 15q-5 2 -6 -2l-20 -47q-2 -5 -5.5 -6.5t-7.5 1.5l-22 12q-7 4 -4 14l24 56q1 3 -1 5q-35 40 -35 102v220q0 66 41 108t107 42q44 0 77 -18q5 -2 6 2l22 53q3 10 13 5l23 -12q7 -4 4 -14l-27 -64
q-1 -3 1 -5zM115 104q1 -3 3 -2.5t3 2.5l142 337q1 3 -2 5q-24 19 -57 19q-42 0 -68.5 -29.5t-26.5 -76.5v-215q0 -22 6 -40zM297 391q-1 3 -2.5 3t-2.5 -2l-142 -333q-1 -3 2 -5q21 -15 52 -15q43 0 70 29.5t27 75.5v215q0 20 -4 32zM166 574.5q-2 3.5 1 8.5l62 110
q5 7 12 7h27q6 0 8 -3.5t-1 -8.5l-69 -110q-5 -7 -12 -7h-20q-6 0 -8 3.5z" />
    <glyph glyph-name="uni0218" unicode="&#x218;" horiz-adv-x="409" 
d="M89 40.5q-44 48.5 -44 126.5v21q0 10 10 10h32q10 0 10 -10v-19q0 -59 29.5 -95t76.5 -36t78 35t31 91q0 37 -14.5 64t-37 46.5t-73.5 58.5q-52 39 -79.5 64.5t-45.5 61t-18 84.5q0 77 43 121t111 44q73 0 117 -49t44 -129v-25q0 -10 -10 -10h-33q-10 0 -10 10v25
q0 59 -29.5 95.5t-78.5 36.5q-44 0 -73 -31.5t-29 -88.5q0 -34 12.5 -59t36 -47t71.5 -58q59 -44 88 -71t44.5 -59t15.5 -77q0 -82 -44.5 -130.5t-115.5 -48.5t-115 48.5zM166 -198.5q-2 3.5 1 8.5l62 110q5 7 12 7h27q6 0 8 -3.5t-1 -8.5l-69 -110q-5 -7 -12 -7h-20
q-6 0 -8 3.5z" />
    <glyph glyph-name="uni0219" unicode="&#x219;" horiz-adv-x="365" 
d="M85.5 30.5q-39.5 35.5 -39.5 91.5v6q0 10 10 10h31q10 0 10 -10v-6q0 -36 26 -60t67 -24q40 0 64.5 24.5t24.5 63.5q0 29 -14 48t-35 30.5t-57 26.5q-39 16 -64 31.5t-42.5 43t-17.5 69.5q0 61 38 97t101 36q64 0 102 -37t38 -96v-3q0 -10 -10 -10h-30q-10 0 -10 10v5
q0 37 -25 62t-65 25t-64 -24.5t-24 -63.5q0 -27 13 -45t32.5 -29t54.5 -27q41 -17 67.5 -32.5t45.5 -43.5t19 -71q0 -60 -39 -96.5t-103 -36.5q-65 0 -104.5 35.5zM153 -195.5q-2 3.5 1 8.5l62 110q5 7 12 7h27q6 0 8 -3.5t-1 -8.5l-69 -110q-5 -7 -12 -7h-20q-6 0 -8 3.5z
" />
    <glyph glyph-name="uni021A" unicode="&#x21a;" horiz-adv-x="411" 
d="M375 690v-27q0 -10 -10 -10h-133q-4 0 -4 -4v-639q0 -10 -10 -10h-33q-10 0 -10 10v639q0 4 -4 4h-125q-10 0 -10 10v27q0 10 10 10h319q10 0 10 -10zM101 -193.5q-2 3.5 1 8.5l62 110q5 7 12 7h27q6 0 8 -3.5t-1 -8.5l-69 -110q-5 -7 -12 -7h-20q-6 0 -8 3.5z" />
    <glyph glyph-name="uni021B" unicode="&#x21b;" horiz-adv-x="261" 
d="M220 462h-80q-4 0 -4 -4v-322q0 -50 17 -69.5t54 -19.5h10q10 0 10 -10v-27q0 -10 -10 -10h-20q-56 0 -84.5 26t-28.5 97v335q0 4 -4 4h-41q-10 0 -10 10v22q0 10 10 10h41q4 0 4 4v112q0 10 10 10h32q10 0 10 -10v-112q0 -4 4 -4h80q10 0 10 -10v-22q0 -10 -10 -10z
M118 -179.5q-2 3.5 1 8.5l62 110q5 7 12 7h27q6 0 8 -3.5t-1 -8.5l-69 -110q-5 -7 -12 -7h-20q-6 0 -8 3.5z" />
    <glyph glyph-name="uni021F" unicode="&#x21f;" 
d="M325 470q33 -41 33 -115v-345q0 -10 -10 -10h-33q-10 0 -10 10v340q0 54 -24 84t-67 30q-44 0 -69 -32t-25 -88v-334q0 -10 -10 -10h-33q-10 0 -10 10v680q0 10 10 10h33q10 0 10 -10v-234q0 -3 1.5 -3t3.5 2q34 56 106 56q61 0 94 -41zM117 888q0 6 8 6h31q7 0 12 -7
l47 -76q1 -1 3 -1t3 1l47 76q5 7 12 7h31q6 0 7.5 -3.5t-1.5 -8.5l-67 -102q-5 -7 -12 -7h-42q-7 0 -12 7l-65 102q-2 4 -2 6z" />
    <glyph glyph-name="uni0228" unicode="&#x228;" horiz-adv-x="427" 
d="M373 653h-237q-4 0 -4 -4v-271q0 -4 4 -4h152q10 0 10 -10v-27q0 -10 -10 -10h-152q-4 0 -4 -4v-272q0 -4 4 -4h237q10 0 10 -10v-27q0 -10 -10 -10h-117q-2 0 -3 -1.5t1 -3.5q40 -40 40 -90q0 -44 -21.5 -63t-53.5 -19q-15 0 -27 3q-9 1 -7 12l2 14q1 5 4.5 6.5t7.5 0.5
t13 -1q19 0 31 12t12 39q0 42 -45 89q-2 2 -5 2h-116q-10 0 -10 10v680q0 10 10 10h284q10 0 10 -10v-27q0 -10 -10 -10z" />
    <glyph glyph-name="uni0229" unicode="&#x229;" horiz-adv-x="401" 
d="M342 233h-230q-4 0 -4 -4v-85q0 -46 26.5 -75.5t68.5 -29.5q35 0 60 21t33 55q3 9 11 9l32 -2q5 0 8 -3t2 -7q-9 -48 -39 -78.5t-76 -38.5q-6 -1 -2 -5q35 -39 35 -86q0 -44 -22 -62.5t-54 -18.5q-15 0 -27 3q-9 1 -7 12l2 14q1 5 4.5 6.5t7.5 0.5q5 -1 14 -1q18 0 30 12
t12 39q0 39 -38 82q-2 2 -5 2q-58 5 -93.5 45.5t-35.5 102.5v221q0 66 41 108t107 42q67 0 108 -42t41 -108v-119q0 -10 -10 -10zM134.5 435.5q-26.5 -29.5 -26.5 -76.5v-76q0 -4 4 -4h183q4 0 4 4v76q0 47 -26.5 76.5t-69.5 29.5q-42 0 -68.5 -29.5z" />
    <glyph glyph-name="uni0237" unicode="&#x237;" horiz-adv-x="193" 
d="M-23 -199v27q0 10 10 10q40 2 60 30.5t20 76.5v549q0 10 10 10h33q10 0 10 -10v-549q0 -75 -30 -114t-103 -40q-10 0 -10 10z" />
    <glyph glyph-name="uni0259" unicode="&#x259;" horiz-adv-x="401" 
d="M305.5 470.5q40.5 -41.5 40.5 -108.5v-220q0 -66 -41 -108t-107 -42q-68 0 -108.5 41.5t-40.5 108.5v118q0 10 10 10h230q4 0 4 4v86q0 46 -26.5 75.5t-68.5 29.5q-35 0 -60.5 -21t-33.5 -55q-3 -9 -11 -9l-32 2q-10 0 -9 10q9 55 47.5 87.5t98.5 32.5q67 0 107.5 -41.5z
M266.5 68.5q26.5 29.5 26.5 75.5v77q0 4 -4 4h-184q-4 0 -4 -4v-77q0 -47 27 -76t70 -29q42 0 68.5 29.5z" />
    <glyph glyph-name="uni0292" unicode="&#x292;" horiz-adv-x="445" 
d="M167 238q117 -4 175 -63.5t58 -155.5q0 -76 -35 -128t-90.5 -77t-119.5 -25q-46 0 -91 14q-7 3 -7 12l1 27q0 11 12 8q38 -12 80 -12q80 0 138.5 43.5t58.5 139.5q0 74 -45 123t-155 49q-14 0 -44 -2h-2q-6 0 -10 8l-6 20l-1 5q0 5 4 9l207 217q3 5 -2 5h-205
q-10 0 -10 10v29q0 10 10 10h267q10 0 10 -10v-32q0 -7 -5 -12l-196 -207q-3 -5 3 -5z" />
    <glyph glyph-name="uni02BB" unicode="&#x2bb;" horiz-adv-x="107" 
d="M3 693q0 7 9 7h34q9 0 11 -9l47 -179l1 -3q0 -8 -10 -8h-23q-9 0 -12 8l-56 180z" />
    <glyph glyph-name="uni02BC" unicode="&#x2bc;" horiz-adv-x="107" 
d="M103 689l-57 -180q-3 -8 -12 -8h-23q-11 0 -8 11l46 179q2 9 11 9h35q11 0 8 -11z" />
    <glyph glyph-name="circumflex" unicode="&#x2c6;" horiz-adv-x="213" 
d="M30.5 582.5q-1.5 3.5 1.5 8.5l65 102q5 7 12 7h42q7 0 12 -7l67 -102q2 -4 2 -6q0 -6 -8 -6h-31q-7 0 -12 7l-47 76q-1 2 -3 2t-3 -2l-47 -76q-5 -7 -12 -7h-31q-6 0 -7.5 3.5z" />
    <glyph glyph-name="caron" unicode="&#x2c7;" horiz-adv-x="262" 
d="M30 694q0 6 8 6h31q7 0 12 -7l47 -76q1 -1 3 -1t3 1l47 76q5 7 12 7h31q6 0 7.5 -3.5t-1.5 -8.5l-67 -102q-5 -7 -12 -7h-42q-7 0 -12 7l-65 102q-2 4 -2 6z" />
    <glyph glyph-name="uni02C9" unicode="&#x2c9;" horiz-adv-x="198" 
d="M0 670v20q0 10 10 10h178q10 0 10 -10v-20q0 -10 -10 -10h-178q-10 0 -10 10z" />
    <glyph glyph-name="breve" unicode="&#x2d8;" horiz-adv-x="250" 
d="M56.5 586q-28.5 26 -32.5 66q0 10 10 10h15q10 0 11 -10q3 -26 21.5 -43t43.5 -17t43.5 17t21.5 43q1 10 11 10h15q10 0 10 -10q-4 -40 -32 -66t-69 -26q-40 0 -68.5 26z" />
    <glyph glyph-name="dotaccent" unicode="&#x2d9;" horiz-adv-x="149" 
d="M38 619q-14 14 -14 36t14 36t36 14t36 -14t14 -36t-14 -36t-36 -14t-36 14z" />
    <glyph glyph-name="ring" unicode="&#x2da;" horiz-adv-x="252" 
d="M54.5 613.5q-29.5 30.5 -29.5 73.5t29.5 73.5t71.5 30.5q43 0 72.5 -30t29.5 -74t-29.5 -74t-72.5 -30q-42 0 -71.5 30.5zM173.5 638q19.5 20 19.5 49t-19.5 49t-47.5 20q-27 0 -47 -20t-20 -49t20 -49t47 -20q28 0 47.5 20z" />
    <glyph glyph-name="ogonek" unicode="&#x2db;" horiz-adv-x="113" 
d="M109 -173q0 -7 -7 -8q-12 -3 -27 -3q-31 0 -53.5 18.5t-22.5 62.5q0 53 46 96l4 4q3 3 10 3h17q7 0 8.5 -3.5t-3.5 -8.5q-42 -44 -42 -87q0 -30 15 -41.5t39 -8.5q3 0 4 1q8 0 10 -8l2 -14v-3z" />
    <glyph glyph-name="tilde" unicode="&#x2dc;" horiz-adv-x="307" 
d="M176.5 619.5q-11.5 5.5 -27.5 16.5q-3 2 -12 8.5t-17 9.5t-16 3q-15 0 -25 -5.5t-21 -21.5q-6 -9 -14 -3l-12 9q-9 5 -4 13q27 48 73 48q15 0 27 -6t29 -17q5 -3 14 -9.5t17 -9.5t16 -3q13 0 23.5 6.5t20.5 23.5q5 10 14 4l12 -7q4 -3 4 -8t-4 -12q-14 -23 -34 -34
t-38 -11q-14 0 -25.5 5.5z" />
    <glyph glyph-name="hungarumlaut" unicode="&#x2dd;" horiz-adv-x="286" 
d="M30 582.5q-2 3.5 1 8.5l62 110q5 7 12 7h27q6 0 8 -3.5t-1 -8.5l-69 -110q-5 -7 -12 -7h-20q-6 0 -8 3.5zM147 582.5q-2 3.5 1 8.5l62 110q5 7 12 7h26q6 0 8 -3.5t-1 -8.5l-68 -110q-5 -7 -12 -7h-20q-6 0 -8 3.5z" />
    <glyph glyph-name="gravecomb" unicode="&#x300;" horiz-adv-x="0" 
d="M-7 577q0 -6 -9 -6h-21q-7 0 -12 7l-68 110q-2 4 -2 6q0 6 9 6h27q7 0 12 -7l62 -110q2 -4 2 -6z" />
    <glyph glyph-name="acutecomb" unicode="&#x301;" horiz-adv-x="0" 
d="M-118 574.5q-2 3.5 1 8.5l62 110q5 7 12 7h27q6 0 8 -3.5t-1 -8.5l-69 -110q-5 -7 -12 -7h-20q-6 0 -8 3.5z" />
    <glyph glyph-name="uni0302" unicode="&#x302;" horiz-adv-x="0" 
d="M-231.5 582.5q-1.5 3.5 1.5 8.5l65 102q5 7 12 7h42q7 0 12 -7l67 -102q2 -4 2 -6q0 -6 -8 -6h-31q-7 0 -12 7l-47 76q-1 2 -3 2t-3 -2l-47 -76q-5 -7 -12 -7h-31q-6 0 -7.5 3.5z" />
    <glyph glyph-name="tildecomb" unicode="&#x303;" horiz-adv-x="0" 
d="M-105.5 619.5q-11.5 5.5 -27.5 16.5q-3 2 -12 8.5t-17 9.5t-16 3q-15 0 -25 -5.5t-21 -21.5q-6 -9 -14 -3l-12 9q-9 5 -4 13q27 48 73 48q15 0 27 -6t29 -17q5 -3 14 -9.5t17 -9.5t16 -3q13 0 23.5 6.5t20.5 23.5q5 10 14 4l12 -7q4 -3 4 -8t-4 -12q-14 -23 -34 -34
t-38 -11q-14 0 -25.5 5.5z" />
    <glyph glyph-name="uni0304" unicode="&#x304;" horiz-adv-x="0" 
d="M-198 638v20q0 10 10 10h178q10 0 10 -10v-20q0 -10 -10 -10h-178q-10 0 -10 10z" />
    <glyph glyph-name="uni0306" unicode="&#x306;" horiz-adv-x="0" 
d="M-193.5 609.5q-28.5 26.5 -32.5 66.5q0 10 10 10h15q10 0 10 -10q4 -27 22.5 -44t43.5 -17q26 0 44 17t21 44q1 10 11 10h15q5 0 7.5 -3t1.5 -7q-4 -40 -32 -66.5t-68 -26.5t-68.5 26.5z" />
    <glyph glyph-name="uni0307" unicode="&#x307;" horiz-adv-x="0" 
d="M-90 619q-14 14 -14 36t14 36t36 14t36 -14t14 -36t-14 -36t-36 -14t-36 14z" />
    <glyph glyph-name="uni0308" unicode="&#x308;" horiz-adv-x="0" 
d="M-86 619q-14 14 -14 36t14 36t36 14t36 -14t14 -36t-14 -36t-36 -14t-36 14zM-227 619q-14 14 -14 36t14 36t36 14t36 -14t14 -36t-14 -36t-36 -14t-36 14z" />
    <glyph glyph-name="hookabovecomb" unicode="&#x309;" horiz-adv-x="0" 
d="M-329.5 552.5q-1.5 3.5 0.5 7.5q8 18 20 30.5t14 15.5q14 13 20.5 23t6.5 26t-13.5 27t-32.5 11t-30.5 -8t-25.5 -28q-6 -9 -14 -3l-10 7q-8 6 -3 14q19 28 36 40t48 12q35 0 57.5 -20.5t22.5 -51.5q0 -22 -10 -37.5t-29 -34.5q-19 -17 -26 -30l-2 -4q-3 -8 -11 -5l-12 3
q-5 2 -6.5 5.5z" />
    <glyph glyph-name="uni030A" unicode="&#x30a;" horiz-adv-x="0" 
d="M-168.5 613.5q-29.5 30.5 -29.5 73.5t29.5 73.5t71.5 30.5q43 0 72.5 -30t29.5 -74t-29.5 -74t-72.5 -30q-42 0 -71.5 30.5zM-49.5 638q19.5 20 19.5 49t-19.5 49t-47.5 20q-27 0 -47 -20t-20 -49t20 -49t47 -20q28 0 47.5 20z" />
    <glyph glyph-name="uni030B" unicode="&#x30b;" horiz-adv-x="0" 
d="M-254.5 574.5q-2.5 3.5 0.5 8.5l60 110q3 7 12 7h27q6 0 8 -3.5t-1 -8.5l-61 -110q-4 -7 -12 -7h-25q-6 0 -8.5 3.5zM-137 574.5q-2 3.5 1 8.5l60 110q3 7 12 7h25q6 0 8 -3.5t-1 -8.5l-61 -110q-4 -7 -12 -7h-24q-6 0 -8 3.5z" />
    <glyph glyph-name="uni030C" unicode="&#x30c;" horiz-adv-x="0" 
d="M-232 694q0 6 8 6h31q7 0 12 -7l47 -76q1 -1 3 -1t3 1l47 76q5 7 12 7h31q6 0 7.5 -3.5t-1.5 -8.5l-67 -102q-5 -7 -12 -7h-42q-7 0 -12 7l-65 102q-2 4 -2 6z" />
    <glyph glyph-name="uni0312" unicode="&#x312;" horiz-adv-x="0" 
d="M-30 696.5q2 -3.5 -1 -8.5l-62 -110q-5 -7 -12 -7h-27q-6 0 -8 3.5t1 8.5l69 110q5 7 12 7h20q6 0 8 -3.5z" />
    <glyph glyph-name="uni0313" unicode="&#x313;" horiz-adv-x="0" 
d="M-118 574.5q-2 3.5 1 8.5l62 110q5 7 12 7h27q6 0 8 -3.5t-1 -8.5l-69 -110q-5 -7 -12 -7h-20q-6 0 -8 3.5z" />
    <glyph glyph-name="uni031B" unicode="&#x31b;" horiz-adv-x="0" 
d="M-125 482v12q0 10 9 11q24 3 41 20.5t20 46.5q0 10 10 10h15q10 0 9 -12q-4 -41 -30 -67.5t-64 -30.5q-10 0 -10 10z" />
    <glyph glyph-name="dotbelowcomb" unicode="&#x323;" horiz-adv-x="0" 
d="M-87.5 -165q-13.5 14 -13.5 34t13.5 33.5t33.5 13.5t33.5 -13.5t13.5 -33.5t-13.5 -34t-33.5 -14t-33.5 14z" />
    <glyph glyph-name="uni0326" unicode="&#x326;" horiz-adv-x="0" 
d="M-144 -190.5q-2 3.5 1 8.5l62 110q5 7 12 7h27q6 0 8 -3.5t-1 -8.5l-69 -110q-5 -7 -12 -7h-20q-6 0 -8 3.5z" />
    <glyph glyph-name="uni0327" unicode="&#x327;" horiz-adv-x="0" 
d="M-110 -169l3 13q1 10 12 7q4 -1 11 -1q20 0 32.5 12.5t12.5 39.5q0 42 -42 86q-3 3 -3 6q0 6 8 6h16q7 0 10 -3l4 -4q46 -41 46 -95q0 -44 -22 -63t-54 -19q-15 0 -27 3q-9 1 -7 12z" />
    <glyph glyph-name="uni0328" unicode="&#x328;" horiz-adv-x="0" 
d="M-4 -173q0 -7 -7 -8q-12 -3 -27 -3q-31 0 -53.5 18.5t-22.5 62.5q0 53 46 96l4 4q4 3 10 3h16q6 0 7.5 -4t-2.5 -8q-41 -45 -41 -87q0 -30 15 -41.5t39 -8.5q3 0 5 1q9 0 9 -8l2 -14v-3z" />
    <glyph glyph-name="uni0335" unicode="&#x335;" horiz-adv-x="0" 
d="M-254 608h241q10 0 10 -10v-17q0 -10 -10 -10h-241q-10 0 -10 10v17q0 10 10 10z" />
    <glyph glyph-name="uni0336" unicode="&#x336;" horiz-adv-x="0" 
d="M-408 527v21q0 10 10 10h388q10 0 10 -10v-21q0 -10 -10 -10h-388q-10 0 -10 10z" />
    <glyph glyph-name="uni0337" unicode="&#x337;" horiz-adv-x="0" 
d="M-274 141q-5 0 -8 4l-15 18q-2 2 -2 6q0 5 4 8l333 235q2 2 6 2q5 0 8 -4l15 -20q2 -3 2 -7t-4 -7l-333 -233q-2 -2 -6 -2z" />
    <glyph glyph-name="uni0338" unicode="&#x338;" horiz-adv-x="0" 
d="M-355.5 -32.5q-2.5 3.5 -0.5 8.5l311 759q3 8 11 8h21q5 0 7.5 -3.5t0.5 -8.5l-311 -759q-3 -8 -11 -8h-21q-5 0 -7.5 3.5z" />
    <glyph glyph-name="uni0394" unicode="&#x394;" horiz-adv-x="488" 
d="M10 10v31q0 4 2 12l208 639q3 8 12 8h24q9 0 12 -8l208 -640q2 -8 2 -12v-30q0 -10 -10 -10h-448q-10 0 -10 10zM63.5 48.5q1.5 -1.5 3.5 -1.5h354q2 0 3.5 1.5t0.5 3.5l-178 573q-1 2 -3 2t-3 -2l-178 -573q-1 -2 0.5 -3.5z" />
    <glyph glyph-name="uni03A9" unicode="&#x3a9;" horiz-adv-x="478" 
d="M61 10v27q0 10 10 10h59q2 0 3 1.5t-1 3.5q-27 20 -42 53t-15 75v359q0 76 45.5 122.5t118.5 46.5q74 0 120 -46.5t46 -122.5v-359q0 -42 -15 -75t-42 -53q-2 -2 -1.5 -3.5t2.5 -1.5h58q10 0 10 -10v-27q0 -10 -10 -10h-132q-10 0 -10 10v28q0 8 9 11q32 7 55 39.5
t23 77.5v375q0 53 -31.5 86.5t-81.5 33.5q-49 0 -80 -33.5t-31 -86.5v-375q0 -46 22.5 -78t54.5 -39q9 -3 9 -11v-28q0 -10 -10 -10h-133q-10 0 -10 10z" />
    <glyph glyph-name="uni03BC" unicode="&#x3bc;" horiz-adv-x="424" 
d="M314 504h33q10 0 10 -10v-484q0 -10 -10 -10h-33q-10 0 -10 10v36q0 3 -1.5 3t-3.5 -2q-32 -54 -102 -54q-42 0 -72 18q-2 1 -3.5 0t-1.5 -3v-198q0 -10 -10 -10h-33q-10 0 -10 10v684q0 10 10 10h33q10 0 10 -10v-343q0 -55 23.5 -83t66.5 -28q44 0 69 32t25 88v334
q0 10 10 10z" />
    <glyph glyph-name="pi" unicode="&#x3c0;" horiz-adv-x="500" 
d="M456 458h-50q-4 0 -4 -4v-365q0 -24 10.5 -31.5t36.5 -8.5q10 0 10 -10v-29q0 -10 -10 -10q-49 1 -75.5 14.5t-25.5 54.5v385q0 4 -4 4h-183q-4 0 -4 -4v-444q0 -10 -10 -10h-33q-10 0 -10 10v444q0 4 -4 4h-56q-10 0 -10 10v26q0 10 10 10h412q10 0 10 -10v-26
q0 -10 -10 -10z" />
    <glyph glyph-name="Wgrave" unicode="&#x1e80;" horiz-adv-x="604" 
d="M162 9l-131 680v2q0 9 9 9h35q10 0 11 -9l103 -567q1 -2 2 -2t2 2l87 567q1 9 10 9h31q9 0 10 -9l92 -567q1 -2 2 -2t2 2l94 567q2 9 10 9h35q5 0 7.5 -3t1.5 -8l-124 -680q-1 -9 -11 -9h-32q-8 0 -10 9l-90 566q-1 2 -2 2t-2 -2l-89 -566q-1 -9 -10 -9h-32q-9 0 -11 9z
M321 773q0 -6 -9 -6h-21q-7 0 -12 7l-68 110q-2 4 -2 6q0 6 9 6h27q7 0 12 -7l62 -110q2 -4 2 -6z" />
    <glyph glyph-name="wgrave" unicode="&#x1e81;" horiz-adv-x="539" 
d="M131 9l-105 484v2q0 9 9 9h32q10 0 11 -9l80 -408q1 -3 2 -3t2 3l81 408q2 9 11 9h29q10 0 11 -9l82 -408q1 -3 2 -3t2 3l82 408q2 9 11 9l31 -1q5 0 7.5 -3t1.5 -8l-107 -483q-1 -9 -11 -9h-33q-9 0 -11 9l-81 393q-1 3 -2 3t-2 -3l-79 -393q-1 -9 -11 -9h-34
q-9 0 -11 9zM285 577q0 -6 -9 -6h-21q-7 0 -12 7l-68 110q-2 4 -2 6q0 6 9 6h27q7 0 12 -7l62 -110q2 -4 2 -6z" />
    <glyph glyph-name="Wacute" unicode="&#x1e82;" horiz-adv-x="604" 
d="M162 9l-131 680v2q0 9 9 9h35q10 0 11 -9l103 -567q1 -2 2 -2t2 2l87 567q1 9 10 9h31q9 0 10 -9l92 -567q1 -2 2 -2t2 2l94 567q2 9 10 9h35q5 0 7.5 -3t1.5 -8l-124 -680q-1 -9 -11 -9h-32q-8 0 -10 9l-90 566q-1 2 -2 2t-2 -2l-89 -566q-1 -9 -10 -9h-32q-9 0 -11 9z
M267 770.5q-2 3.5 1 8.5l62 110q5 7 12 7h27q6 0 8 -3.5t-1 -8.5l-69 -110q-5 -7 -12 -7h-20q-6 0 -8 3.5z" />
    <glyph glyph-name="wacute" unicode="&#x1e83;" horiz-adv-x="539" 
d="M131 9l-105 484v2q0 9 9 9h32q10 0 11 -9l80 -408q1 -3 2 -3t2 3l81 408q2 9 11 9h29q10 0 11 -9l82 -408q1 -3 2 -3t2 3l82 408q2 9 11 9l31 -1q5 0 7.5 -3t1.5 -8l-107 -483q-1 -9 -11 -9h-33q-9 0 -11 9l-81 393q-1 3 -2 3t-2 -3l-79 -393q-1 -9 -11 -9h-34
q-9 0 -11 9zM231 574.5q-2 3.5 1 8.5l62 110q5 7 12 7h27q6 0 8 -3.5t-1 -8.5l-69 -110q-5 -7 -12 -7h-20q-6 0 -8 3.5z" />
    <glyph glyph-name="Wdieresis" unicode="&#x1e84;" horiz-adv-x="604" 
d="M162 9l-131 680v2q0 9 9 9h35q10 0 11 -9l103 -567q1 -2 2 -2t2 2l87 567q1 9 10 9h31q9 0 10 -9l92 -567q1 -2 2 -2t2 2l94 567q2 9 10 9h35q5 0 7.5 -3t1.5 -8l-124 -680q-1 -9 -11 -9h-32q-8 0 -10 9l-90 566q-1 2 -2 2t-2 -2l-89 -566q-1 -9 -10 -9h-32q-9 0 -11 9z
M338 815q-14 14 -14 36t14 36t36 14t36 -14t14 -36t-14 -36t-36 -14t-36 14zM197 815q-14 14 -14 36t14 36t36 14t36 -14t14 -36t-14 -36t-36 -14t-36 14z" />
    <glyph glyph-name="wdieresis" unicode="&#x1e85;" horiz-adv-x="539" 
d="M131 9l-105 484v2q0 9 9 9h32q10 0 11 -9l80 -408q1 -3 2 -3t2 3l81 408q2 9 11 9h29q10 0 11 -9l82 -408q1 -3 2 -3t2 3l82 408q2 9 11 9l31 -1q5 0 7.5 -3t1.5 -8l-107 -483q-1 -9 -11 -9h-33q-9 0 -11 9l-81 393q-1 3 -2 3t-2 -3l-79 -393q-1 -9 -11 -9h-34
q-9 0 -11 9zM303 619q-14 14 -14 36t14 36t36 14t36 -14t14 -36t-14 -36t-36 -14t-36 14zM162 619q-14 14 -14 36t14 36t36 14t36 -14t14 -36t-14 -36t-36 -14t-36 14z" />
    <glyph glyph-name="uni1EA0" unicode="&#x1ea0;" horiz-adv-x="391" 
d="M325 9l-27 131q0 2 -1.5 3t-3.5 1h-196q-2 0 -3.5 -1t-1.5 -3l-27 -131q-1 -9 -11 -9h-33q-5 0 -7.5 3t-1.5 8l152 680q2 9 11 9h40q10 0 11 -9l153 -680v-2q0 -9 -9 -9h-34q-9 0 -11 9zM106 188h177q3 0 3 4l-89 423q-1 3 -2 3t-2 -3l-90 -423q0 -4 3 -4zM162.5 -165
q-13.5 14 -13.5 34t13.5 33.5t33.5 13.5t33.5 -13.5t13.5 -33.5t-13.5 -34t-33.5 -14t-33.5 14z" />
    <glyph glyph-name="uni1EA1" unicode="&#x1ea1;" horiz-adv-x="403" 
d="M310.5 466.5q38.5 -45.5 38.5 -121.5v-335q0 -10 -10 -10h-33q-10 0 -10 10v36q0 3 -1.5 3.5t-3.5 -1.5q-37 -56 -116 -56q-53 0 -92 31t-39 109q0 83 46.5 122t123.5 39h78q4 0 4 4v46q0 56 -25 89t-69 33q-34 0 -59.5 -22t-29.5 -57q0 -10 -10 -10l-36 2q-5 0 -7.5 3
t-1.5 7q6 56 47 90t99 34q68 0 106.5 -45.5zM263.5 68q32.5 29 32.5 82v95q0 4 -4 4h-78q-52 0 -83.5 -28.5t-31.5 -84.5q0 -49 24 -73t63 -24q45 0 77.5 29zM167.5 -165q-13.5 14 -13.5 34t13.5 33.5t33.5 13.5t33.5 -13.5t13.5 -33.5t-13.5 -34t-33.5 -14t-33.5 14z" />
    <glyph glyph-name="uni1EA2" unicode="&#x1ea2;" horiz-adv-x="391" 
d="M325 9l-27 131q0 2 -1.5 3t-3.5 1h-196q-2 0 -3.5 -1t-1.5 -3l-27 -131q-1 -9 -11 -9h-33q-5 0 -7.5 3t-1.5 8l152 680q2 9 11 9h40q10 0 11 -9l153 -680v-2q0 -9 -9 -9h-34q-9 0 -11 9zM106 188h177q3 0 3 4l-89 423q-1 3 -2 3t-2 -3l-90 -423q0 -4 3 -4zM182.5 748.5
q-1.5 3.5 0.5 7.5q8 18 20 30.5t14 15.5q14 13 20.5 23t6.5 26t-13.5 27t-32.5 11t-30.5 -8t-25.5 -28q-6 -9 -14 -3l-10 7q-8 6 -3 14q19 28 36 40t48 12q35 0 57.5 -20.5t22.5 -51.5q0 -22 -10 -37.5t-29 -34.5q-19 -17 -26 -30l-2 -4q-3 -8 -11 -5l-12 3q-5 2 -6.5 5.5z
" />
    <glyph glyph-name="uni1EA3" unicode="&#x1ea3;" horiz-adv-x="403" 
d="M310.5 466.5q38.5 -45.5 38.5 -121.5v-335q0 -10 -10 -10h-33q-10 0 -10 10v36q0 3 -1.5 3.5t-3.5 -1.5q-37 -56 -116 -56q-53 0 -92 31t-39 109q0 83 46.5 122t123.5 39h78q4 0 4 4v46q0 56 -25 89t-69 33q-34 0 -59.5 -22t-29.5 -57q0 -10 -10 -10l-36 2q-5 0 -7.5 3
t-1.5 7q6 56 47 90t99 34q68 0 106.5 -45.5zM263.5 68q32.5 29 32.5 82v95q0 4 -4 4h-78q-52 0 -83.5 -28.5t-31.5 -84.5q0 -49 24 -73t63 -24q45 0 77.5 29zM188.5 552.5q-1.5 3.5 0.5 7.5q8 18 20 30.5t14 15.5q14 13 20.5 23t6.5 26t-13.5 27t-32.5 11t-30.5 -8
t-25.5 -28q-6 -9 -14 -3l-10 7q-8 6 -3 14q19 28 36 40t48 12q35 0 57.5 -20.5t22.5 -51.5q0 -22 -10 -37.5t-29 -34.5q-19 -17 -26 -30l-2 -4q-3 -8 -11 -5l-12 3q-5 2 -6.5 5.5z" />
    <glyph glyph-name="uni1EA4" unicode="&#x1ea4;" horiz-adv-x="391" 
d="M325 9l-27 131q0 2 -1.5 3t-3.5 1h-196q-2 0 -3.5 -1t-1.5 -3l-27 -131q-1 -9 -11 -9h-33q-5 0 -7.5 3t-1.5 8l152 680q2 9 11 9h40q10 0 11 -9l153 -680v-2q0 -9 -9 -9h-34q-9 0 -11 9zM106 188h177q3 0 3 4l-89 423q-1 3 -2 3t-2 -3l-90 -423q0 -4 3 -4zM93.5 778.5
q-1.5 3.5 1.5 8.5l65 102q5 7 12 7h42q7 0 12 -7l67 -102q2 -4 2 -6q0 -6 -8 -6h-31q-7 0 -12 7l-47 76q-1 2 -3 2t-3 -2l-47 -76q-5 -7 -12 -7h-31q-6 0 -7.5 3.5zM299 847.5q-2 3.5 1 8.5l62 110q5 7 12 7h27q6 0 8 -3.5t-1 -8.5l-69 -110q-5 -7 -12 -7h-20q-6 0 -8 3.5z
" />
    <glyph glyph-name="uni1EA5" unicode="&#x1ea5;" horiz-adv-x="403" 
d="M310.5 466.5q38.5 -45.5 38.5 -121.5v-335q0 -10 -10 -10h-33q-10 0 -10 10v36q0 3 -1.5 3.5t-3.5 -1.5q-37 -56 -116 -56q-53 0 -92 31t-39 109q0 83 46.5 122t123.5 39h78q4 0 4 4v46q0 56 -25 89t-69 33q-34 0 -59.5 -22t-29.5 -57q0 -10 -10 -10l-36 2q-5 0 -7.5 3
t-1.5 7q6 56 47 90t99 34q68 0 106.5 -45.5zM263.5 68q32.5 29 32.5 82v95q0 4 -4 4h-78q-52 0 -83.5 -28.5t-31.5 -84.5q0 -49 24 -73t63 -24q45 0 77.5 29zM100.5 582.5q-1.5 3.5 1.5 8.5l65 102q5 7 12 7h42q7 0 12 -7l67 -102q2 -4 2 -6q0 -6 -8 -6h-31q-7 0 -12 7
l-47 76q-1 2 -3 2t-3 -2l-47 -76q-5 -7 -12 -7h-31q-6 0 -7.5 3.5zM306 651.5q-2 3.5 1 8.5l62 110q5 7 12 7h27q6 0 8 -3.5t-1 -8.5l-69 -110q-5 -7 -12 -7h-20q-6 0 -8 3.5z" />
    <glyph glyph-name="uni1EA6" unicode="&#x1ea6;" horiz-adv-x="391" 
d="M325 9l-27 131q0 2 -1.5 3t-3.5 1h-196q-2 0 -3.5 -1t-1.5 -3l-27 -131q-1 -9 -11 -9h-33q-5 0 -7.5 3t-1.5 8l152 680q2 9 11 9h40q10 0 11 -9l153 -680v-2q0 -9 -9 -9h-34q-9 0 -11 9zM106 188h177q3 0 3 4l-89 423q-1 3 -2 3t-2 -3l-90 -423q0 -4 3 -4zM94.5 778.5
q-1.5 3.5 1.5 8.5l65 102q5 7 12 7h42q7 0 12 -7l67 -102q2 -4 2 -6q0 -6 -8 -6h-31q-7 0 -12 7l-47 76q-1 2 -3 2t-3 -2l-47 -76q-5 -7 -12 -7h-31q-6 0 -7.5 3.5zM349 894q0 -6 -9 -6h-21q-7 0 -12 7l-68 110q-2 4 -2 6q0 6 9 6h27q7 0 12 -7l62 -110q2 -4 2 -6z" />
    <glyph glyph-name="uni1EA7" unicode="&#x1ea7;" horiz-adv-x="403" 
d="M310.5 466.5q38.5 -45.5 38.5 -121.5v-335q0 -10 -10 -10h-33q-10 0 -10 10v36q0 3 -1.5 3.5t-3.5 -1.5q-37 -56 -116 -56q-53 0 -92 31t-39 109q0 83 46.5 122t123.5 39h78q4 0 4 4v46q0 56 -25 89t-69 33q-34 0 -59.5 -22t-29.5 -57q0 -10 -10 -10l-36 2q-5 0 -7.5 3
t-1.5 7q6 56 47 90t99 34q68 0 106.5 -45.5zM263.5 68q32.5 29 32.5 82v95q0 4 -4 4h-78q-52 0 -83.5 -28.5t-31.5 -84.5q0 -49 24 -73t63 -24q45 0 77.5 29zM100.5 582.5q-1.5 3.5 1.5 8.5l65 102q5 7 12 7h42q7 0 12 -7l67 -102q2 -4 2 -6q0 -6 -8 -6h-31q-7 0 -12 7
l-47 76q-1 2 -3 2t-3 -2l-47 -76q-5 -7 -12 -7h-31q-6 0 -7.5 3.5zM355 698q0 -6 -9 -6h-21q-7 0 -12 7l-68 110q-2 4 -2 6q0 6 9 6h27q7 0 12 -7l62 -110q2 -4 2 -6z" />
    <glyph glyph-name="uni1EA8" unicode="&#x1ea8;" horiz-adv-x="391" 
d="M325 9l-27 131q0 2 -1.5 3t-3.5 1h-196q-2 0 -3.5 -1t-1.5 -3l-27 -131q-1 -9 -11 -9h-33q-5 0 -7.5 3t-1.5 8l152 680q2 9 11 9h40q10 0 11 -9l153 -680v-2q0 -9 -9 -9h-34q-9 0 -11 9zM106 188h177q3 0 3 4l-89 423q-1 3 -2 3t-2 -3l-90 -423q0 -4 3 -4zM296.5 871.5
q-1.5 3.5 0.5 7.5q9 21 33 45q14 14 20 23t6 24q0 16 -13 27.5t-31 11.5t-29 -8t-26 -29q-6 -8 -14 -2l-10 7q-7 6 -3 13q18 28 35.5 39.5t47.5 11.5q34 0 56 -20t22 -51q0 -21 -9 -35t-28 -33q-21 -21 -27 -33q-3 -10 -12 -7l-12 3q-5 2 -6.5 5.5zM94.5 778.5
q-1.5 3.5 1.5 8.5l65 102q5 7 12 7h42q7 0 12 -7l67 -102q2 -4 2 -6q0 -6 -8 -6h-31q-7 0 -12 7l-47 76q-1 2 -3 2t-3 -2l-47 -76q-5 -7 -12 -7h-31q-6 0 -7.5 3.5z" />
    <glyph glyph-name="uni1EA9" unicode="&#x1ea9;" horiz-adv-x="403" 
d="M310.5 466.5q38.5 -45.5 38.5 -121.5v-335q0 -10 -10 -10h-33q-10 0 -10 10v36q0 3 -1.5 3.5t-3.5 -1.5q-37 -56 -116 -56q-53 0 -92 31t-39 109q0 83 46.5 122t123.5 39h78q4 0 4 4v46q0 56 -25 89t-69 33q-34 0 -59.5 -22t-29.5 -57q0 -10 -10 -10l-36 2q-5 0 -7.5 3
t-1.5 7q6 56 47 90t99 34q68 0 106.5 -45.5zM263.5 68q32.5 29 32.5 82v95q0 4 -4 4h-78q-52 0 -83.5 -28.5t-31.5 -84.5q0 -49 24 -73t63 -24q45 0 77.5 29zM302.5 675.5q-1.5 3.5 0.5 7.5q9 21 33 45q14 14 20 23t6 24q0 16 -13 27.5t-31 11.5t-29 -8t-26 -29
q-6 -8 -14 -2l-10 7q-7 6 -3 13q18 28 35.5 39.5t47.5 11.5q34 0 56 -20t22 -51q0 -21 -9 -35t-28 -33q-21 -21 -27 -33q-3 -10 -12 -7l-12 3q-5 2 -6.5 5.5zM100.5 582.5q-1.5 3.5 1.5 8.5l65 102q5 7 12 7h42q7 0 12 -7l67 -102q2 -4 2 -6q0 -6 -8 -6h-31q-7 0 -12 7
l-47 76q-1 2 -3 2t-3 -2l-47 -76q-5 -7 -12 -7h-31q-6 0 -7.5 3.5z" />
    <glyph glyph-name="uni1EAA" unicode="&#x1eaa;" horiz-adv-x="391" 
d="M325 9l-27 131q0 2 -1.5 3t-3.5 1h-196q-2 0 -3.5 -1t-1.5 -3l-27 -131q-1 -9 -11 -9h-33q-5 0 -7.5 3t-1.5 8l152 680q2 9 11 9h40q10 0 11 -9l153 -680v-2q0 -9 -9 -9h-34q-9 0 -11 9zM106 188h177q3 0 3 4l-89 423q-1 3 -2 3t-2 -3l-90 -423q0 -4 3 -4zM94.5 778.5
q-1.5 3.5 1.5 8.5l65 102q5 7 12 7h42q7 0 12 -7l67 -102q2 -4 2 -6q0 -6 -8 -6h-31q-7 0 -12 7l-47 76q-1 2 -3 2t-3 -2l-47 -76q-5 -7 -12 -7h-31q-6 0 -7.5 3.5zM225.5 931.5q-11.5 5.5 -27.5 16.5q-3 2 -12 8.5t-17 9.5t-16 3q-15 0 -25 -5.5t-21 -21.5q-6 -9 -14 -3
l-12 9q-9 5 -4 13q27 48 73 48q15 0 27 -6t29 -17q5 -3 14 -9.5t17 -9.5t16 -3q13 0 23.5 6.5t20.5 23.5q5 10 14 4l12 -7q4 -3 4 -8t-4 -12q-14 -23 -34 -34t-38 -11q-14 0 -25.5 5.5z" />
    <glyph glyph-name="uni1EAB" unicode="&#x1eab;" horiz-adv-x="403" 
d="M310.5 466.5q38.5 -45.5 38.5 -121.5v-335q0 -10 -10 -10h-33q-10 0 -10 10v36q0 3 -1.5 3.5t-3.5 -1.5q-37 -56 -116 -56q-53 0 -92 31t-39 109q0 83 46.5 122t123.5 39h78q4 0 4 4v46q0 56 -25 89t-69 33q-34 0 -59.5 -22t-29.5 -57q0 -10 -10 -10l-36 2q-5 0 -7.5 3
t-1.5 7q6 56 47 90t99 34q68 0 106.5 -45.5zM263.5 68q32.5 29 32.5 82v95q0 4 -4 4h-78q-52 0 -83.5 -28.5t-31.5 -84.5q0 -49 24 -73t63 -24q45 0 77.5 29zM100.5 582.5q-1.5 3.5 1.5 8.5l65 102q5 7 12 7h42q7 0 12 -7l67 -102q2 -4 2 -6q0 -6 -8 -6h-31q-7 0 -12 7
l-47 76q-1 2 -3 2t-3 -2l-47 -76q-5 -7 -12 -7h-31q-6 0 -7.5 3.5zM231.5 735.5q-11.5 5.5 -27.5 16.5q-3 2 -12 8.5t-17 9.5t-16 3q-15 0 -25 -5.5t-21 -21.5q-6 -9 -14 -3l-12 9q-9 5 -4 13q27 48 73 48q15 0 27 -6t29 -17q5 -3 14 -9.5t17 -9.5t16 -3q13 0 23.5 6.5
t20.5 23.5q5 10 14 4l12 -7q4 -3 4 -8t-4 -12q-14 -23 -34 -34t-38 -11q-14 0 -25.5 5.5z" />
    <glyph glyph-name="uni1EAC" unicode="&#x1eac;" horiz-adv-x="391" 
d="M325 9l-27 131q0 2 -1.5 3t-3.5 1h-196q-2 0 -3.5 -1t-1.5 -3l-27 -131q-1 -9 -11 -9h-33q-5 0 -7.5 3t-1.5 8l152 680q2 9 11 9h40q10 0 11 -9l153 -680v-2q0 -9 -9 -9h-34q-9 0 -11 9zM106 188h177q3 0 3 4l-89 423q-1 3 -2 3t-2 -3l-90 -423q0 -4 3 -4zM162.5 -165
q-13.5 14 -13.5 34t13.5 33.5t33.5 13.5t33.5 -13.5t13.5 -33.5t-13.5 -34t-33.5 -14t-33.5 14zM94.5 778.5q-1.5 3.5 1.5 8.5l65 102q5 7 12 7h42q7 0 12 -7l67 -102q2 -4 2 -6q0 -6 -8 -6h-31q-7 0 -12 7l-47 76q-1 2 -3 2t-3 -2l-47 -76q-5 -7 -12 -7h-31q-6 0 -7.5 3.5z
" />
    <glyph glyph-name="uni1EAD" unicode="&#x1ead;" horiz-adv-x="403" 
d="M310.5 466.5q38.5 -45.5 38.5 -121.5v-335q0 -10 -10 -10h-33q-10 0 -10 10v36q0 3 -1.5 3.5t-3.5 -1.5q-37 -56 -116 -56q-53 0 -92 31t-39 109q0 83 46.5 122t123.5 39h78q4 0 4 4v46q0 56 -25 89t-69 33q-34 0 -59.5 -22t-29.5 -57q0 -10 -10 -10l-36 2q-5 0 -7.5 3
t-1.5 7q6 56 47 90t99 34q68 0 106.5 -45.5zM263.5 68q32.5 29 32.5 82v95q0 4 -4 4h-78q-52 0 -83.5 -28.5t-31.5 -84.5q0 -49 24 -73t63 -24q45 0 77.5 29zM167.5 -165q-13.5 14 -13.5 34t13.5 33.5t33.5 13.5t33.5 -13.5t13.5 -33.5t-13.5 -34t-33.5 -14t-33.5 14z
M100.5 582.5q-1.5 3.5 1.5 8.5l65 102q5 7 12 7h42q7 0 12 -7l67 -102q2 -4 2 -6q0 -6 -8 -6h-31q-7 0 -12 7l-47 76q-1 2 -3 2t-3 -2l-47 -76q-5 -7 -12 -7h-31q-6 0 -7.5 3.5z" />
    <glyph glyph-name="uni1EAE" unicode="&#x1eae;" horiz-adv-x="391" 
d="M325 9l-27 131q0 2 -1.5 3t-3.5 1h-196q-2 0 -3.5 -1t-1.5 -3l-27 -131q-1 -9 -11 -9h-33q-5 0 -7.5 3t-1.5 8l152 680q2 9 11 9h40q10 0 11 -9l153 -680v-2q0 -9 -9 -9h-34q-9 0 -11 9zM106 188h177q3 0 3 4l-89 423q-1 3 -2 3t-2 -3l-90 -423q0 -4 3 -4zM126.5 805.5
q-28.5 26.5 -32.5 66.5q0 10 10 10h15q10 0 10 -10q4 -27 22.5 -44t43.5 -17q26 0 44 17t21 44q1 10 11 10h15q5 0 7.5 -3t1.5 -7q-4 -40 -32 -66.5t-68 -26.5t-68.5 26.5zM158 929.5q-2 3.5 1 8.5l62 110q5 7 12 7h27q6 0 8 -3.5t-1 -8.5l-69 -110q-5 -7 -12 -7h-20
q-6 0 -8 3.5z" />
    <glyph glyph-name="uni1EAF" unicode="&#x1eaf;" horiz-adv-x="403" 
d="M310.5 466.5q38.5 -45.5 38.5 -121.5v-335q0 -10 -10 -10h-33q-10 0 -10 10v36q0 3 -1.5 3.5t-3.5 -1.5q-37 -56 -116 -56q-53 0 -92 31t-39 109q0 83 46.5 122t123.5 39h78q4 0 4 4v46q0 56 -25 89t-69 33q-34 0 -59.5 -22t-29.5 -57q0 -10 -10 -10l-36 2q-5 0 -7.5 3
t-1.5 7q6 56 47 90t99 34q68 0 106.5 -45.5zM263.5 68q32.5 29 32.5 82v95q0 4 -4 4h-78q-52 0 -83.5 -28.5t-31.5 -84.5q0 -49 24 -73t63 -24q45 0 77.5 29zM132.5 609.5q-28.5 26.5 -32.5 66.5q0 10 10 10h15q10 0 10 -10q4 -27 22.5 -44t43.5 -17q26 0 44 17t21 44
q1 10 11 10h15q5 0 7.5 -3t1.5 -7q-4 -40 -32 -66.5t-68 -26.5t-68.5 26.5zM164 733.5q-2 3.5 1 8.5l62 110q5 7 12 7h27q6 0 8 -3.5t-1 -8.5l-69 -110q-5 -7 -12 -7h-20q-6 0 -8 3.5z" />
    <glyph glyph-name="uni1EB0" unicode="&#x1eb0;" horiz-adv-x="391" 
d="M325 9l-27 131q0 2 -1.5 3t-3.5 1h-196q-2 0 -3.5 -1t-1.5 -3l-27 -131q-1 -9 -11 -9h-33q-5 0 -7.5 3t-1.5 8l152 680q2 9 11 9h40q10 0 11 -9l153 -680v-2q0 -9 -9 -9h-34q-9 0 -11 9zM106 188h177q3 0 3 4l-89 423q-1 3 -2 3t-2 -3l-90 -423q0 -4 3 -4zM126.5 805.5
q-28.5 26.5 -32.5 66.5q0 10 10 10h15q10 0 10 -10q4 -27 22.5 -44t43.5 -17q26 0 44 17t21 44q1 10 11 10h15q5 0 7.5 -3t1.5 -7q-4 -40 -32 -66.5t-68 -26.5t-68.5 26.5zM213 932q0 -6 -9 -6h-21q-7 0 -12 7l-68 110q-2 4 -2 6q0 6 9 6h27q7 0 12 -7l62 -110q2 -4 2 -6z
" />
    <glyph glyph-name="uni1EB1" unicode="&#x1eb1;" horiz-adv-x="403" 
d="M310.5 466.5q38.5 -45.5 38.5 -121.5v-335q0 -10 -10 -10h-33q-10 0 -10 10v36q0 3 -1.5 3.5t-3.5 -1.5q-37 -56 -116 -56q-53 0 -92 31t-39 109q0 83 46.5 122t123.5 39h78q4 0 4 4v46q0 56 -25 89t-69 33q-34 0 -59.5 -22t-29.5 -57q0 -10 -10 -10l-36 2q-5 0 -7.5 3
t-1.5 7q6 56 47 90t99 34q68 0 106.5 -45.5zM263.5 68q32.5 29 32.5 82v95q0 4 -4 4h-78q-52 0 -83.5 -28.5t-31.5 -84.5q0 -49 24 -73t63 -24q45 0 77.5 29zM132.5 609.5q-28.5 26.5 -32.5 66.5q0 10 10 10h15q10 0 10 -10q4 -27 22.5 -44t43.5 -17q26 0 44 17t21 44
q1 10 11 10h15q5 0 7.5 -3t1.5 -7q-4 -40 -32 -66.5t-68 -26.5t-68.5 26.5zM219 736q0 -6 -9 -6h-21q-7 0 -12 7l-68 110q-2 4 -2 6q0 6 9 6h27q7 0 12 -7l62 -110q2 -4 2 -6z" />
    <glyph glyph-name="uni1EB2" unicode="&#x1eb2;" horiz-adv-x="391" 
d="M325 9l-27 131q0 2 -1.5 3t-3.5 1h-196q-2 0 -3.5 -1t-1.5 -3l-27 -131q-1 -9 -11 -9h-33q-5 0 -7.5 3t-1.5 8l152 680q2 9 11 9h40q10 0 11 -9l153 -680v-2q0 -9 -9 -9h-34q-9 0 -11 9zM106 188h177q3 0 3 4l-89 423q-1 3 -2 3t-2 -3l-90 -423q0 -4 3 -4zM183.5 906.5
q-1.5 3.5 0.5 7.5q6 14 13 22.5t20 21.5t19 22.5t6 24.5t-12.5 26t-30.5 11q-19 0 -29.5 -7.5t-24.5 -27.5q-7 -9 -14 -3l-10 7q-7 6 -3 13q18 27 35 38.5t47 11.5q33 0 55 -19.5t22 -49.5q0 -21 -9.5 -36t-27.5 -33l-11.5 -11.5t-14.5 -19.5t-13 -7l-11 3q-5 2 -6.5 5.5z
M126.5 805.5q-28.5 26.5 -32.5 66.5q0 10 10 10h15q10 0 11 -10q3 -27 21.5 -44t43.5 -17q26 0 44 17t21 44q1 10 11 10h15q10 0 10 -10q-4 -40 -32 -66.5t-69 -26.5q-40 0 -68.5 26.5z" />
    <glyph glyph-name="uni1EB3" unicode="&#x1eb3;" horiz-adv-x="403" 
d="M310.5 466.5q38.5 -45.5 38.5 -121.5v-335q0 -10 -10 -10h-33q-10 0 -10 10v36q0 3 -1.5 3.5t-3.5 -1.5q-37 -56 -116 -56q-53 0 -92 31t-39 109q0 83 46.5 122t123.5 39h78q4 0 4 4v46q0 56 -25 89t-69 33q-34 0 -59.5 -22t-29.5 -57q0 -10 -10 -10l-36 2q-5 0 -7.5 3
t-1.5 7q6 56 47 90t99 34q68 0 106.5 -45.5zM263.5 68q32.5 29 32.5 82v95q0 4 -4 4h-78q-52 0 -83.5 -28.5t-31.5 -84.5q0 -49 24 -73t63 -24q45 0 77.5 29zM189.5 710.5q-1.5 3.5 0.5 7.5q6 14 13 22.5t20 21.5t19 22.5t6 24.5t-12.5 26t-30.5 11q-19 0 -29.5 -7.5
t-24.5 -27.5q-7 -9 -14 -3l-10 7q-7 6 -3 13q18 27 35 38.5t47 11.5q33 0 55 -19.5t22 -49.5q0 -21 -9.5 -36t-27.5 -33l-11.5 -11.5t-14.5 -19.5t-13 -7l-11 3q-5 2 -6.5 5.5zM132.5 609.5q-28.5 26.5 -32.5 66.5q0 10 10 10h15q10 0 11 -10q3 -27 21.5 -44t43.5 -17
q26 0 44 17t21 44q1 10 11 10h15q10 0 10 -10q-4 -40 -32 -66.5t-69 -26.5q-40 0 -68.5 26.5z" />
    <glyph glyph-name="uni1EB4" unicode="&#x1eb4;" horiz-adv-x="391" 
d="M325 9l-27 131q0 2 -1.5 3t-3.5 1h-196q-2 0 -3.5 -1t-1.5 -3l-27 -131q-1 -9 -11 -9h-33q-5 0 -7.5 3t-1.5 8l152 680q2 9 11 9h40q10 0 11 -9l153 -680v-2q0 -9 -9 -9h-34q-9 0 -11 9zM106 188h177q3 0 3 4l-89 423q-1 3 -2 3t-2 -3l-90 -423q0 -4 3 -4zM126.5 805.5
q-28.5 26.5 -32.5 66.5q0 10 10 10h15q10 0 10 -10q4 -27 22.5 -44t43.5 -17q26 0 44 17t21 44q1 10 11 10h15q5 0 7.5 -3t1.5 -7q-4 -40 -32 -66.5t-68 -26.5t-68.5 26.5zM218.5 929.5q-11.5 5.5 -27.5 16.5q-3 2 -12 8.5t-17 9.5t-16 3q-15 0 -25 -5.5t-21 -21.5
q-6 -9 -14 -3l-12 9q-9 5 -4 13q27 48 73 48q15 0 27 -6t29 -17q5 -3 14 -9.5t17 -9.5t16 -3q13 0 23.5 6.5t20.5 23.5q5 10 14 4l12 -7q4 -3 4 -8t-4 -12q-14 -23 -34 -34t-38 -11q-14 0 -25.5 5.5z" />
    <glyph glyph-name="uni1EB5" unicode="&#x1eb5;" horiz-adv-x="403" 
d="M310.5 466.5q38.5 -45.5 38.5 -121.5v-335q0 -10 -10 -10h-33q-10 0 -10 10v36q0 3 -1.5 3.5t-3.5 -1.5q-37 -56 -116 -56q-53 0 -92 31t-39 109q0 83 46.5 122t123.5 39h78q4 0 4 4v46q0 56 -25 89t-69 33q-34 0 -59.5 -22t-29.5 -57q0 -10 -10 -10l-36 2q-5 0 -7.5 3
t-1.5 7q6 56 47 90t99 34q68 0 106.5 -45.5zM263.5 68q32.5 29 32.5 82v95q0 4 -4 4h-78q-52 0 -83.5 -28.5t-31.5 -84.5q0 -49 24 -73t63 -24q45 0 77.5 29zM132.5 609.5q-28.5 26.5 -32.5 66.5q0 10 10 10h15q10 0 10 -10q4 -27 22.5 -44t43.5 -17q26 0 44 17t21 44
q1 10 11 10h15q5 0 7.5 -3t1.5 -7q-4 -40 -32 -66.5t-68 -26.5t-68.5 26.5zM224.5 733.5q-11.5 5.5 -27.5 16.5q-3 2 -12 8.5t-17 9.5t-16 3q-15 0 -25 -5.5t-21 -21.5q-6 -9 -14 -3l-12 9q-9 5 -4 13q27 48 73 48q15 0 27 -6t29 -17q5 -3 14 -9.5t17 -9.5t16 -3
q13 0 23.5 6.5t20.5 23.5q5 10 14 4l12 -7q4 -3 4 -8t-4 -12q-14 -23 -34 -34t-38 -11q-14 0 -25.5 5.5z" />
    <glyph glyph-name="uni1EB6" unicode="&#x1eb6;" horiz-adv-x="391" 
d="M325 9l-27 131q0 2 -1.5 3t-3.5 1h-196q-2 0 -3.5 -1t-1.5 -3l-27 -131q-1 -9 -11 -9h-33q-5 0 -7.5 3t-1.5 8l152 680q2 9 11 9h40q10 0 11 -9l153 -680v-2q0 -9 -9 -9h-34q-9 0 -11 9zM106 188h177q3 0 3 4l-89 423q-1 3 -2 3t-2 -3l-90 -423q0 -4 3 -4zM162.5 -165
q-13.5 14 -13.5 34t13.5 33.5t33.5 13.5t33.5 -13.5t13.5 -33.5t-13.5 -34t-33.5 -14t-33.5 14zM126.5 805.5q-28.5 26.5 -32.5 66.5q0 10 10 10h15q10 0 10 -10q4 -27 22.5 -44t43.5 -17q26 0 44 17t21 44q1 10 11 10h15q5 0 7.5 -3t1.5 -7q-4 -40 -32 -66.5t-68 -26.5
t-68.5 26.5z" />
    <glyph glyph-name="uni1EB7" unicode="&#x1eb7;" horiz-adv-x="403" 
d="M310.5 466.5q38.5 -45.5 38.5 -121.5v-335q0 -10 -10 -10h-33q-10 0 -10 10v36q0 3 -1.5 3.5t-3.5 -1.5q-37 -56 -116 -56q-53 0 -92 31t-39 109q0 83 46.5 122t123.5 39h78q4 0 4 4v46q0 56 -25 89t-69 33q-34 0 -59.5 -22t-29.5 -57q0 -10 -10 -10l-36 2q-5 0 -7.5 3
t-1.5 7q6 56 47 90t99 34q68 0 106.5 -45.5zM263.5 68q32.5 29 32.5 82v95q0 4 -4 4h-78q-52 0 -83.5 -28.5t-31.5 -84.5q0 -49 24 -73t63 -24q45 0 77.5 29zM167.5 -165q-13.5 14 -13.5 34t13.5 33.5t33.5 13.5t33.5 -13.5t13.5 -33.5t-13.5 -34t-33.5 -14t-33.5 14z
M133.5 609.5q-28.5 26.5 -32.5 66.5q0 10 10 10h15q10 0 10 -10q4 -27 22.5 -44t43.5 -17q26 0 44 17t21 44q1 10 11 10h15q5 0 7.5 -3t1.5 -7q-4 -40 -32 -66.5t-68 -26.5t-68.5 26.5z" />
    <glyph glyph-name="uni1EB8" unicode="&#x1eb8;" horiz-adv-x="427" 
d="M373 653h-237q-4 0 -4 -4v-271q0 -4 4 -4h152q10 0 10 -10v-27q0 -10 -10 -10h-152q-4 0 -4 -4v-272q0 -4 4 -4h237q10 0 10 -10v-27q0 -10 -10 -10h-284q-10 0 -10 10v680q0 10 10 10h284q10 0 10 -10v-27q0 -10 -10 -10zM194.5 -165q-13.5 14 -13.5 34t13.5 33.5
t33.5 13.5t33.5 -13.5t13.5 -33.5t-13.5 -34t-33.5 -14t-33.5 14z" />
    <glyph glyph-name="uni1EB9" unicode="&#x1eb9;" horiz-adv-x="401" 
d="M342 233h-230q-4 0 -4 -4v-85q0 -46 26.5 -75.5t68.5 -29.5q35 0 60 21t33 55q3 9 11 9l32 -2q4 0 7 -2t2 -6v-4q-10 -55 -48 -86.5t-97 -31.5q-66 0 -107 41.5t-41 107.5v221q0 66 41 108t107 42q67 0 108 -42t41 -108v-119q0 -10 -10 -10zM134.5 435.5
q-26.5 -29.5 -26.5 -76.5v-76q0 -4 4 -4h183q4 0 4 4v76q0 47 -26.5 76.5t-69.5 29.5q-42 0 -68.5 -29.5zM166.5 -165q-13.5 14 -13.5 34t13.5 33.5t33.5 13.5t33.5 -13.5t13.5 -33.5t-13.5 -34t-33.5 -14t-33.5 14z" />
    <glyph glyph-name="uni1EBA" unicode="&#x1eba;" horiz-adv-x="427" 
d="M373 653h-237q-4 0 -4 -4v-271q0 -4 4 -4h152q10 0 10 -10v-27q0 -10 -10 -10h-152q-4 0 -4 -4v-272q0 -4 4 -4h237q10 0 10 -10v-27q0 -10 -10 -10h-284q-10 0 -10 10v680q0 10 10 10h284q10 0 10 -10v-27q0 -10 -10 -10zM218.5 748.5q-1.5 3.5 0.5 7.5q8 18 20 30.5
t14 15.5q14 13 20.5 23t6.5 26t-13.5 27t-32.5 11t-30.5 -8t-25.5 -28q-6 -9 -14 -3l-10 7q-8 6 -3 14q19 28 36 40t48 12q35 0 57.5 -20.5t22.5 -51.5q0 -22 -10 -37.5t-29 -34.5q-19 -17 -26 -30l-2 -4q-3 -8 -11 -5l-12 3q-5 2 -6.5 5.5z" />
    <glyph glyph-name="uni1EBB" unicode="&#x1ebb;" horiz-adv-x="401" 
d="M342 233h-230q-4 0 -4 -4v-85q0 -46 26.5 -75.5t68.5 -29.5q35 0 60 21t33 55q3 9 11 9l32 -2q4 0 7 -2t2 -6v-4q-10 -55 -48 -86.5t-97 -31.5q-66 0 -107 41.5t-41 107.5v221q0 66 41 108t107 42q67 0 108 -42t41 -108v-119q0 -10 -10 -10zM134.5 435.5
q-26.5 -29.5 -26.5 -76.5v-76q0 -4 4 -4h183q4 0 4 4v76q0 47 -26.5 76.5t-69.5 29.5q-42 0 -68.5 -29.5zM187.5 552.5q-1.5 3.5 0.5 7.5q8 18 20 30.5t14 15.5q14 13 20.5 23t6.5 26t-13.5 27t-32.5 11t-30.5 -8t-25.5 -28q-6 -9 -14 -3l-10 7q-8 6 -3 14q19 28 36 40
t48 12q35 0 57.5 -20.5t22.5 -51.5q0 -22 -10 -37.5t-29 -34.5q-19 -17 -26 -30l-2 -4q-3 -8 -11 -5l-12 3q-5 2 -6.5 5.5z" />
    <glyph glyph-name="uni1EBC" unicode="&#x1ebc;" horiz-adv-x="427" 
d="M373 653h-237q-4 0 -4 -4v-271q0 -4 4 -4h152q10 0 10 -10v-27q0 -10 -10 -10h-152q-4 0 -4 -4v-272q0 -4 4 -4h237q10 0 10 -10v-27q0 -10 -10 -10h-284q-10 0 -10 10v680q0 10 10 10h284q10 0 10 -10v-27q0 -10 -10 -10zM265.5 815.5q-11.5 5.5 -27.5 16.5
q-3 2 -12 8.5t-17 9.5t-16 3q-15 0 -25 -5.5t-21 -21.5q-6 -9 -14 -3l-12 9q-9 5 -4 13q27 48 73 48q15 0 27 -6t29 -17q5 -3 14 -9.5t17 -9.5t16 -3q13 0 23.5 6.5t20.5 23.5q5 10 14 4l12 -7q4 -3 4 -8t-4 -12q-14 -23 -34 -34t-38 -11q-14 0 -25.5 5.5z" />
    <glyph glyph-name="uni1EBD" unicode="&#x1ebd;" horiz-adv-x="401" 
d="M342 233h-230q-4 0 -4 -4v-85q0 -46 26.5 -75.5t68.5 -29.5q35 0 60 21t33 55q3 9 11 9l32 -2q4 0 7 -2t2 -6v-4q-10 -55 -48 -86.5t-97 -31.5q-66 0 -107 41.5t-41 107.5v221q0 66 41 108t107 42q67 0 108 -42t41 -108v-119q0 -10 -10 -10zM134.5 435.5
q-26.5 -29.5 -26.5 -76.5v-76q0 -4 4 -4h183q4 0 4 4v76q0 47 -26.5 76.5t-69.5 29.5q-42 0 -68.5 -29.5zM235.5 619.5q-11.5 5.5 -27.5 16.5q-3 2 -12 8.5t-17 9.5t-16 3q-15 0 -25 -5.5t-21 -21.5q-6 -9 -14 -3l-12 9q-9 5 -4 13q27 48 73 48q15 0 27 -6t29 -17
q5 -3 14 -9.5t17 -9.5t16 -3q13 0 23.5 6.5t20.5 23.5q5 10 14 4l12 -7q4 -3 4 -8t-4 -12q-14 -23 -34 -34t-38 -11q-14 0 -25.5 5.5z" />
    <glyph glyph-name="uni1EBE" unicode="&#x1ebe;" horiz-adv-x="427" 
d="M373 653h-237q-4 0 -4 -4v-271q0 -4 4 -4h152q10 0 10 -10v-27q0 -10 -10 -10h-152q-4 0 -4 -4v-272q0 -4 4 -4h237q10 0 10 -10v-27q0 -10 -10 -10h-284q-10 0 -10 10v680q0 10 10 10h284q10 0 10 -10v-27q0 -10 -10 -10zM129.5 778.5q-1.5 3.5 1.5 8.5l65 102q5 7 12 7
h42q7 0 12 -7l67 -102q2 -4 2 -6q0 -6 -8 -6h-31q-7 0 -12 7l-47 76q-1 2 -3 2t-3 -2l-47 -76q-5 -7 -12 -7h-31q-6 0 -7.5 3.5zM335 847.5q-2 3.5 1 8.5l62 110q5 7 12 7h27q6 0 8 -3.5t-1 -8.5l-69 -110q-5 -7 -12 -7h-20q-6 0 -8 3.5z" />
    <glyph glyph-name="uni1EBF" unicode="&#x1ebf;" horiz-adv-x="401" 
d="M342 233h-230q-4 0 -4 -4v-85q0 -46 26.5 -75.5t68.5 -29.5q35 0 60 21t33 55q3 9 11 9l32 -2q4 0 7 -2t2 -6v-4q-10 -55 -48 -86.5t-97 -31.5q-66 0 -107 41.5t-41 107.5v221q0 66 41 108t107 42q67 0 108 -42t41 -108v-119q0 -10 -10 -10zM134.5 435.5
q-26.5 -29.5 -26.5 -76.5v-76q0 -4 4 -4h183q4 0 4 4v76q0 47 -26.5 76.5t-69.5 29.5q-42 0 -68.5 -29.5zM98.5 582.5q-1.5 3.5 1.5 8.5l65 102q5 7 12 7h42q7 0 12 -7l67 -102q2 -4 2 -6q0 -6 -8 -6h-31q-7 0 -12 7l-47 76q-1 2 -3 2t-3 -2l-47 -76q-5 -7 -12 -7h-31
q-6 0 -7.5 3.5zM304 651.5q-2 3.5 1 8.5l62 110q5 7 12 7h27q6 0 8 -3.5t-1 -8.5l-69 -110q-5 -7 -12 -7h-20q-6 0 -8 3.5z" />
    <glyph glyph-name="uni1EC0" unicode="&#x1ec0;" horiz-adv-x="427" 
d="M373 653h-237q-4 0 -4 -4v-271q0 -4 4 -4h152q10 0 10 -10v-27q0 -10 -10 -10h-152q-4 0 -4 -4v-272q0 -4 4 -4h237q10 0 10 -10v-27q0 -10 -10 -10h-284q-10 0 -10 10v680q0 10 10 10h284q10 0 10 -10v-27q0 -10 -10 -10zM130.5 778.5q-1.5 3.5 1.5 8.5l65 102q5 7 12 7
h42q7 0 12 -7l67 -102q2 -4 2 -6q0 -6 -8 -6h-31q-7 0 -12 7l-47 76q-1 2 -3 2t-3 -2l-47 -76q-5 -7 -12 -7h-31q-6 0 -7.5 3.5zM385 894q0 -6 -9 -6h-21q-7 0 -12 7l-68 110q-2 4 -2 6q0 6 9 6h27q7 0 12 -7l62 -110q2 -4 2 -6z" />
    <glyph glyph-name="uni1EC1" unicode="&#x1ec1;" horiz-adv-x="401" 
d="M342 233h-230q-4 0 -4 -4v-85q0 -46 26.5 -75.5t68.5 -29.5q35 0 60 21t33 55q3 9 11 9l32 -2q4 0 7 -2t2 -6v-4q-10 -55 -48 -86.5t-97 -31.5q-66 0 -107 41.5t-41 107.5v221q0 66 41 108t107 42q67 0 108 -42t41 -108v-119q0 -10 -10 -10zM134.5 435.5
q-26.5 -29.5 -26.5 -76.5v-76q0 -4 4 -4h183q4 0 4 4v76q0 47 -26.5 76.5t-69.5 29.5q-42 0 -68.5 -29.5zM99.5 582.5q-1.5 3.5 1.5 8.5l65 102q5 7 12 7h42q7 0 12 -7l67 -102q2 -4 2 -6q0 -6 -8 -6h-31q-7 0 -12 7l-47 76q-1 2 -3 2t-3 -2l-47 -76q-5 -7 -12 -7h-31
q-6 0 -7.5 3.5zM354 698q0 -6 -9 -6h-21q-7 0 -12 7l-68 110q-2 4 -2 6q0 6 9 6h27q7 0 12 -7l62 -110q2 -4 2 -6z" />
    <glyph glyph-name="uni1EC2" unicode="&#x1ec2;" horiz-adv-x="427" 
d="M373 653h-237q-4 0 -4 -4v-271q0 -4 4 -4h152q10 0 10 -10v-27q0 -10 -10 -10h-152q-4 0 -4 -4v-272q0 -4 4 -4h237q10 0 10 -10v-27q0 -10 -10 -10h-284q-10 0 -10 10v680q0 10 10 10h284q10 0 10 -10v-27q0 -10 -10 -10zM332.5 871.5q-1.5 3.5 0.5 7.5q9 21 33 45
q14 14 20 23t6 24q0 16 -13 27.5t-31 11.5t-29 -8t-26 -29q-6 -8 -14 -2l-10 7q-7 6 -3 13q18 28 35.5 39.5t47.5 11.5q34 0 56 -20t22 -51q0 -21 -9 -35t-28 -33q-21 -21 -27 -33q-3 -10 -12 -7l-12 3q-5 2 -6.5 5.5zM130.5 778.5q-1.5 3.5 1.5 8.5l65 102q5 7 12 7h42
q7 0 12 -7l67 -102q2 -4 2 -6q0 -6 -8 -6h-31q-7 0 -12 7l-47 76q-1 2 -3 2t-3 -2l-47 -76q-5 -7 -12 -7h-31q-6 0 -7.5 3.5z" />
    <glyph glyph-name="uni1EC3" unicode="&#x1ec3;" horiz-adv-x="401" 
d="M342 233h-230q-4 0 -4 -4v-85q0 -46 26.5 -75.5t68.5 -29.5q35 0 60 21t33 55q3 9 11 9l32 -2q4 0 7 -2t2 -6v-4q-10 -55 -48 -86.5t-97 -31.5q-66 0 -107 41.5t-41 107.5v221q0 66 41 108t107 42q67 0 108 -42t41 -108v-119q0 -10 -10 -10zM134.5 435.5
q-26.5 -29.5 -26.5 -76.5v-76q0 -4 4 -4h183q4 0 4 4v76q0 47 -26.5 76.5t-69.5 29.5q-42 0 -68.5 -29.5zM301.5 675.5q-1.5 3.5 0.5 7.5q9 21 33 45q14 14 20 23t6 24q0 16 -13 27.5t-31 11.5t-29 -8t-26 -29q-6 -8 -14 -2l-10 7q-7 6 -3 13q18 28 35.5 39.5t47.5 11.5
q34 0 56 -20t22 -51q0 -21 -9 -35t-28 -33q-21 -21 -27 -33q-3 -10 -12 -7l-12 3q-5 2 -6.5 5.5zM99.5 582.5q-1.5 3.5 1.5 8.5l65 102q5 7 12 7h42q7 0 12 -7l67 -102q2 -4 2 -6q0 -6 -8 -6h-31q-7 0 -12 7l-47 76q-1 2 -3 2t-3 -2l-47 -76q-5 -7 -12 -7h-31q-6 0 -7.5 3.5
z" />
    <glyph glyph-name="uni1EC4" unicode="&#x1ec4;" horiz-adv-x="427" 
d="M373 653h-237q-4 0 -4 -4v-271q0 -4 4 -4h152q10 0 10 -10v-27q0 -10 -10 -10h-152q-4 0 -4 -4v-272q0 -4 4 -4h237q10 0 10 -10v-27q0 -10 -10 -10h-284q-10 0 -10 10v680q0 10 10 10h284q10 0 10 -10v-27q0 -10 -10 -10zM130.5 778.5q-1.5 3.5 1.5 8.5l65 102q5 7 12 7
h42q7 0 12 -7l67 -102q2 -4 2 -6q0 -6 -8 -6h-31q-7 0 -12 7l-47 76q-1 2 -3 2t-3 -2l-47 -76q-5 -7 -12 -7h-31q-6 0 -7.5 3.5zM261.5 931.5q-11.5 5.5 -27.5 16.5q-3 2 -12 8.5t-17 9.5t-16 3q-15 0 -25 -5.5t-21 -21.5q-6 -9 -14 -3l-12 9q-9 5 -4 13q27 48 73 48
q15 0 27 -6t29 -17q5 -3 14 -9.5t17 -9.5t16 -3q13 0 23.5 6.5t20.5 23.5q5 10 14 4l12 -7q4 -3 4 -8t-4 -12q-14 -23 -34 -34t-38 -11q-14 0 -25.5 5.5z" />
    <glyph glyph-name="uni1EC5" unicode="&#x1ec5;" horiz-adv-x="401" 
d="M342 233h-230q-4 0 -4 -4v-85q0 -46 26.5 -75.5t68.5 -29.5q35 0 60 21t33 55q3 9 11 9l32 -2q4 0 7 -2t2 -6v-4q-10 -55 -48 -86.5t-97 -31.5q-66 0 -107 41.5t-41 107.5v221q0 66 41 108t107 42q67 0 108 -42t41 -108v-119q0 -10 -10 -10zM134.5 435.5
q-26.5 -29.5 -26.5 -76.5v-76q0 -4 4 -4h183q4 0 4 4v76q0 47 -26.5 76.5t-69.5 29.5q-42 0 -68.5 -29.5zM99.5 582.5q-1.5 3.5 1.5 8.5l65 102q5 7 12 7h42q7 0 12 -7l67 -102q2 -4 2 -6q0 -6 -8 -6h-31q-7 0 -12 7l-47 76q-1 2 -3 2t-3 -2l-47 -76q-5 -7 -12 -7h-31
q-6 0 -7.5 3.5zM230.5 735.5q-11.5 5.5 -27.5 16.5q-3 2 -12 8.5t-17 9.5t-16 3q-15 0 -25 -5.5t-21 -21.5q-6 -9 -14 -3l-12 9q-9 5 -4 13q27 48 73 48q15 0 27 -6t29 -17q5 -3 14 -9.5t17 -9.5t16 -3q13 0 23.5 6.5t20.5 23.5q5 10 14 4l12 -7q4 -3 4 -8t-4 -12
q-14 -23 -34 -34t-38 -11q-14 0 -25.5 5.5z" />
    <glyph glyph-name="uni1EC6" unicode="&#x1ec6;" horiz-adv-x="427" 
d="M373 653h-237q-4 0 -4 -4v-271q0 -4 4 -4h152q10 0 10 -10v-27q0 -10 -10 -10h-152q-4 0 -4 -4v-272q0 -4 4 -4h237q10 0 10 -10v-27q0 -10 -10 -10h-284q-10 0 -10 10v680q0 10 10 10h284q10 0 10 -10v-27q0 -10 -10 -10zM194.5 -165q-13.5 14 -13.5 34t13.5 33.5
t33.5 13.5t33.5 -13.5t13.5 -33.5t-13.5 -34t-33.5 -14t-33.5 14zM130.5 778.5q-1.5 3.5 1.5 8.5l65 102q5 7 12 7h42q7 0 12 -7l67 -102q2 -4 2 -6q0 -6 -8 -6h-31q-7 0 -12 7l-47 76q-1 2 -3 2t-3 -2l-47 -76q-5 -7 -12 -7h-31q-6 0 -7.5 3.5z" />
    <glyph glyph-name="uni1EC7" unicode="&#x1ec7;" horiz-adv-x="401" 
d="M342 233h-230q-4 0 -4 -4v-85q0 -46 26.5 -75.5t68.5 -29.5q35 0 60 21t33 55q3 9 11 9l32 -2q4 0 7 -2t2 -6v-4q-10 -55 -48 -86.5t-97 -31.5q-66 0 -107 41.5t-41 107.5v221q0 66 41 108t107 42q67 0 108 -42t41 -108v-119q0 -10 -10 -10zM134.5 435.5
q-26.5 -29.5 -26.5 -76.5v-76q0 -4 4 -4h183q4 0 4 4v76q0 47 -26.5 76.5t-69.5 29.5q-42 0 -68.5 -29.5zM166.5 -165q-13.5 14 -13.5 34t13.5 33.5t33.5 13.5t33.5 -13.5t13.5 -33.5t-13.5 -34t-33.5 -14t-33.5 14zM99.5 582.5q-1.5 3.5 1.5 8.5l65 102q5 7 12 7h42
q7 0 12 -7l67 -102q2 -4 2 -6q0 -6 -8 -6h-31q-7 0 -12 7l-47 76q-1 2 -3 2t-3 -2l-47 -76q-5 -7 -12 -7h-31q-6 0 -7.5 3.5z" />
    <glyph glyph-name="uni1EC8" unicode="&#x1ec8;" horiz-adv-x="211" 
d="M79 10v680q0 10 10 10h33q10 0 10 -10v-680q0 -10 -10 -10h-33q-10 0 -10 10zM92.5 748.5q-1.5 3.5 0.5 7.5q8 18 20 30.5t14 15.5q14 13 20.5 23t6.5 26t-13.5 27t-32.5 11t-30.5 -8t-25.5 -28q-6 -9 -14 -3l-10 7q-8 6 -3 14q19 28 36 40t48 12q35 0 57.5 -20.5
t22.5 -51.5q0 -22 -10 -37.5t-29 -34.5q-19 -17 -26 -30l-2 -4q-3 -8 -11 -5l-12 3q-5 2 -6.5 5.5z" />
    <glyph glyph-name="uni1EC9" unicode="&#x1ec9;" horiz-adv-x="163" 
d="M55 10v484q0 10 10 10h33q10 0 10 -10v-484q0 -10 -10 -10h-33q-10 0 -10 10zM69.5 552.5q-1.5 3.5 0.5 7.5q8 18 20 30.5t14 15.5q14 13 20.5 23t6.5 26t-13.5 27t-32.5 11t-30.5 -8t-25.5 -28q-6 -9 -14 -3l-10 7q-8 6 -3 14q19 28 36 40t48 12q35 0 57.5 -20.5
t22.5 -51.5q0 -22 -10 -37.5t-29 -34.5q-19 -17 -26 -30l-2 -4q-3 -8 -11 -5l-12 3q-5 2 -6.5 5.5z" />
    <glyph glyph-name="uni1ECA" unicode="&#x1eca;" horiz-adv-x="211" 
d="M79 10v680q0 10 10 10h33q10 0 10 -10v-680q0 -10 -10 -10h-33q-10 0 -10 10zM71.5 -165q-13.5 14 -13.5 34t13.5 33.5t33.5 13.5t33.5 -13.5t13.5 -33.5t-13.5 -34t-33.5 -14t-33.5 14z" />
    <glyph glyph-name="uni1ECB" unicode="&#x1ecb;" horiz-adv-x="205" 
d="M66 619q-14 14 -14 36t14 36t36 14t36 -14t14 -36t-14 -36t-36 -14t-36 14zM76 10v484q0 10 10 10h33q10 0 10 -10v-484q0 -10 -10 -10h-33q-10 0 -10 10zM68.5 -165q-13.5 14 -13.5 34t13.5 33.5t33.5 13.5t33.5 -13.5t13.5 -33.5t-13.5 -34t-33.5 -14t-33.5 14z" />
    <glyph glyph-name="uni1ECC" unicode="&#x1ecc;" horiz-adv-x="451" 
d="M106.5 38.5q-45.5 46.5 -45.5 121.5v379q0 76 45 122.5t119 46.5t120 -46.5t46 -122.5v-379q0 -75 -46 -121.5t-120 -46.5q-73 0 -118.5 46.5zM306.5 72q31.5 33 31.5 86v383q0 53 -31.5 86.5t-81.5 33.5q-49 0 -80 -33.5t-31 -86.5v-383q0 -53 31 -86t80 -33
q50 0 81.5 33zM192.5 -165q-13.5 14 -13.5 34t13.5 33.5t33.5 13.5t33.5 -13.5t13.5 -33.5t-13.5 -34t-33.5 -14t-33.5 14z" />
    <glyph glyph-name="uni1ECD" unicode="&#x1ecd;" horiz-adv-x="407" 
d="M95.5 33.5q-40.5 41.5 -40.5 108.5v220q0 66 41 108t107 42q68 0 109 -41.5t41 -108.5v-220q0 -67 -41 -108.5t-109 -41.5q-67 0 -107.5 41.5zM273 68.5q27 29.5 27 75.5v215q0 47 -27 76.5t-70 29.5q-42 0 -68.5 -29.5t-26.5 -76.5v-215q0 -46 26.5 -75.5t68.5 -29.5
q43 0 70 29.5zM170.5 -165q-13.5 14 -13.5 34t13.5 33.5t33.5 13.5t33.5 -13.5t13.5 -33.5t-13.5 -34t-33.5 -14t-33.5 14z" />
    <glyph glyph-name="uni1ECE" unicode="&#x1ece;" horiz-adv-x="451" 
d="M106.5 38.5q-45.5 46.5 -45.5 121.5v379q0 76 45 122.5t119 46.5t120 -46.5t46 -122.5v-379q0 -75 -46 -121.5t-120 -46.5q-73 0 -118.5 46.5zM306.5 72q31.5 33 31.5 86v383q0 53 -31.5 86.5t-81.5 33.5q-49 0 -80 -33.5t-31 -86.5v-383q0 -53 31 -86t80 -33
q50 0 81.5 33zM212.5 747.5q-1.5 3.5 0.5 7.5q8 18 20 30.5t14 15.5q14 13 20.5 23t6.5 26t-13.5 27t-32.5 11t-30.5 -8t-25.5 -28q-6 -9 -14 -3l-10 7q-8 6 -3 14q19 28 36 40t48 12q35 0 57.5 -20.5t22.5 -51.5q0 -22 -10 -37.5t-29 -34.5q-19 -17 -26 -30l-2 -4
q-3 -8 -11 -5l-12 3q-5 2 -6.5 5.5z" />
    <glyph glyph-name="uni1ECF" unicode="&#x1ecf;" horiz-adv-x="407" 
d="M95.5 33.5q-40.5 41.5 -40.5 108.5v220q0 66 41 108t107 42q68 0 109 -41.5t41 -108.5v-220q0 -67 -41 -108.5t-109 -41.5q-67 0 -107.5 41.5zM273 68.5q27 29.5 27 75.5v215q0 47 -27 76.5t-70 29.5q-42 0 -68.5 -29.5t-26.5 -76.5v-215q0 -46 26.5 -75.5t68.5 -29.5
q43 0 70 29.5zM190.5 552.5q-1.5 3.5 0.5 7.5q8 18 20 30.5t14 15.5q14 13 20.5 23t6.5 26t-13.5 27t-32.5 11t-30.5 -8t-25.5 -28q-6 -9 -14 -3l-10 7q-8 6 -3 14q19 28 36 40t48 12q35 0 57.5 -20.5t22.5 -51.5q0 -22 -10 -37.5t-29 -34.5q-19 -17 -26 -30l-2 -4
q-3 -8 -11 -5l-12 3q-5 2 -6.5 5.5z" />
    <glyph glyph-name="uni1ED0" unicode="&#x1ed0;" horiz-adv-x="451" 
d="M106.5 38.5q-45.5 46.5 -45.5 121.5v379q0 76 45 122.5t119 46.5t120 -46.5t46 -122.5v-379q0 -75 -46 -121.5t-120 -46.5q-73 0 -118.5 46.5zM306.5 72q31.5 33 31.5 86v383q0 53 -31.5 86.5t-81.5 33.5q-49 0 -80 -33.5t-31 -86.5v-383q0 -53 31 -86t80 -33
q50 0 81.5 33zM123.5 777.5q-1.5 3.5 1.5 8.5l65 102q5 7 12 7h42q7 0 12 -7l67 -102q2 -4 2 -6q0 -6 -8 -6h-31q-7 0 -12 7l-47 76q-1 2 -3 2t-3 -2l-47 -76q-5 -7 -12 -7h-31q-6 0 -7.5 3.5zM329 846.5q-2 3.5 1 8.5l62 110q5 7 12 7h27q6 0 8 -3.5t-1 -8.5l-69 -110
q-5 -7 -12 -7h-20q-6 0 -8 3.5z" />
    <glyph glyph-name="uni1ED1" unicode="&#x1ed1;" horiz-adv-x="407" 
d="M95.5 33.5q-40.5 41.5 -40.5 108.5v220q0 66 41 108t107 42q68 0 109 -41.5t41 -108.5v-220q0 -67 -41 -108.5t-109 -41.5q-67 0 -107.5 41.5zM273 68.5q27 29.5 27 75.5v215q0 47 -27 76.5t-70 29.5q-42 0 -68.5 -29.5t-26.5 -76.5v-215q0 -46 26.5 -75.5t68.5 -29.5
q43 0 70 29.5zM101.5 582.5q-1.5 3.5 1.5 8.5l65 102q5 7 12 7h42q7 0 12 -7l67 -102q2 -4 2 -6q0 -6 -8 -6h-31q-7 0 -12 7l-47 76q-1 2 -3 2t-3 -2l-47 -76q-5 -7 -12 -7h-31q-6 0 -7.5 3.5zM307 651.5q-2 3.5 1 8.5l62 110q5 7 12 7h27q6 0 8 -3.5t-1 -8.5l-69 -110
q-5 -7 -12 -7h-20q-6 0 -8 3.5z" />
    <glyph glyph-name="uni1ED2" unicode="&#x1ed2;" horiz-adv-x="451" 
d="M106.5 38.5q-45.5 46.5 -45.5 121.5v379q0 76 45 122.5t119 46.5t120 -46.5t46 -122.5v-379q0 -75 -46 -121.5t-120 -46.5q-73 0 -118.5 46.5zM306.5 72q31.5 33 31.5 86v383q0 53 -31.5 86.5t-81.5 33.5q-49 0 -80 -33.5t-31 -86.5v-383q0 -53 31 -86t80 -33
q50 0 81.5 33zM123.5 777.5q-1.5 3.5 1.5 8.5l65 102q5 7 12 7h42q7 0 12 -7l67 -102q2 -4 2 -6q0 -6 -8 -6h-31q-7 0 -12 7l-47 76q-1 2 -3 2t-3 -2l-47 -76q-5 -7 -12 -7h-31q-6 0 -7.5 3.5zM378 893q0 -6 -9 -6h-21q-7 0 -12 7l-68 110q-2 4 -2 6q0 6 9 6h27q7 0 12 -7
l62 -110q2 -4 2 -6z" />
    <glyph glyph-name="uni1ED3" unicode="&#x1ed3;" horiz-adv-x="407" 
d="M95.5 33.5q-40.5 41.5 -40.5 108.5v220q0 66 41 108t107 42q68 0 109 -41.5t41 -108.5v-220q0 -67 -41 -108.5t-109 -41.5q-67 0 -107.5 41.5zM273 68.5q27 29.5 27 75.5v215q0 47 -27 76.5t-70 29.5q-42 0 -68.5 -29.5t-26.5 -76.5v-215q0 -46 26.5 -75.5t68.5 -29.5
q43 0 70 29.5zM102.5 582.5q-1.5 3.5 1.5 8.5l65 102q5 7 12 7h42q7 0 12 -7l67 -102q2 -4 2 -6q0 -6 -8 -6h-31q-7 0 -12 7l-47 76q-1 2 -3 2t-3 -2l-47 -76q-5 -7 -12 -7h-31q-6 0 -7.5 3.5zM357 698q0 -6 -9 -6h-21q-7 0 -12 7l-68 110q-2 4 -2 6q0 6 9 6h27q7 0 12 -7
l62 -110q2 -4 2 -6z" />
    <glyph glyph-name="uni1ED4" unicode="&#x1ed4;" horiz-adv-x="451" 
d="M106.5 38.5q-45.5 46.5 -45.5 121.5v379q0 76 45 122.5t119 46.5t120 -46.5t46 -122.5v-379q0 -75 -46 -121.5t-120 -46.5q-73 0 -118.5 46.5zM306.5 72q31.5 33 31.5 86v383q0 53 -31.5 86.5t-81.5 33.5q-49 0 -80 -33.5t-31 -86.5v-383q0 -53 31 -86t80 -33
q50 0 81.5 33zM325.5 870.5q-1.5 3.5 0.5 7.5q9 21 33 45q14 14 20 23t6 24q0 16 -13 27.5t-31 11.5t-29 -8t-26 -29q-6 -8 -14 -2l-10 7q-7 6 -3 13q18 28 35.5 39.5t47.5 11.5q34 0 56 -20t22 -51q0 -21 -9 -35t-28 -33q-21 -21 -27 -33q-3 -10 -12 -7l-12 3
q-5 2 -6.5 5.5zM123.5 777.5q-1.5 3.5 1.5 8.5l65 102q5 7 12 7h42q7 0 12 -7l67 -102q2 -4 2 -6q0 -6 -8 -6h-31q-7 0 -12 7l-47 76q-1 2 -3 2t-3 -2l-47 -76q-5 -7 -12 -7h-31q-6 0 -7.5 3.5z" />
    <glyph glyph-name="uni1ED5" unicode="&#x1ed5;" horiz-adv-x="407" 
d="M95.5 33.5q-40.5 41.5 -40.5 108.5v220q0 66 41 108t107 42q68 0 109 -41.5t41 -108.5v-220q0 -67 -41 -108.5t-109 -41.5q-67 0 -107.5 41.5zM273 68.5q27 29.5 27 75.5v215q0 47 -27 76.5t-70 29.5q-42 0 -68.5 -29.5t-26.5 -76.5v-215q0 -46 26.5 -75.5t68.5 -29.5
q43 0 70 29.5zM304.5 675.5q-1.5 3.5 0.5 7.5q9 21 33 45q14 14 20 23t6 24q0 16 -13 27.5t-31 11.5t-29 -8t-26 -29q-6 -8 -14 -2l-10 7q-7 6 -3 13q18 28 35.5 39.5t47.5 11.5q34 0 56 -20t22 -51q0 -21 -9 -35t-28 -33q-21 -21 -27 -33q-3 -10 -12 -7l-12 3
q-5 2 -6.5 5.5zM102.5 582.5q-1.5 3.5 1.5 8.5l65 102q5 7 12 7h42q7 0 12 -7l67 -102q2 -4 2 -6q0 -6 -8 -6h-31q-7 0 -12 7l-47 76q-1 2 -3 2t-3 -2l-47 -76q-5 -7 -12 -7h-31q-6 0 -7.5 3.5z" />
    <glyph glyph-name="uni1ED6" unicode="&#x1ed6;" horiz-adv-x="451" 
d="M106.5 38.5q-45.5 46.5 -45.5 121.5v379q0 76 45 122.5t119 46.5t120 -46.5t46 -122.5v-379q0 -75 -46 -121.5t-120 -46.5q-73 0 -118.5 46.5zM306.5 72q31.5 33 31.5 86v383q0 53 -31.5 86.5t-81.5 33.5q-49 0 -80 -33.5t-31 -86.5v-383q0 -53 31 -86t80 -33
q50 0 81.5 33zM123.5 777.5q-1.5 3.5 1.5 8.5l65 102q5 7 12 7h42q7 0 12 -7l67 -102q2 -4 2 -6q0 -6 -8 -6h-31q-7 0 -12 7l-47 76q-1 2 -3 2t-3 -2l-47 -76q-5 -7 -12 -7h-31q-6 0 -7.5 3.5zM254.5 930.5q-11.5 5.5 -27.5 16.5q-3 2 -12 8.5t-17 9.5t-16 3q-15 0 -25 -5.5
t-21 -21.5q-6 -9 -14 -3l-12 9q-9 5 -4 13q27 48 73 48q15 0 27 -6t29 -17q5 -3 14 -9.5t17 -9.5t16 -3q13 0 23.5 6.5t20.5 23.5q5 10 14 4l12 -7q4 -3 4 -8t-4 -12q-14 -23 -34 -34t-38 -11q-14 0 -25.5 5.5z" />
    <glyph glyph-name="uni1ED7" unicode="&#x1ed7;" horiz-adv-x="407" 
d="M95.5 33.5q-40.5 41.5 -40.5 108.5v220q0 66 41 108t107 42q68 0 109 -41.5t41 -108.5v-220q0 -67 -41 -108.5t-109 -41.5q-67 0 -107.5 41.5zM273 68.5q27 29.5 27 75.5v215q0 47 -27 76.5t-70 29.5q-42 0 -68.5 -29.5t-26.5 -76.5v-215q0 -46 26.5 -75.5t68.5 -29.5
q43 0 70 29.5zM102.5 582.5q-1.5 3.5 1.5 8.5l65 102q5 7 12 7h42q7 0 12 -7l67 -102q2 -4 2 -6q0 -6 -8 -6h-31q-7 0 -12 7l-47 76q-1 2 -3 2t-3 -2l-47 -76q-5 -7 -12 -7h-31q-6 0 -7.5 3.5zM233.5 735.5q-11.5 5.5 -27.5 16.5q-3 2 -12 8.5t-17 9.5t-16 3q-15 0 -25 -5.5
t-21 -21.5q-6 -9 -14 -3l-12 9q-9 5 -4 13q27 48 73 48q15 0 27 -6t29 -17q5 -3 14 -9.5t17 -9.5t16 -3q13 0 23.5 6.5t20.5 23.5q5 10 14 4l12 -7q4 -3 4 -8t-4 -12q-14 -23 -34 -34t-38 -11q-14 0 -25.5 5.5z" />
    <glyph glyph-name="uni1ED8" unicode="&#x1ed8;" horiz-adv-x="451" 
d="M106.5 38.5q-45.5 46.5 -45.5 121.5v379q0 76 45 122.5t119 46.5t120 -46.5t46 -122.5v-379q0 -75 -46 -121.5t-120 -46.5q-73 0 -118.5 46.5zM306.5 72q31.5 33 31.5 86v383q0 53 -31.5 86.5t-81.5 33.5q-49 0 -80 -33.5t-31 -86.5v-383q0 -53 31 -86t80 -33
q50 0 81.5 33zM192.5 -165q-13.5 14 -13.5 34t13.5 33.5t33.5 13.5t33.5 -13.5t13.5 -33.5t-13.5 -34t-33.5 -14t-33.5 14zM124.5 777.5q-1.5 3.5 1.5 8.5l65 102q5 7 12 7h42q7 0 12 -7l67 -102q2 -4 2 -6q0 -6 -8 -6h-31q-7 0 -12 7l-47 76q-1 2 -3 2t-3 -2l-47 -76
q-5 -7 -12 -7h-31q-6 0 -7.5 3.5z" />
    <glyph glyph-name="uni1ED9" unicode="&#x1ed9;" horiz-adv-x="407" 
d="M95.5 33.5q-40.5 41.5 -40.5 108.5v220q0 66 41 108t107 42q68 0 109 -41.5t41 -108.5v-220q0 -67 -41 -108.5t-109 -41.5q-67 0 -107.5 41.5zM273 68.5q27 29.5 27 75.5v215q0 47 -27 76.5t-70 29.5q-42 0 -68.5 -29.5t-26.5 -76.5v-215q0 -46 26.5 -75.5t68.5 -29.5
q43 0 70 29.5zM170.5 -165q-13.5 14 -13.5 34t13.5 33.5t33.5 13.5t33.5 -13.5t13.5 -33.5t-13.5 -34t-33.5 -14t-33.5 14zM102.5 582.5q-1.5 3.5 1.5 8.5l65 102q5 7 12 7h42q7 0 12 -7l67 -102q2 -4 2 -6q0 -6 -8 -6h-31q-7 0 -12 7l-47 76q-1 2 -3 2t-3 -2l-47 -76
q-5 -7 -12 -7h-31q-6 0 -7.5 3.5z" />
    <glyph glyph-name="uni1EDA" unicode="&#x1eda;" horiz-adv-x="451" 
d="M328 676q30 -22 46.5 -57t16.5 -80v-379q0 -75 -46 -121.5t-120 -46.5q-73 0 -118.5 46.5t-45.5 121.5v379q0 76 45 122.5t119 46.5q23 0 53 -7q1 -1 5 -1q24 2 42 20.5t21 47.5q0 10 10 10h15q11 0 9 -12q-2 -29 -15.5 -51t-35.5 -34q-4 -1 -1 -5zM338 541
q0 53 -31.5 86.5t-81.5 33.5q-49 0 -80 -33.5t-31 -86.5v-383q0 -53 31 -86t80 -33q50 0 81.5 33t31.5 86v383zM188 769.5q-2 3.5 1 8.5l62 110q5 7 12 7h27q6 0 8 -3.5t-1 -8.5l-69 -110q-5 -7 -12 -7h-20q-6 0 -8 3.5z" />
    <glyph glyph-name="uni1EDB" unicode="&#x1edb;" horiz-adv-x="407" 
d="M303 479q24 -20 37 -50t13 -67v-220q0 -67 -41 -108.5t-109 -41.5q-67 0 -107.5 41.5t-40.5 108.5v220q0 66 41 108t107 42q23 0 51 -7q1 -1 5 -1q25 2 43 20t21 48q0 10 10 10h15q11 0 9 -12q-2 -29 -16.5 -51.5t-37.5 -34.5q-3 -2 0 -5zM273 435.5q-27 29.5 -70 29.5
q-42 0 -68.5 -29.5t-26.5 -76.5v-215q0 -46 26.5 -75.5t68.5 -29.5q43 0 70 29.5t27 75.5v215q0 47 -27 76.5zM166 574.5q-2 3.5 1 8.5l62 110q5 7 12 7h27q6 0 8 -3.5t-1 -8.5l-69 -110q-5 -7 -12 -7h-20q-6 0 -8 3.5z" />
    <glyph glyph-name="uni1EDC" unicode="&#x1edc;" horiz-adv-x="451" 
d="M328 676q30 -22 46.5 -57t16.5 -80v-379q0 -75 -46 -121.5t-120 -46.5q-73 0 -118.5 46.5t-45.5 121.5v379q0 76 45 122.5t119 46.5q23 0 53 -7q1 -1 5 -1q24 2 42 20.5t21 47.5q0 10 10 10h15q11 0 9 -12q-2 -29 -15.5 -51t-35.5 -34q-4 -1 -1 -5zM338 541
q0 53 -31.5 86.5t-81.5 33.5q-49 0 -80 -33.5t-31 -86.5v-383q0 -53 31 -86t80 -33q50 0 81.5 33t31.5 86v383zM242 772q0 -6 -9 -6h-21q-7 0 -12 7l-68 110q-2 4 -2 6q0 6 9 6h27q7 0 12 -7l62 -110q2 -4 2 -6z" />
    <glyph glyph-name="uni1EDD" unicode="&#x1edd;" horiz-adv-x="407" 
d="M303 479q24 -20 37 -50t13 -67v-220q0 -67 -41 -108.5t-109 -41.5q-67 0 -107.5 41.5t-40.5 108.5v220q0 66 41 108t107 42q23 0 51 -7q1 -1 5 -1q25 2 43 20t21 48q0 10 10 10h15q11 0 9 -12q-2 -29 -16.5 -51.5t-37.5 -34.5q-3 -2 0 -5zM273 435.5q-27 29.5 -70 29.5
q-42 0 -68.5 -29.5t-26.5 -76.5v-215q0 -46 26.5 -75.5t68.5 -29.5q43 0 70 29.5t27 75.5v215q0 47 -27 76.5zM220 577q0 -6 -9 -6h-21q-7 0 -12 7l-68 110q-2 4 -2 6q0 6 9 6h27q7 0 12 -7l62 -110q2 -4 2 -6z" />
    <glyph glyph-name="uni1EDE" unicode="&#x1ede;" horiz-adv-x="451" 
d="M328 676q30 -22 46.5 -57t16.5 -80v-379q0 -75 -46 -121.5t-120 -46.5q-73 0 -118.5 46.5t-45.5 121.5v379q0 76 45 122.5t119 46.5q23 0 53 -7q1 -1 5 -1q24 2 42 20.5t21 47.5q0 10 10 10h15q11 0 9 -12q-2 -29 -15.5 -51t-35.5 -34q-4 -1 -1 -5zM338 541
q0 53 -31.5 86.5t-81.5 33.5q-49 0 -80 -33.5t-31 -86.5v-383q0 -53 31 -86t80 -33q50 0 81.5 33t31.5 86v383zM212.5 747.5q-1.5 3.5 0.5 7.5q8 18 20 30.5t14 15.5q14 13 20.5 23t6.5 26t-13.5 27t-32.5 11t-30.5 -8t-25.5 -28q-6 -9 -14 -3l-10 7q-8 6 -3 14q19 28 36 40
t48 12q35 0 57.5 -20.5t22.5 -51.5q0 -22 -10 -37.5t-29 -34.5q-19 -17 -26 -30l-2 -4q-3 -8 -11 -5l-12 3q-5 2 -6.5 5.5z" />
    <glyph glyph-name="uni1EDF" unicode="&#x1edf;" horiz-adv-x="407" 
d="M303 479q24 -20 37 -50t13 -67v-220q0 -67 -41 -108.5t-109 -41.5q-67 0 -107.5 41.5t-40.5 108.5v220q0 66 41 108t107 42q23 0 51 -7q1 -1 5 -1q25 2 43 20t21 48q0 10 10 10h15q11 0 9 -12q-2 -29 -16.5 -51.5t-37.5 -34.5q-3 -2 0 -5zM273 435.5q-27 29.5 -70 29.5
q-42 0 -68.5 -29.5t-26.5 -76.5v-215q0 -46 26.5 -75.5t68.5 -29.5q43 0 70 29.5t27 75.5v215q0 47 -27 76.5zM190.5 552.5q-1.5 3.5 0.5 7.5q8 18 20 30.5t14 15.5q14 13 20.5 23t6.5 26t-13.5 27t-32.5 11t-30.5 -8t-25.5 -28q-6 -9 -14 -3l-10 7q-8 6 -3 14q19 28 36 40
t48 12q35 0 57.5 -20.5t22.5 -51.5q0 -22 -10 -37.5t-29 -34.5q-19 -17 -26 -30l-2 -4q-3 -8 -11 -5l-12 3q-5 2 -6.5 5.5z" />
    <glyph glyph-name="uni1EE0" unicode="&#x1ee0;" horiz-adv-x="451" 
d="M328 676q30 -22 46.5 -57t16.5 -80v-379q0 -75 -46 -121.5t-120 -46.5q-73 0 -118.5 46.5t-45.5 121.5v379q0 76 45 122.5t119 46.5q23 0 53 -7q1 -1 5 -1q24 2 42 20.5t21 47.5q0 10 10 10h15q11 0 9 -12q-2 -29 -15.5 -51t-35.5 -34q-4 -1 -1 -5zM338 541
q0 53 -31.5 86.5t-81.5 33.5q-49 0 -80 -33.5t-31 -86.5v-383q0 -53 31 -86t80 -33q50 0 81.5 33t31.5 86v383zM259.5 814.5q-11.5 5.5 -27.5 16.5q-3 2 -12 8.5t-17 9.5t-16 3q-15 0 -25 -5.5t-21 -21.5q-6 -9 -14 -3l-12 9q-9 5 -4 13q27 48 73 48q15 0 27 -6t29 -17
q5 -3 14 -9.5t17 -9.5t16 -3q13 0 23.5 6.5t20.5 23.5q5 10 14 4l12 -7q4 -3 4 -8t-4 -12q-14 -23 -34 -34t-38 -11q-14 0 -25.5 5.5z" />
    <glyph glyph-name="uni1EE1" unicode="&#x1ee1;" horiz-adv-x="407" 
d="M303 479q24 -20 37 -50t13 -67v-220q0 -67 -41 -108.5t-109 -41.5q-67 0 -107.5 41.5t-40.5 108.5v220q0 66 41 108t107 42q23 0 51 -7q1 -1 5 -1q25 2 43 20t21 48q0 10 10 10h15q11 0 9 -12q-2 -29 -16.5 -51.5t-37.5 -34.5q-3 -2 0 -5zM273 435.5q-27 29.5 -70 29.5
q-42 0 -68.5 -29.5t-26.5 -76.5v-215q0 -46 26.5 -75.5t68.5 -29.5q43 0 70 29.5t27 75.5v215q0 47 -27 76.5zM230.5 621.5q-11.5 5.5 -27.5 16.5q-3 2 -12 8.5t-17 9.5t-16 3q-15 0 -25 -5.5t-21 -21.5q-6 -9 -14 -3l-12 9q-9 5 -4 13q27 48 73 48q15 0 27 -6t29 -17
q5 -3 14 -9.5t17 -9.5t16 -3q13 0 23.5 6.5t20.5 23.5q5 10 14 4l12 -7q4 -3 4 -8t-4 -12q-14 -23 -34 -34t-38 -11q-14 0 -25.5 5.5z" />
    <glyph glyph-name="uni1EE2" unicode="&#x1ee2;" horiz-adv-x="451" 
d="M328 676q30 -22 46.5 -57t16.5 -80v-379q0 -75 -46 -121.5t-120 -46.5q-73 0 -118.5 46.5t-45.5 121.5v379q0 76 45 122.5t119 46.5q23 0 53 -7q1 -1 5 -1q24 2 42 20.5t21 47.5q0 10 10 10h15q11 0 9 -12q-2 -29 -15.5 -51t-35.5 -34q-4 -1 -1 -5zM338 541
q0 53 -31.5 86.5t-81.5 33.5q-49 0 -80 -33.5t-31 -86.5v-383q0 -53 31 -86t80 -33q50 0 81.5 33t31.5 86v383zM192.5 -165q-13.5 14 -13.5 34t13.5 33.5t33.5 13.5t33.5 -13.5t13.5 -33.5t-13.5 -34t-33.5 -14t-33.5 14z" />
    <glyph glyph-name="uni1EE3" unicode="&#x1ee3;" horiz-adv-x="407" 
d="M303 479q24 -20 37 -50t13 -67v-220q0 -67 -41 -108.5t-109 -41.5q-67 0 -107.5 41.5t-40.5 108.5v220q0 66 41 108t107 42q23 0 51 -7q1 -1 5 -1q25 2 43 20t21 48q0 10 10 10h15q11 0 9 -12q-2 -29 -16.5 -51.5t-37.5 -34.5q-3 -2 0 -5zM273 435.5q-27 29.5 -70 29.5
q-42 0 -68.5 -29.5t-26.5 -76.5v-215q0 -46 26.5 -75.5t68.5 -29.5q43 0 70 29.5t27 75.5v215q0 47 -27 76.5zM170.5 -165q-13.5 14 -13.5 34t13.5 33.5t33.5 13.5t33.5 -13.5t13.5 -33.5t-13.5 -34t-33.5 -14t-33.5 14z" />
    <glyph glyph-name="uni1EE4" unicode="&#x1ee4;" horiz-adv-x="475" 
d="M118 43.5q-45 51.5 -45 137.5v509q0 10 10 10h33q10 0 10 -10v-515q0 -61 30.5 -98.5t80.5 -37.5t81.5 37.5t31.5 98.5v515q0 10 10 10h33q10 0 10 -10v-509q0 -85 -46 -137t-120 -52t-119 51.5zM204.5 -165q-13.5 14 -13.5 34t13.5 33.5t33.5 13.5t33.5 -13.5
t13.5 -33.5t-13.5 -34t-33.5 -14t-33.5 14z" />
    <glyph glyph-name="uni1EE5" unicode="&#x1ee5;" 
d="M308 504h33q10 0 10 -10v-484q0 -10 -10 -10h-33q-10 0 -10 10v36q0 3 -1.5 3.5t-3.5 -1.5q-32 -55 -102 -55q-60 0 -95 36.5t-35 109.5v355q0 10 10 10h33q10 0 10 -10v-343q0 -55 23.5 -83t66.5 -28q44 0 69 32t25 88v334q0 10 10 10zM172.5 -165q-13.5 14 -13.5 34
t13.5 33.5t33.5 13.5t33.5 -13.5t13.5 -33.5t-13.5 -34t-33.5 -14t-33.5 14z" />
    <glyph glyph-name="uni1EE6" unicode="&#x1ee6;" horiz-adv-x="475" 
d="M118 43.5q-45 51.5 -45 137.5v509q0 10 10 10h33q10 0 10 -10v-515q0 -61 30.5 -98.5t80.5 -37.5t81.5 37.5t31.5 98.5v515q0 10 10 10h33q10 0 10 -10v-509q0 -85 -46 -137t-120 -52t-119 51.5zM224.5 748.5q-1.5 3.5 0.5 7.5q8 18 20 30.5t14 15.5q14 13 20.5 23
t6.5 26t-13.5 27t-32.5 11t-30.5 -8t-25.5 -28q-6 -9 -14 -3l-10 7q-8 6 -3 14q19 28 36 40t48 12q35 0 57.5 -20.5t22.5 -51.5q0 -22 -10 -37.5t-29 -34.5q-19 -17 -26 -30l-2 -4q-3 -8 -11 -5l-12 3q-5 2 -6.5 5.5z" />
    <glyph glyph-name="uni1EE7" unicode="&#x1ee7;" 
d="M308 504h33q10 0 10 -10v-484q0 -10 -10 -10h-33q-10 0 -10 10v36q0 3 -1.5 3.5t-3.5 -1.5q-32 -55 -102 -55q-60 0 -95 36.5t-35 109.5v355q0 10 10 10h33q10 0 10 -10v-343q0 -55 23.5 -83t66.5 -28q44 0 69 32t25 88v334q0 10 10 10zM192.5 552.5q-1.5 3.5 0.5 7.5
q8 18 20 30.5t14 15.5q14 13 20.5 23t6.5 26t-13.5 27t-32.5 11t-30.5 -8t-25.5 -28q-6 -9 -14 -3l-10 7q-8 6 -3 14q19 28 36 40t48 12q35 0 57.5 -20.5t22.5 -51.5q0 -22 -10 -37.5t-29 -34.5q-19 -17 -26 -30l-2 -4q-3 -8 -11 -5l-12 3q-5 2 -6.5 5.5z" />
    <glyph glyph-name="uni1EE8" unicode="&#x1ee8;" horiz-adv-x="475" 
d="M481 768q-3 -37 -23.5 -62.5t-51.5 -33.5q-3 -1 -3 -5v-486q0 -85 -46 -137t-120 -52t-119 51.5t-45 137.5v509q0 10 10 10h33q10 0 10 -10v-515q0 -61 30.5 -98.5t80.5 -37.5t81.5 37.5t31.5 98.5v515q0 10 10 10h16q26 0 46 18.5t24 49.5q0 10 10 10h15q10 0 10 -10z
M200 770.5q-2 3.5 1 8.5l62 110q5 7 12 7h27q6 0 8 -3.5t-1 -8.5l-69 -110q-5 -7 -12 -7h-20q-6 0 -8 3.5z" />
    <glyph glyph-name="uni1EE9" unicode="&#x1ee9;" 
d="M427 572q-3 -36 -22.5 -61t-50.5 -34q-3 -1 -3 -5v-462q0 -10 -10 -10h-33q-10 0 -10 10v36q0 3 -1.5 3.5t-3.5 -1.5q-32 -55 -102 -55q-60 0 -95 36.5t-35 109.5v355q0 10 10 10h33q10 0 10 -10v-343q0 -55 23.5 -83t66.5 -28q44 0 69 32t25 88v334q0 10 10 10h14
q27 0 46.5 18t23.5 50q0 10 10 10h15q10 0 10 -10zM168 574.5q-2 3.5 1 8.5l62 110q5 7 12 7h27q6 0 8 -3.5t-1 -8.5l-69 -110q-5 -7 -12 -7h-20q-6 0 -8 3.5z" />
    <glyph glyph-name="uni1EEA" unicode="&#x1eea;" horiz-adv-x="475" 
d="M481 768q-3 -37 -23.5 -62.5t-51.5 -33.5q-3 -1 -3 -5v-486q0 -85 -46 -137t-120 -52t-119 51.5t-45 137.5v509q0 10 10 10h33q10 0 10 -10v-515q0 -61 30.5 -98.5t80.5 -37.5t81.5 37.5t31.5 98.5v515q0 10 10 10h16q26 0 46 18.5t24 49.5q0 10 10 10h15q10 0 10 -10z
M254 773q0 -6 -9 -6h-21q-7 0 -12 7l-68 110q-2 4 -2 6q0 6 9 6h27q7 0 12 -7l62 -110q2 -4 2 -6z" />
    <glyph glyph-name="uni1EEB" unicode="&#x1eeb;" 
d="M427 572q-3 -36 -22.5 -61t-50.5 -34q-3 -1 -3 -5v-462q0 -10 -10 -10h-33q-10 0 -10 10v36q0 3 -1.5 3.5t-3.5 -1.5q-32 -55 -102 -55q-60 0 -95 36.5t-35 109.5v355q0 10 10 10h33q10 0 10 -10v-343q0 -55 23.5 -83t66.5 -28q44 0 69 32t25 88v334q0 10 10 10h14
q27 0 46.5 18t23.5 50q0 10 10 10h15q10 0 10 -10zM223 577q0 -6 -9 -6h-21q-7 0 -12 7l-68 110q-2 4 -2 6q0 6 9 6h27q7 0 12 -7l62 -110q2 -4 2 -6z" />
    <glyph glyph-name="uni1EEC" unicode="&#x1eec;" horiz-adv-x="475" 
d="M481 768q-3 -37 -23.5 -62.5t-51.5 -33.5q-3 -1 -3 -5v-486q0 -85 -46 -137t-120 -52t-119 51.5t-45 137.5v509q0 10 10 10h33q10 0 10 -10v-515q0 -61 30.5 -98.5t80.5 -37.5t81.5 37.5t31.5 98.5v515q0 10 10 10h16q26 0 46 18.5t24 49.5q0 10 10 10h15q10 0 10 -10z
M224.5 748.5q-1.5 3.5 0.5 7.5q8 18 20 30.5t14 15.5q14 13 20.5 23t6.5 26t-13.5 27t-32.5 11t-30.5 -8t-25.5 -28q-6 -9 -14 -3l-10 7q-8 6 -3 14q19 28 36 40t48 12q35 0 57.5 -20.5t22.5 -51.5q0 -22 -10 -37.5t-29 -34.5q-19 -17 -26 -30l-2 -4q-3 -8 -11 -5l-12 3
q-5 2 -6.5 5.5z" />
    </font>
</defs>
</svg>
